%TF.GenerationSoftware,KiCad,Pcbnew,9.0.0*%
%TF.CreationDate,2025-04-02T13:07:28+08:00*%
%TF.ProjectId,keynergy_schem,6b65796e-6572-4677-995f-736368656d2e,rev?*%
%TF.SameCoordinates,Original*%
%TF.FileFunction,Copper,L1,Top*%
%TF.FilePolarity,Positive*%
%FSLAX46Y46*%
G04 Gerber Fmt 4.6, Leading zero omitted, Abs format (unit mm)*
G04 Created by KiCad (PCBNEW 9.0.0) date 2025-04-02 13:07:28*
%MOMM*%
%LPD*%
G01*
G04 APERTURE LIST*
G04 Aperture macros list*
%AMOutline4P*
0 Free polygon, 4 corners , with rotation*
0 The origin of the aperture is its center*
0 number of corners: always 4*
0 $1 to $8 corner X, Y*
0 $9 Rotation angle, in degrees counterclockwise*
0 create outline with 4 corners*
4,1,4,$1,$2,$3,$4,$5,$6,$7,$8,$1,$2,$9*%
%AMOutline5P*
0 Free polygon, 5 corners , with rotation*
0 The origin of the aperture is its center*
0 number of corners: always 5*
0 $1 to $10 corner X, Y*
0 $11 Rotation angle, in degrees counterclockwise*
0 create outline with 5 corners*
4,1,5,$1,$2,$3,$4,$5,$6,$7,$8,$9,$10,$1,$2,$11*%
%AMOutline6P*
0 Free polygon, 6 corners , with rotation*
0 The origin of the aperture is its center*
0 number of corners: always 6*
0 $1 to $12 corner X, Y*
0 $13 Rotation angle, in degrees counterclockwise*
0 create outline with 6 corners*
4,1,6,$1,$2,$3,$4,$5,$6,$7,$8,$9,$10,$11,$12,$1,$2,$13*%
%AMOutline7P*
0 Free polygon, 7 corners , with rotation*
0 The origin of the aperture is its center*
0 number of corners: always 7*
0 $1 to $14 corner X, Y*
0 $15 Rotation angle, in degrees counterclockwise*
0 create outline with 7 corners*
4,1,7,$1,$2,$3,$4,$5,$6,$7,$8,$9,$10,$11,$12,$13,$14,$1,$2,$15*%
%AMOutline8P*
0 Free polygon, 8 corners , with rotation*
0 The origin of the aperture is its center*
0 number of corners: always 8*
0 $1 to $16 corner X, Y*
0 $17 Rotation angle, in degrees counterclockwise*
0 create outline with 8 corners*
4,1,8,$1,$2,$3,$4,$5,$6,$7,$8,$9,$10,$11,$12,$13,$14,$15,$16,$1,$2,$17*%
G04 Aperture macros list end*
%ADD10C,0.100000*%
%ADD11C,0.150000*%
%ADD12C,0.300000*%
%ADD13C,0.400000*%
%TA.AperFunction,NonConductor*%
%ADD14C,0.100000*%
%TD*%
%TA.AperFunction,NonConductor*%
%ADD15C,0.300000*%
%TD*%
%TA.AperFunction,NonConductor*%
%ADD16C,0.150000*%
%TD*%
%TA.AperFunction,ComponentPad*%
%ADD17R,1.600000X1.600000*%
%TD*%
%TA.AperFunction,ComponentPad*%
%ADD18O,1.600000X1.600000*%
%TD*%
%TA.AperFunction,ComponentPad*%
%ADD19R,1.700000X1.700000*%
%TD*%
%TA.AperFunction,ComponentPad*%
%ADD20O,1.700000X1.700000*%
%TD*%
%TA.AperFunction,SMDPad,CuDef*%
%ADD21Outline5P,-1.079500X3.098800X-0.431800X3.746500X1.079500X3.746500X1.079500X-3.746500X-1.079500X-3.746500X270.000000*%
%TD*%
%TA.AperFunction,SMDPad,CuDef*%
%ADD22Outline4P,-1.190625X-3.667125X1.190625X-3.667125X1.190625X3.667125X-1.190625X3.667125X270.000000*%
%TD*%
%TA.AperFunction,SMDPad,CuDef*%
%ADD23R,7.239000X2.508250*%
%TD*%
%TA.AperFunction,SMDPad,CuDef*%
%ADD24R,7.286624X2.381248*%
%TD*%
%TA.AperFunction,Conductor*%
%ADD25C,0.508000*%
%TD*%
G04 APERTURE END LIST*
D10*
D11*
X177002200Y-166007200D02*
X285002200Y-166007200D01*
X285002200Y-198007200D01*
X177002200Y-198007200D01*
X177002200Y-166007200D01*
D10*
D11*
X10000000Y-10000000D02*
X287002200Y-10000000D01*
X287002200Y-200007200D01*
X10000000Y-200007200D01*
X10000000Y-10000000D01*
D10*
D11*
X12000000Y-12000000D02*
X285002200Y-12000000D01*
X285002200Y-198007200D01*
X12000000Y-198007200D01*
X12000000Y-12000000D01*
D10*
D11*
X60000000Y-12000000D02*
X60000000Y-10000000D01*
D10*
D11*
X110000000Y-12000000D02*
X110000000Y-10000000D01*
D10*
D11*
X160000000Y-12000000D02*
X160000000Y-10000000D01*
D10*
D11*
X210000000Y-12000000D02*
X210000000Y-10000000D01*
D10*
D11*
X260000000Y-12000000D02*
X260000000Y-10000000D01*
D10*
D11*
X36089160Y-11593604D02*
X35346303Y-11593604D01*
X35717731Y-11593604D02*
X35717731Y-10293604D01*
X35717731Y-10293604D02*
X35593922Y-10479319D01*
X35593922Y-10479319D02*
X35470112Y-10603128D01*
X35470112Y-10603128D02*
X35346303Y-10665033D01*
D10*
D11*
X85346303Y-10417414D02*
X85408207Y-10355509D01*
X85408207Y-10355509D02*
X85532017Y-10293604D01*
X85532017Y-10293604D02*
X85841541Y-10293604D01*
X85841541Y-10293604D02*
X85965350Y-10355509D01*
X85965350Y-10355509D02*
X86027255Y-10417414D01*
X86027255Y-10417414D02*
X86089160Y-10541223D01*
X86089160Y-10541223D02*
X86089160Y-10665033D01*
X86089160Y-10665033D02*
X86027255Y-10850747D01*
X86027255Y-10850747D02*
X85284398Y-11593604D01*
X85284398Y-11593604D02*
X86089160Y-11593604D01*
D10*
D11*
X135284398Y-10293604D02*
X136089160Y-10293604D01*
X136089160Y-10293604D02*
X135655826Y-10788842D01*
X135655826Y-10788842D02*
X135841541Y-10788842D01*
X135841541Y-10788842D02*
X135965350Y-10850747D01*
X135965350Y-10850747D02*
X136027255Y-10912652D01*
X136027255Y-10912652D02*
X136089160Y-11036461D01*
X136089160Y-11036461D02*
X136089160Y-11345985D01*
X136089160Y-11345985D02*
X136027255Y-11469795D01*
X136027255Y-11469795D02*
X135965350Y-11531700D01*
X135965350Y-11531700D02*
X135841541Y-11593604D01*
X135841541Y-11593604D02*
X135470112Y-11593604D01*
X135470112Y-11593604D02*
X135346303Y-11531700D01*
X135346303Y-11531700D02*
X135284398Y-11469795D01*
D10*
D11*
X185965350Y-10726938D02*
X185965350Y-11593604D01*
X185655826Y-10231700D02*
X185346303Y-11160271D01*
X185346303Y-11160271D02*
X186151064Y-11160271D01*
D10*
D11*
X236027255Y-10293604D02*
X235408207Y-10293604D01*
X235408207Y-10293604D02*
X235346303Y-10912652D01*
X235346303Y-10912652D02*
X235408207Y-10850747D01*
X235408207Y-10850747D02*
X235532017Y-10788842D01*
X235532017Y-10788842D02*
X235841541Y-10788842D01*
X235841541Y-10788842D02*
X235965350Y-10850747D01*
X235965350Y-10850747D02*
X236027255Y-10912652D01*
X236027255Y-10912652D02*
X236089160Y-11036461D01*
X236089160Y-11036461D02*
X236089160Y-11345985D01*
X236089160Y-11345985D02*
X236027255Y-11469795D01*
X236027255Y-11469795D02*
X235965350Y-11531700D01*
X235965350Y-11531700D02*
X235841541Y-11593604D01*
X235841541Y-11593604D02*
X235532017Y-11593604D01*
X235532017Y-11593604D02*
X235408207Y-11531700D01*
X235408207Y-11531700D02*
X235346303Y-11469795D01*
D10*
D11*
X285965350Y-10293604D02*
X285717731Y-10293604D01*
X285717731Y-10293604D02*
X285593922Y-10355509D01*
X285593922Y-10355509D02*
X285532017Y-10417414D01*
X285532017Y-10417414D02*
X285408207Y-10603128D01*
X285408207Y-10603128D02*
X285346303Y-10850747D01*
X285346303Y-10850747D02*
X285346303Y-11345985D01*
X285346303Y-11345985D02*
X285408207Y-11469795D01*
X285408207Y-11469795D02*
X285470112Y-11531700D01*
X285470112Y-11531700D02*
X285593922Y-11593604D01*
X285593922Y-11593604D02*
X285841541Y-11593604D01*
X285841541Y-11593604D02*
X285965350Y-11531700D01*
X285965350Y-11531700D02*
X286027255Y-11469795D01*
X286027255Y-11469795D02*
X286089160Y-11345985D01*
X286089160Y-11345985D02*
X286089160Y-11036461D01*
X286089160Y-11036461D02*
X286027255Y-10912652D01*
X286027255Y-10912652D02*
X285965350Y-10850747D01*
X285965350Y-10850747D02*
X285841541Y-10788842D01*
X285841541Y-10788842D02*
X285593922Y-10788842D01*
X285593922Y-10788842D02*
X285470112Y-10850747D01*
X285470112Y-10850747D02*
X285408207Y-10912652D01*
X285408207Y-10912652D02*
X285346303Y-11036461D01*
D10*
D11*
X60000000Y-198007200D02*
X60000000Y-200007200D01*
D10*
D11*
X110000000Y-198007200D02*
X110000000Y-200007200D01*
D10*
D11*
X160000000Y-198007200D02*
X160000000Y-200007200D01*
D10*
D11*
X210000000Y-198007200D02*
X210000000Y-200007200D01*
D10*
D11*
X260000000Y-198007200D02*
X260000000Y-200007200D01*
D10*
D11*
X36089160Y-199600804D02*
X35346303Y-199600804D01*
X35717731Y-199600804D02*
X35717731Y-198300804D01*
X35717731Y-198300804D02*
X35593922Y-198486519D01*
X35593922Y-198486519D02*
X35470112Y-198610328D01*
X35470112Y-198610328D02*
X35346303Y-198672233D01*
D10*
D11*
X85346303Y-198424614D02*
X85408207Y-198362709D01*
X85408207Y-198362709D02*
X85532017Y-198300804D01*
X85532017Y-198300804D02*
X85841541Y-198300804D01*
X85841541Y-198300804D02*
X85965350Y-198362709D01*
X85965350Y-198362709D02*
X86027255Y-198424614D01*
X86027255Y-198424614D02*
X86089160Y-198548423D01*
X86089160Y-198548423D02*
X86089160Y-198672233D01*
X86089160Y-198672233D02*
X86027255Y-198857947D01*
X86027255Y-198857947D02*
X85284398Y-199600804D01*
X85284398Y-199600804D02*
X86089160Y-199600804D01*
D10*
D11*
X135284398Y-198300804D02*
X136089160Y-198300804D01*
X136089160Y-198300804D02*
X135655826Y-198796042D01*
X135655826Y-198796042D02*
X135841541Y-198796042D01*
X135841541Y-198796042D02*
X135965350Y-198857947D01*
X135965350Y-198857947D02*
X136027255Y-198919852D01*
X136027255Y-198919852D02*
X136089160Y-199043661D01*
X136089160Y-199043661D02*
X136089160Y-199353185D01*
X136089160Y-199353185D02*
X136027255Y-199476995D01*
X136027255Y-199476995D02*
X135965350Y-199538900D01*
X135965350Y-199538900D02*
X135841541Y-199600804D01*
X135841541Y-199600804D02*
X135470112Y-199600804D01*
X135470112Y-199600804D02*
X135346303Y-199538900D01*
X135346303Y-199538900D02*
X135284398Y-199476995D01*
D10*
D11*
X185965350Y-198734138D02*
X185965350Y-199600804D01*
X185655826Y-198238900D02*
X185346303Y-199167471D01*
X185346303Y-199167471D02*
X186151064Y-199167471D01*
D10*
D11*
X236027255Y-198300804D02*
X235408207Y-198300804D01*
X235408207Y-198300804D02*
X235346303Y-198919852D01*
X235346303Y-198919852D02*
X235408207Y-198857947D01*
X235408207Y-198857947D02*
X235532017Y-198796042D01*
X235532017Y-198796042D02*
X235841541Y-198796042D01*
X235841541Y-198796042D02*
X235965350Y-198857947D01*
X235965350Y-198857947D02*
X236027255Y-198919852D01*
X236027255Y-198919852D02*
X236089160Y-199043661D01*
X236089160Y-199043661D02*
X236089160Y-199353185D01*
X236089160Y-199353185D02*
X236027255Y-199476995D01*
X236027255Y-199476995D02*
X235965350Y-199538900D01*
X235965350Y-199538900D02*
X235841541Y-199600804D01*
X235841541Y-199600804D02*
X235532017Y-199600804D01*
X235532017Y-199600804D02*
X235408207Y-199538900D01*
X235408207Y-199538900D02*
X235346303Y-199476995D01*
D10*
D11*
X285965350Y-198300804D02*
X285717731Y-198300804D01*
X285717731Y-198300804D02*
X285593922Y-198362709D01*
X285593922Y-198362709D02*
X285532017Y-198424614D01*
X285532017Y-198424614D02*
X285408207Y-198610328D01*
X285408207Y-198610328D02*
X285346303Y-198857947D01*
X285346303Y-198857947D02*
X285346303Y-199353185D01*
X285346303Y-199353185D02*
X285408207Y-199476995D01*
X285408207Y-199476995D02*
X285470112Y-199538900D01*
X285470112Y-199538900D02*
X285593922Y-199600804D01*
X285593922Y-199600804D02*
X285841541Y-199600804D01*
X285841541Y-199600804D02*
X285965350Y-199538900D01*
X285965350Y-199538900D02*
X286027255Y-199476995D01*
X286027255Y-199476995D02*
X286089160Y-199353185D01*
X286089160Y-199353185D02*
X286089160Y-199043661D01*
X286089160Y-199043661D02*
X286027255Y-198919852D01*
X286027255Y-198919852D02*
X285965350Y-198857947D01*
X285965350Y-198857947D02*
X285841541Y-198796042D01*
X285841541Y-198796042D02*
X285593922Y-198796042D01*
X285593922Y-198796042D02*
X285470112Y-198857947D01*
X285470112Y-198857947D02*
X285408207Y-198919852D01*
X285408207Y-198919852D02*
X285346303Y-199043661D01*
D10*
D11*
X10000000Y-60000000D02*
X12000000Y-60000000D01*
D10*
D11*
X10000000Y-110000000D02*
X12000000Y-110000000D01*
D10*
D11*
X10000000Y-160000000D02*
X12000000Y-160000000D01*
D10*
D11*
X10690476Y-35222176D02*
X11309523Y-35222176D01*
X10566666Y-35593604D02*
X10999999Y-34293604D01*
X10999999Y-34293604D02*
X11433333Y-35593604D01*
D10*
D11*
X11092857Y-84912652D02*
X11278571Y-84974557D01*
X11278571Y-84974557D02*
X11340476Y-85036461D01*
X11340476Y-85036461D02*
X11402380Y-85160271D01*
X11402380Y-85160271D02*
X11402380Y-85345985D01*
X11402380Y-85345985D02*
X11340476Y-85469795D01*
X11340476Y-85469795D02*
X11278571Y-85531700D01*
X11278571Y-85531700D02*
X11154761Y-85593604D01*
X11154761Y-85593604D02*
X10659523Y-85593604D01*
X10659523Y-85593604D02*
X10659523Y-84293604D01*
X10659523Y-84293604D02*
X11092857Y-84293604D01*
X11092857Y-84293604D02*
X11216666Y-84355509D01*
X11216666Y-84355509D02*
X11278571Y-84417414D01*
X11278571Y-84417414D02*
X11340476Y-84541223D01*
X11340476Y-84541223D02*
X11340476Y-84665033D01*
X11340476Y-84665033D02*
X11278571Y-84788842D01*
X11278571Y-84788842D02*
X11216666Y-84850747D01*
X11216666Y-84850747D02*
X11092857Y-84912652D01*
X11092857Y-84912652D02*
X10659523Y-84912652D01*
D10*
D11*
X11402380Y-135469795D02*
X11340476Y-135531700D01*
X11340476Y-135531700D02*
X11154761Y-135593604D01*
X11154761Y-135593604D02*
X11030952Y-135593604D01*
X11030952Y-135593604D02*
X10845238Y-135531700D01*
X10845238Y-135531700D02*
X10721428Y-135407890D01*
X10721428Y-135407890D02*
X10659523Y-135284080D01*
X10659523Y-135284080D02*
X10597619Y-135036461D01*
X10597619Y-135036461D02*
X10597619Y-134850747D01*
X10597619Y-134850747D02*
X10659523Y-134603128D01*
X10659523Y-134603128D02*
X10721428Y-134479319D01*
X10721428Y-134479319D02*
X10845238Y-134355509D01*
X10845238Y-134355509D02*
X11030952Y-134293604D01*
X11030952Y-134293604D02*
X11154761Y-134293604D01*
X11154761Y-134293604D02*
X11340476Y-134355509D01*
X11340476Y-134355509D02*
X11402380Y-134417414D01*
D10*
D11*
X10659523Y-185593604D02*
X10659523Y-184293604D01*
X10659523Y-184293604D02*
X10969047Y-184293604D01*
X10969047Y-184293604D02*
X11154761Y-184355509D01*
X11154761Y-184355509D02*
X11278571Y-184479319D01*
X11278571Y-184479319D02*
X11340476Y-184603128D01*
X11340476Y-184603128D02*
X11402380Y-184850747D01*
X11402380Y-184850747D02*
X11402380Y-185036461D01*
X11402380Y-185036461D02*
X11340476Y-185284080D01*
X11340476Y-185284080D02*
X11278571Y-185407890D01*
X11278571Y-185407890D02*
X11154761Y-185531700D01*
X11154761Y-185531700D02*
X10969047Y-185593604D01*
X10969047Y-185593604D02*
X10659523Y-185593604D01*
D10*
D11*
X287002200Y-60000000D02*
X285002200Y-60000000D01*
D10*
D11*
X287002200Y-110000000D02*
X285002200Y-110000000D01*
D10*
D11*
X287002200Y-160000000D02*
X285002200Y-160000000D01*
D10*
D11*
X285692676Y-35222176D02*
X286311723Y-35222176D01*
X285568866Y-35593604D02*
X286002199Y-34293604D01*
X286002199Y-34293604D02*
X286435533Y-35593604D01*
D10*
D11*
X286095057Y-84912652D02*
X286280771Y-84974557D01*
X286280771Y-84974557D02*
X286342676Y-85036461D01*
X286342676Y-85036461D02*
X286404580Y-85160271D01*
X286404580Y-85160271D02*
X286404580Y-85345985D01*
X286404580Y-85345985D02*
X286342676Y-85469795D01*
X286342676Y-85469795D02*
X286280771Y-85531700D01*
X286280771Y-85531700D02*
X286156961Y-85593604D01*
X286156961Y-85593604D02*
X285661723Y-85593604D01*
X285661723Y-85593604D02*
X285661723Y-84293604D01*
X285661723Y-84293604D02*
X286095057Y-84293604D01*
X286095057Y-84293604D02*
X286218866Y-84355509D01*
X286218866Y-84355509D02*
X286280771Y-84417414D01*
X286280771Y-84417414D02*
X286342676Y-84541223D01*
X286342676Y-84541223D02*
X286342676Y-84665033D01*
X286342676Y-84665033D02*
X286280771Y-84788842D01*
X286280771Y-84788842D02*
X286218866Y-84850747D01*
X286218866Y-84850747D02*
X286095057Y-84912652D01*
X286095057Y-84912652D02*
X285661723Y-84912652D01*
D10*
D11*
X286404580Y-135469795D02*
X286342676Y-135531700D01*
X286342676Y-135531700D02*
X286156961Y-135593604D01*
X286156961Y-135593604D02*
X286033152Y-135593604D01*
X286033152Y-135593604D02*
X285847438Y-135531700D01*
X285847438Y-135531700D02*
X285723628Y-135407890D01*
X285723628Y-135407890D02*
X285661723Y-135284080D01*
X285661723Y-135284080D02*
X285599819Y-135036461D01*
X285599819Y-135036461D02*
X285599819Y-134850747D01*
X285599819Y-134850747D02*
X285661723Y-134603128D01*
X285661723Y-134603128D02*
X285723628Y-134479319D01*
X285723628Y-134479319D02*
X285847438Y-134355509D01*
X285847438Y-134355509D02*
X286033152Y-134293604D01*
X286033152Y-134293604D02*
X286156961Y-134293604D01*
X286156961Y-134293604D02*
X286342676Y-134355509D01*
X286342676Y-134355509D02*
X286404580Y-134417414D01*
D10*
D11*
X285661723Y-185593604D02*
X285661723Y-184293604D01*
X285661723Y-184293604D02*
X285971247Y-184293604D01*
X285971247Y-184293604D02*
X286156961Y-184355509D01*
X286156961Y-184355509D02*
X286280771Y-184479319D01*
X286280771Y-184479319D02*
X286342676Y-184603128D01*
X286342676Y-184603128D02*
X286404580Y-184850747D01*
X286404580Y-184850747D02*
X286404580Y-185036461D01*
X286404580Y-185036461D02*
X286342676Y-185284080D01*
X286342676Y-185284080D02*
X286280771Y-185407890D01*
X286280771Y-185407890D02*
X286156961Y-185531700D01*
X286156961Y-185531700D02*
X285971247Y-185593604D01*
X285971247Y-185593604D02*
X285661723Y-185593604D01*
D10*
D11*
X200458026Y-193793328D02*
X200458026Y-192293328D01*
X200458026Y-192293328D02*
X200815169Y-192293328D01*
X200815169Y-192293328D02*
X201029455Y-192364757D01*
X201029455Y-192364757D02*
X201172312Y-192507614D01*
X201172312Y-192507614D02*
X201243741Y-192650471D01*
X201243741Y-192650471D02*
X201315169Y-192936185D01*
X201315169Y-192936185D02*
X201315169Y-193150471D01*
X201315169Y-193150471D02*
X201243741Y-193436185D01*
X201243741Y-193436185D02*
X201172312Y-193579042D01*
X201172312Y-193579042D02*
X201029455Y-193721900D01*
X201029455Y-193721900D02*
X200815169Y-193793328D01*
X200815169Y-193793328D02*
X200458026Y-193793328D01*
X202600884Y-193793328D02*
X202600884Y-193007614D01*
X202600884Y-193007614D02*
X202529455Y-192864757D01*
X202529455Y-192864757D02*
X202386598Y-192793328D01*
X202386598Y-192793328D02*
X202100884Y-192793328D01*
X202100884Y-192793328D02*
X201958026Y-192864757D01*
X202600884Y-193721900D02*
X202458026Y-193793328D01*
X202458026Y-193793328D02*
X202100884Y-193793328D01*
X202100884Y-193793328D02*
X201958026Y-193721900D01*
X201958026Y-193721900D02*
X201886598Y-193579042D01*
X201886598Y-193579042D02*
X201886598Y-193436185D01*
X201886598Y-193436185D02*
X201958026Y-193293328D01*
X201958026Y-193293328D02*
X202100884Y-193221900D01*
X202100884Y-193221900D02*
X202458026Y-193221900D01*
X202458026Y-193221900D02*
X202600884Y-193150471D01*
X203100884Y-192793328D02*
X203672312Y-192793328D01*
X203315169Y-192293328D02*
X203315169Y-193579042D01*
X203315169Y-193579042D02*
X203386598Y-193721900D01*
X203386598Y-193721900D02*
X203529455Y-193793328D01*
X203529455Y-193793328D02*
X203672312Y-193793328D01*
X204743741Y-193721900D02*
X204600884Y-193793328D01*
X204600884Y-193793328D02*
X204315170Y-193793328D01*
X204315170Y-193793328D02*
X204172312Y-193721900D01*
X204172312Y-193721900D02*
X204100884Y-193579042D01*
X204100884Y-193579042D02*
X204100884Y-193007614D01*
X204100884Y-193007614D02*
X204172312Y-192864757D01*
X204172312Y-192864757D02*
X204315170Y-192793328D01*
X204315170Y-192793328D02*
X204600884Y-192793328D01*
X204600884Y-192793328D02*
X204743741Y-192864757D01*
X204743741Y-192864757D02*
X204815170Y-193007614D01*
X204815170Y-193007614D02*
X204815170Y-193150471D01*
X204815170Y-193150471D02*
X204100884Y-193293328D01*
X205458026Y-193650471D02*
X205529455Y-193721900D01*
X205529455Y-193721900D02*
X205458026Y-193793328D01*
X205458026Y-193793328D02*
X205386598Y-193721900D01*
X205386598Y-193721900D02*
X205458026Y-193650471D01*
X205458026Y-193650471D02*
X205458026Y-193793328D01*
X205458026Y-192864757D02*
X205529455Y-192936185D01*
X205529455Y-192936185D02*
X205458026Y-193007614D01*
X205458026Y-193007614D02*
X205386598Y-192936185D01*
X205386598Y-192936185D02*
X205458026Y-192864757D01*
X205458026Y-192864757D02*
X205458026Y-193007614D01*
D10*
D11*
X177002200Y-194507200D02*
X285002200Y-194507200D01*
D10*
D11*
X178458026Y-196593328D02*
X178458026Y-195093328D01*
X179315169Y-196593328D02*
X178672312Y-195736185D01*
X179315169Y-195093328D02*
X178458026Y-195950471D01*
X179958026Y-196593328D02*
X179958026Y-195593328D01*
X179958026Y-195093328D02*
X179886598Y-195164757D01*
X179886598Y-195164757D02*
X179958026Y-195236185D01*
X179958026Y-195236185D02*
X180029455Y-195164757D01*
X180029455Y-195164757D02*
X179958026Y-195093328D01*
X179958026Y-195093328D02*
X179958026Y-195236185D01*
X181529455Y-196450471D02*
X181458027Y-196521900D01*
X181458027Y-196521900D02*
X181243741Y-196593328D01*
X181243741Y-196593328D02*
X181100884Y-196593328D01*
X181100884Y-196593328D02*
X180886598Y-196521900D01*
X180886598Y-196521900D02*
X180743741Y-196379042D01*
X180743741Y-196379042D02*
X180672312Y-196236185D01*
X180672312Y-196236185D02*
X180600884Y-195950471D01*
X180600884Y-195950471D02*
X180600884Y-195736185D01*
X180600884Y-195736185D02*
X180672312Y-195450471D01*
X180672312Y-195450471D02*
X180743741Y-195307614D01*
X180743741Y-195307614D02*
X180886598Y-195164757D01*
X180886598Y-195164757D02*
X181100884Y-195093328D01*
X181100884Y-195093328D02*
X181243741Y-195093328D01*
X181243741Y-195093328D02*
X181458027Y-195164757D01*
X181458027Y-195164757D02*
X181529455Y-195236185D01*
X182815170Y-196593328D02*
X182815170Y-195807614D01*
X182815170Y-195807614D02*
X182743741Y-195664757D01*
X182743741Y-195664757D02*
X182600884Y-195593328D01*
X182600884Y-195593328D02*
X182315170Y-195593328D01*
X182315170Y-195593328D02*
X182172312Y-195664757D01*
X182815170Y-196521900D02*
X182672312Y-196593328D01*
X182672312Y-196593328D02*
X182315170Y-196593328D01*
X182315170Y-196593328D02*
X182172312Y-196521900D01*
X182172312Y-196521900D02*
X182100884Y-196379042D01*
X182100884Y-196379042D02*
X182100884Y-196236185D01*
X182100884Y-196236185D02*
X182172312Y-196093328D01*
X182172312Y-196093328D02*
X182315170Y-196021900D01*
X182315170Y-196021900D02*
X182672312Y-196021900D01*
X182672312Y-196021900D02*
X182815170Y-195950471D01*
X184172313Y-196593328D02*
X184172313Y-195093328D01*
X184172313Y-196521900D02*
X184029455Y-196593328D01*
X184029455Y-196593328D02*
X183743741Y-196593328D01*
X183743741Y-196593328D02*
X183600884Y-196521900D01*
X183600884Y-196521900D02*
X183529455Y-196450471D01*
X183529455Y-196450471D02*
X183458027Y-196307614D01*
X183458027Y-196307614D02*
X183458027Y-195879042D01*
X183458027Y-195879042D02*
X183529455Y-195736185D01*
X183529455Y-195736185D02*
X183600884Y-195664757D01*
X183600884Y-195664757D02*
X183743741Y-195593328D01*
X183743741Y-195593328D02*
X184029455Y-195593328D01*
X184029455Y-195593328D02*
X184172313Y-195664757D01*
X186029455Y-195807614D02*
X186529455Y-195807614D01*
X186743741Y-196593328D02*
X186029455Y-196593328D01*
X186029455Y-196593328D02*
X186029455Y-195093328D01*
X186029455Y-195093328D02*
X186743741Y-195093328D01*
X187386598Y-196450471D02*
X187458027Y-196521900D01*
X187458027Y-196521900D02*
X187386598Y-196593328D01*
X187386598Y-196593328D02*
X187315170Y-196521900D01*
X187315170Y-196521900D02*
X187386598Y-196450471D01*
X187386598Y-196450471D02*
X187386598Y-196593328D01*
X188100884Y-196593328D02*
X188100884Y-195093328D01*
X188100884Y-195093328D02*
X188458027Y-195093328D01*
X188458027Y-195093328D02*
X188672313Y-195164757D01*
X188672313Y-195164757D02*
X188815170Y-195307614D01*
X188815170Y-195307614D02*
X188886599Y-195450471D01*
X188886599Y-195450471D02*
X188958027Y-195736185D01*
X188958027Y-195736185D02*
X188958027Y-195950471D01*
X188958027Y-195950471D02*
X188886599Y-196236185D01*
X188886599Y-196236185D02*
X188815170Y-196379042D01*
X188815170Y-196379042D02*
X188672313Y-196521900D01*
X188672313Y-196521900D02*
X188458027Y-196593328D01*
X188458027Y-196593328D02*
X188100884Y-196593328D01*
X189600884Y-196450471D02*
X189672313Y-196521900D01*
X189672313Y-196521900D02*
X189600884Y-196593328D01*
X189600884Y-196593328D02*
X189529456Y-196521900D01*
X189529456Y-196521900D02*
X189600884Y-196450471D01*
X189600884Y-196450471D02*
X189600884Y-196593328D01*
X190243742Y-196164757D02*
X190958028Y-196164757D01*
X190100885Y-196593328D02*
X190600885Y-195093328D01*
X190600885Y-195093328D02*
X191100885Y-196593328D01*
X191600884Y-196450471D02*
X191672313Y-196521900D01*
X191672313Y-196521900D02*
X191600884Y-196593328D01*
X191600884Y-196593328D02*
X191529456Y-196521900D01*
X191529456Y-196521900D02*
X191600884Y-196450471D01*
X191600884Y-196450471D02*
X191600884Y-196593328D01*
X193529456Y-196593328D02*
X193815170Y-196593328D01*
X193815170Y-196593328D02*
X193958027Y-196521900D01*
X193958027Y-196521900D02*
X194029456Y-196450471D01*
X194029456Y-196450471D02*
X194172313Y-196236185D01*
X194172313Y-196236185D02*
X194243742Y-195950471D01*
X194243742Y-195950471D02*
X194243742Y-195379042D01*
X194243742Y-195379042D02*
X194172313Y-195236185D01*
X194172313Y-195236185D02*
X194100885Y-195164757D01*
X194100885Y-195164757D02*
X193958027Y-195093328D01*
X193958027Y-195093328D02*
X193672313Y-195093328D01*
X193672313Y-195093328D02*
X193529456Y-195164757D01*
X193529456Y-195164757D02*
X193458027Y-195236185D01*
X193458027Y-195236185D02*
X193386599Y-195379042D01*
X193386599Y-195379042D02*
X193386599Y-195736185D01*
X193386599Y-195736185D02*
X193458027Y-195879042D01*
X193458027Y-195879042D02*
X193529456Y-195950471D01*
X193529456Y-195950471D02*
X193672313Y-196021900D01*
X193672313Y-196021900D02*
X193958027Y-196021900D01*
X193958027Y-196021900D02*
X194100885Y-195950471D01*
X194100885Y-195950471D02*
X194172313Y-195879042D01*
X194172313Y-195879042D02*
X194243742Y-195736185D01*
X194886598Y-196450471D02*
X194958027Y-196521900D01*
X194958027Y-196521900D02*
X194886598Y-196593328D01*
X194886598Y-196593328D02*
X194815170Y-196521900D01*
X194815170Y-196521900D02*
X194886598Y-196450471D01*
X194886598Y-196450471D02*
X194886598Y-196593328D01*
X195886599Y-195093328D02*
X196029456Y-195093328D01*
X196029456Y-195093328D02*
X196172313Y-195164757D01*
X196172313Y-195164757D02*
X196243742Y-195236185D01*
X196243742Y-195236185D02*
X196315170Y-195379042D01*
X196315170Y-195379042D02*
X196386599Y-195664757D01*
X196386599Y-195664757D02*
X196386599Y-196021900D01*
X196386599Y-196021900D02*
X196315170Y-196307614D01*
X196315170Y-196307614D02*
X196243742Y-196450471D01*
X196243742Y-196450471D02*
X196172313Y-196521900D01*
X196172313Y-196521900D02*
X196029456Y-196593328D01*
X196029456Y-196593328D02*
X195886599Y-196593328D01*
X195886599Y-196593328D02*
X195743742Y-196521900D01*
X195743742Y-196521900D02*
X195672313Y-196450471D01*
X195672313Y-196450471D02*
X195600884Y-196307614D01*
X195600884Y-196307614D02*
X195529456Y-196021900D01*
X195529456Y-196021900D02*
X195529456Y-195664757D01*
X195529456Y-195664757D02*
X195600884Y-195379042D01*
X195600884Y-195379042D02*
X195672313Y-195236185D01*
X195672313Y-195236185D02*
X195743742Y-195164757D01*
X195743742Y-195164757D02*
X195886599Y-195093328D01*
X197029455Y-196450471D02*
X197100884Y-196521900D01*
X197100884Y-196521900D02*
X197029455Y-196593328D01*
X197029455Y-196593328D02*
X196958027Y-196521900D01*
X196958027Y-196521900D02*
X197029455Y-196450471D01*
X197029455Y-196450471D02*
X197029455Y-196593328D01*
X198029456Y-195093328D02*
X198172313Y-195093328D01*
X198172313Y-195093328D02*
X198315170Y-195164757D01*
X198315170Y-195164757D02*
X198386599Y-195236185D01*
X198386599Y-195236185D02*
X198458027Y-195379042D01*
X198458027Y-195379042D02*
X198529456Y-195664757D01*
X198529456Y-195664757D02*
X198529456Y-196021900D01*
X198529456Y-196021900D02*
X198458027Y-196307614D01*
X198458027Y-196307614D02*
X198386599Y-196450471D01*
X198386599Y-196450471D02*
X198315170Y-196521900D01*
X198315170Y-196521900D02*
X198172313Y-196593328D01*
X198172313Y-196593328D02*
X198029456Y-196593328D01*
X198029456Y-196593328D02*
X197886599Y-196521900D01*
X197886599Y-196521900D02*
X197815170Y-196450471D01*
X197815170Y-196450471D02*
X197743741Y-196307614D01*
X197743741Y-196307614D02*
X197672313Y-196021900D01*
X197672313Y-196021900D02*
X197672313Y-195664757D01*
X197672313Y-195664757D02*
X197743741Y-195379042D01*
X197743741Y-195379042D02*
X197815170Y-195236185D01*
X197815170Y-195236185D02*
X197886599Y-195164757D01*
X197886599Y-195164757D02*
X198029456Y-195093328D01*
D10*
D11*
X177002200Y-191507200D02*
X285002200Y-191507200D01*
D10*
D12*
X264413853Y-193785528D02*
X263913853Y-193071242D01*
X263556710Y-193785528D02*
X263556710Y-192285528D01*
X263556710Y-192285528D02*
X264128139Y-192285528D01*
X264128139Y-192285528D02*
X264270996Y-192356957D01*
X264270996Y-192356957D02*
X264342425Y-192428385D01*
X264342425Y-192428385D02*
X264413853Y-192571242D01*
X264413853Y-192571242D02*
X264413853Y-192785528D01*
X264413853Y-192785528D02*
X264342425Y-192928385D01*
X264342425Y-192928385D02*
X264270996Y-192999814D01*
X264270996Y-192999814D02*
X264128139Y-193071242D01*
X264128139Y-193071242D02*
X263556710Y-193071242D01*
X265628139Y-193714100D02*
X265485282Y-193785528D01*
X265485282Y-193785528D02*
X265199568Y-193785528D01*
X265199568Y-193785528D02*
X265056710Y-193714100D01*
X265056710Y-193714100D02*
X264985282Y-193571242D01*
X264985282Y-193571242D02*
X264985282Y-192999814D01*
X264985282Y-192999814D02*
X265056710Y-192856957D01*
X265056710Y-192856957D02*
X265199568Y-192785528D01*
X265199568Y-192785528D02*
X265485282Y-192785528D01*
X265485282Y-192785528D02*
X265628139Y-192856957D01*
X265628139Y-192856957D02*
X265699568Y-192999814D01*
X265699568Y-192999814D02*
X265699568Y-193142671D01*
X265699568Y-193142671D02*
X264985282Y-193285528D01*
X266199567Y-192785528D02*
X266556710Y-193785528D01*
X266556710Y-193785528D02*
X266913853Y-192785528D01*
X267485281Y-193642671D02*
X267556710Y-193714100D01*
X267556710Y-193714100D02*
X267485281Y-193785528D01*
X267485281Y-193785528D02*
X267413853Y-193714100D01*
X267413853Y-193714100D02*
X267485281Y-193642671D01*
X267485281Y-193642671D02*
X267485281Y-193785528D01*
X267485281Y-192856957D02*
X267556710Y-192928385D01*
X267556710Y-192928385D02*
X267485281Y-192999814D01*
X267485281Y-192999814D02*
X267413853Y-192928385D01*
X267413853Y-192928385D02*
X267485281Y-192856957D01*
X267485281Y-192856957D02*
X267485281Y-192999814D01*
D10*
D11*
X178386598Y-193721900D02*
X178600884Y-193793328D01*
X178600884Y-193793328D02*
X178958026Y-193793328D01*
X178958026Y-193793328D02*
X179100884Y-193721900D01*
X179100884Y-193721900D02*
X179172312Y-193650471D01*
X179172312Y-193650471D02*
X179243741Y-193507614D01*
X179243741Y-193507614D02*
X179243741Y-193364757D01*
X179243741Y-193364757D02*
X179172312Y-193221900D01*
X179172312Y-193221900D02*
X179100884Y-193150471D01*
X179100884Y-193150471D02*
X178958026Y-193079042D01*
X178958026Y-193079042D02*
X178672312Y-193007614D01*
X178672312Y-193007614D02*
X178529455Y-192936185D01*
X178529455Y-192936185D02*
X178458026Y-192864757D01*
X178458026Y-192864757D02*
X178386598Y-192721900D01*
X178386598Y-192721900D02*
X178386598Y-192579042D01*
X178386598Y-192579042D02*
X178458026Y-192436185D01*
X178458026Y-192436185D02*
X178529455Y-192364757D01*
X178529455Y-192364757D02*
X178672312Y-192293328D01*
X178672312Y-192293328D02*
X179029455Y-192293328D01*
X179029455Y-192293328D02*
X179243741Y-192364757D01*
X179886597Y-193793328D02*
X179886597Y-192793328D01*
X179886597Y-192293328D02*
X179815169Y-192364757D01*
X179815169Y-192364757D02*
X179886597Y-192436185D01*
X179886597Y-192436185D02*
X179958026Y-192364757D01*
X179958026Y-192364757D02*
X179886597Y-192293328D01*
X179886597Y-192293328D02*
X179886597Y-192436185D01*
X180458026Y-192793328D02*
X181243741Y-192793328D01*
X181243741Y-192793328D02*
X180458026Y-193793328D01*
X180458026Y-193793328D02*
X181243741Y-193793328D01*
X182386598Y-193721900D02*
X182243741Y-193793328D01*
X182243741Y-193793328D02*
X181958027Y-193793328D01*
X181958027Y-193793328D02*
X181815169Y-193721900D01*
X181815169Y-193721900D02*
X181743741Y-193579042D01*
X181743741Y-193579042D02*
X181743741Y-193007614D01*
X181743741Y-193007614D02*
X181815169Y-192864757D01*
X181815169Y-192864757D02*
X181958027Y-192793328D01*
X181958027Y-192793328D02*
X182243741Y-192793328D01*
X182243741Y-192793328D02*
X182386598Y-192864757D01*
X182386598Y-192864757D02*
X182458027Y-193007614D01*
X182458027Y-193007614D02*
X182458027Y-193150471D01*
X182458027Y-193150471D02*
X181743741Y-193293328D01*
X183100883Y-193650471D02*
X183172312Y-193721900D01*
X183172312Y-193721900D02*
X183100883Y-193793328D01*
X183100883Y-193793328D02*
X183029455Y-193721900D01*
X183029455Y-193721900D02*
X183100883Y-193650471D01*
X183100883Y-193650471D02*
X183100883Y-193793328D01*
X183100883Y-192864757D02*
X183172312Y-192936185D01*
X183172312Y-192936185D02*
X183100883Y-193007614D01*
X183100883Y-193007614D02*
X183029455Y-192936185D01*
X183029455Y-192936185D02*
X183100883Y-192864757D01*
X183100883Y-192864757D02*
X183100883Y-193007614D01*
X184886598Y-193364757D02*
X185600884Y-193364757D01*
X184743741Y-193793328D02*
X185243741Y-192293328D01*
X185243741Y-192293328D02*
X185743741Y-193793328D01*
X186886598Y-192793328D02*
X186886598Y-193793328D01*
X186529455Y-192221900D02*
X186172312Y-193293328D01*
X186172312Y-193293328D02*
X187100883Y-193293328D01*
D10*
D11*
X263458026Y-196593328D02*
X263458026Y-195093328D01*
X264815170Y-196593328D02*
X264815170Y-195093328D01*
X264815170Y-196521900D02*
X264672312Y-196593328D01*
X264672312Y-196593328D02*
X264386598Y-196593328D01*
X264386598Y-196593328D02*
X264243741Y-196521900D01*
X264243741Y-196521900D02*
X264172312Y-196450471D01*
X264172312Y-196450471D02*
X264100884Y-196307614D01*
X264100884Y-196307614D02*
X264100884Y-195879042D01*
X264100884Y-195879042D02*
X264172312Y-195736185D01*
X264172312Y-195736185D02*
X264243741Y-195664757D01*
X264243741Y-195664757D02*
X264386598Y-195593328D01*
X264386598Y-195593328D02*
X264672312Y-195593328D01*
X264672312Y-195593328D02*
X264815170Y-195664757D01*
X265529455Y-196450471D02*
X265600884Y-196521900D01*
X265600884Y-196521900D02*
X265529455Y-196593328D01*
X265529455Y-196593328D02*
X265458027Y-196521900D01*
X265458027Y-196521900D02*
X265529455Y-196450471D01*
X265529455Y-196450471D02*
X265529455Y-196593328D01*
X265529455Y-195664757D02*
X265600884Y-195736185D01*
X265600884Y-195736185D02*
X265529455Y-195807614D01*
X265529455Y-195807614D02*
X265458027Y-195736185D01*
X265458027Y-195736185D02*
X265529455Y-195664757D01*
X265529455Y-195664757D02*
X265529455Y-195807614D01*
X268172313Y-196593328D02*
X267315170Y-196593328D01*
X267743741Y-196593328D02*
X267743741Y-195093328D01*
X267743741Y-195093328D02*
X267600884Y-195307614D01*
X267600884Y-195307614D02*
X267458027Y-195450471D01*
X267458027Y-195450471D02*
X267315170Y-195521900D01*
X269886598Y-195021900D02*
X268600884Y-196950471D01*
X270458027Y-196593328D02*
X270743741Y-196593328D01*
X270743741Y-196593328D02*
X270886598Y-196521900D01*
X270886598Y-196521900D02*
X270958027Y-196450471D01*
X270958027Y-196450471D02*
X271100884Y-196236185D01*
X271100884Y-196236185D02*
X271172313Y-195950471D01*
X271172313Y-195950471D02*
X271172313Y-195379042D01*
X271172313Y-195379042D02*
X271100884Y-195236185D01*
X271100884Y-195236185D02*
X271029456Y-195164757D01*
X271029456Y-195164757D02*
X270886598Y-195093328D01*
X270886598Y-195093328D02*
X270600884Y-195093328D01*
X270600884Y-195093328D02*
X270458027Y-195164757D01*
X270458027Y-195164757D02*
X270386598Y-195236185D01*
X270386598Y-195236185D02*
X270315170Y-195379042D01*
X270315170Y-195379042D02*
X270315170Y-195736185D01*
X270315170Y-195736185D02*
X270386598Y-195879042D01*
X270386598Y-195879042D02*
X270458027Y-195950471D01*
X270458027Y-195950471D02*
X270600884Y-196021900D01*
X270600884Y-196021900D02*
X270886598Y-196021900D01*
X270886598Y-196021900D02*
X271029456Y-195950471D01*
X271029456Y-195950471D02*
X271100884Y-195879042D01*
X271100884Y-195879042D02*
X271172313Y-195736185D01*
D10*
D11*
X177002200Y-187507200D02*
X285002200Y-187507200D01*
D10*
D13*
X178693928Y-188211638D02*
X179836785Y-188211638D01*
X179015357Y-190211638D02*
X179265357Y-188211638D01*
X180253452Y-190211638D02*
X180420119Y-188878304D01*
X180503452Y-188211638D02*
X180396309Y-188306876D01*
X180396309Y-188306876D02*
X180479643Y-188402114D01*
X180479643Y-188402114D02*
X180586786Y-188306876D01*
X180586786Y-188306876D02*
X180503452Y-188211638D01*
X180503452Y-188211638D02*
X180479643Y-188402114D01*
X181086786Y-188878304D02*
X181848690Y-188878304D01*
X181455833Y-188211638D02*
X181241548Y-189925923D01*
X181241548Y-189925923D02*
X181312976Y-190116400D01*
X181312976Y-190116400D02*
X181491548Y-190211638D01*
X181491548Y-190211638D02*
X181682024Y-190211638D01*
X182634405Y-190211638D02*
X182455833Y-190116400D01*
X182455833Y-190116400D02*
X182384405Y-189925923D01*
X182384405Y-189925923D02*
X182598690Y-188211638D01*
X184170119Y-190116400D02*
X183967738Y-190211638D01*
X183967738Y-190211638D02*
X183586785Y-190211638D01*
X183586785Y-190211638D02*
X183408214Y-190116400D01*
X183408214Y-190116400D02*
X183336785Y-189925923D01*
X183336785Y-189925923D02*
X183432024Y-189164019D01*
X183432024Y-189164019D02*
X183551071Y-188973542D01*
X183551071Y-188973542D02*
X183753452Y-188878304D01*
X183753452Y-188878304D02*
X184134404Y-188878304D01*
X184134404Y-188878304D02*
X184312976Y-188973542D01*
X184312976Y-188973542D02*
X184384404Y-189164019D01*
X184384404Y-189164019D02*
X184360595Y-189354495D01*
X184360595Y-189354495D02*
X183384404Y-189544971D01*
X185134405Y-190021161D02*
X185217738Y-190116400D01*
X185217738Y-190116400D02*
X185110595Y-190211638D01*
X185110595Y-190211638D02*
X185027262Y-190116400D01*
X185027262Y-190116400D02*
X185134405Y-190021161D01*
X185134405Y-190021161D02*
X185110595Y-190211638D01*
X185265357Y-188973542D02*
X185348690Y-189068780D01*
X185348690Y-189068780D02*
X185241548Y-189164019D01*
X185241548Y-189164019D02*
X185158214Y-189068780D01*
X185158214Y-189068780D02*
X185265357Y-188973542D01*
X185265357Y-188973542D02*
X185241548Y-189164019D01*
D10*
D11*
X178958026Y-185607614D02*
X178458026Y-185607614D01*
X178458026Y-186393328D02*
X178458026Y-184893328D01*
X178458026Y-184893328D02*
X179172312Y-184893328D01*
X179743740Y-186393328D02*
X179743740Y-185393328D01*
X179743740Y-184893328D02*
X179672312Y-184964757D01*
X179672312Y-184964757D02*
X179743740Y-185036185D01*
X179743740Y-185036185D02*
X179815169Y-184964757D01*
X179815169Y-184964757D02*
X179743740Y-184893328D01*
X179743740Y-184893328D02*
X179743740Y-185036185D01*
X180672312Y-186393328D02*
X180529455Y-186321900D01*
X180529455Y-186321900D02*
X180458026Y-186179042D01*
X180458026Y-186179042D02*
X180458026Y-184893328D01*
X181815169Y-186321900D02*
X181672312Y-186393328D01*
X181672312Y-186393328D02*
X181386598Y-186393328D01*
X181386598Y-186393328D02*
X181243740Y-186321900D01*
X181243740Y-186321900D02*
X181172312Y-186179042D01*
X181172312Y-186179042D02*
X181172312Y-185607614D01*
X181172312Y-185607614D02*
X181243740Y-185464757D01*
X181243740Y-185464757D02*
X181386598Y-185393328D01*
X181386598Y-185393328D02*
X181672312Y-185393328D01*
X181672312Y-185393328D02*
X181815169Y-185464757D01*
X181815169Y-185464757D02*
X181886598Y-185607614D01*
X181886598Y-185607614D02*
X181886598Y-185750471D01*
X181886598Y-185750471D02*
X181172312Y-185893328D01*
X182529454Y-186250471D02*
X182600883Y-186321900D01*
X182600883Y-186321900D02*
X182529454Y-186393328D01*
X182529454Y-186393328D02*
X182458026Y-186321900D01*
X182458026Y-186321900D02*
X182529454Y-186250471D01*
X182529454Y-186250471D02*
X182529454Y-186393328D01*
X182529454Y-185464757D02*
X182600883Y-185536185D01*
X182600883Y-185536185D02*
X182529454Y-185607614D01*
X182529454Y-185607614D02*
X182458026Y-185536185D01*
X182458026Y-185536185D02*
X182529454Y-185464757D01*
X182529454Y-185464757D02*
X182529454Y-185607614D01*
X184386597Y-186393328D02*
X184386597Y-184893328D01*
X184529455Y-185821900D02*
X184958026Y-186393328D01*
X184958026Y-185393328D02*
X184386597Y-185964757D01*
X186172312Y-186321900D02*
X186029455Y-186393328D01*
X186029455Y-186393328D02*
X185743741Y-186393328D01*
X185743741Y-186393328D02*
X185600883Y-186321900D01*
X185600883Y-186321900D02*
X185529455Y-186179042D01*
X185529455Y-186179042D02*
X185529455Y-185607614D01*
X185529455Y-185607614D02*
X185600883Y-185464757D01*
X185600883Y-185464757D02*
X185743741Y-185393328D01*
X185743741Y-185393328D02*
X186029455Y-185393328D01*
X186029455Y-185393328D02*
X186172312Y-185464757D01*
X186172312Y-185464757D02*
X186243741Y-185607614D01*
X186243741Y-185607614D02*
X186243741Y-185750471D01*
X186243741Y-185750471D02*
X185529455Y-185893328D01*
X186743740Y-185393328D02*
X187100883Y-186393328D01*
X187458026Y-185393328D02*
X187100883Y-186393328D01*
X187100883Y-186393328D02*
X186958026Y-186750471D01*
X186958026Y-186750471D02*
X186886597Y-186821900D01*
X186886597Y-186821900D02*
X186743740Y-186893328D01*
X188029454Y-185393328D02*
X188029454Y-186393328D01*
X188029454Y-185536185D02*
X188100883Y-185464757D01*
X188100883Y-185464757D02*
X188243740Y-185393328D01*
X188243740Y-185393328D02*
X188458026Y-185393328D01*
X188458026Y-185393328D02*
X188600883Y-185464757D01*
X188600883Y-185464757D02*
X188672312Y-185607614D01*
X188672312Y-185607614D02*
X188672312Y-186393328D01*
X189958026Y-186321900D02*
X189815169Y-186393328D01*
X189815169Y-186393328D02*
X189529455Y-186393328D01*
X189529455Y-186393328D02*
X189386597Y-186321900D01*
X189386597Y-186321900D02*
X189315169Y-186179042D01*
X189315169Y-186179042D02*
X189315169Y-185607614D01*
X189315169Y-185607614D02*
X189386597Y-185464757D01*
X189386597Y-185464757D02*
X189529455Y-185393328D01*
X189529455Y-185393328D02*
X189815169Y-185393328D01*
X189815169Y-185393328D02*
X189958026Y-185464757D01*
X189958026Y-185464757D02*
X190029455Y-185607614D01*
X190029455Y-185607614D02*
X190029455Y-185750471D01*
X190029455Y-185750471D02*
X189315169Y-185893328D01*
X190672311Y-186393328D02*
X190672311Y-185393328D01*
X190672311Y-185679042D02*
X190743740Y-185536185D01*
X190743740Y-185536185D02*
X190815169Y-185464757D01*
X190815169Y-185464757D02*
X190958026Y-185393328D01*
X190958026Y-185393328D02*
X191100883Y-185393328D01*
X192243740Y-185393328D02*
X192243740Y-186607614D01*
X192243740Y-186607614D02*
X192172311Y-186750471D01*
X192172311Y-186750471D02*
X192100882Y-186821900D01*
X192100882Y-186821900D02*
X191958025Y-186893328D01*
X191958025Y-186893328D02*
X191743740Y-186893328D01*
X191743740Y-186893328D02*
X191600882Y-186821900D01*
X192243740Y-186321900D02*
X192100882Y-186393328D01*
X192100882Y-186393328D02*
X191815168Y-186393328D01*
X191815168Y-186393328D02*
X191672311Y-186321900D01*
X191672311Y-186321900D02*
X191600882Y-186250471D01*
X191600882Y-186250471D02*
X191529454Y-186107614D01*
X191529454Y-186107614D02*
X191529454Y-185679042D01*
X191529454Y-185679042D02*
X191600882Y-185536185D01*
X191600882Y-185536185D02*
X191672311Y-185464757D01*
X191672311Y-185464757D02*
X191815168Y-185393328D01*
X191815168Y-185393328D02*
X192100882Y-185393328D01*
X192100882Y-185393328D02*
X192243740Y-185464757D01*
X192815168Y-185393328D02*
X193172311Y-186393328D01*
X193529454Y-185393328D02*
X193172311Y-186393328D01*
X193172311Y-186393328D02*
X193029454Y-186750471D01*
X193029454Y-186750471D02*
X192958025Y-186821900D01*
X192958025Y-186821900D02*
X192815168Y-186893328D01*
X193743740Y-186536185D02*
X194886597Y-186536185D01*
X195172311Y-186321900D02*
X195315168Y-186393328D01*
X195315168Y-186393328D02*
X195600882Y-186393328D01*
X195600882Y-186393328D02*
X195743739Y-186321900D01*
X195743739Y-186321900D02*
X195815168Y-186179042D01*
X195815168Y-186179042D02*
X195815168Y-186107614D01*
X195815168Y-186107614D02*
X195743739Y-185964757D01*
X195743739Y-185964757D02*
X195600882Y-185893328D01*
X195600882Y-185893328D02*
X195386597Y-185893328D01*
X195386597Y-185893328D02*
X195243739Y-185821900D01*
X195243739Y-185821900D02*
X195172311Y-185679042D01*
X195172311Y-185679042D02*
X195172311Y-185607614D01*
X195172311Y-185607614D02*
X195243739Y-185464757D01*
X195243739Y-185464757D02*
X195386597Y-185393328D01*
X195386597Y-185393328D02*
X195600882Y-185393328D01*
X195600882Y-185393328D02*
X195743739Y-185464757D01*
X197100883Y-186321900D02*
X196958025Y-186393328D01*
X196958025Y-186393328D02*
X196672311Y-186393328D01*
X196672311Y-186393328D02*
X196529454Y-186321900D01*
X196529454Y-186321900D02*
X196458025Y-186250471D01*
X196458025Y-186250471D02*
X196386597Y-186107614D01*
X196386597Y-186107614D02*
X196386597Y-185679042D01*
X196386597Y-185679042D02*
X196458025Y-185536185D01*
X196458025Y-185536185D02*
X196529454Y-185464757D01*
X196529454Y-185464757D02*
X196672311Y-185393328D01*
X196672311Y-185393328D02*
X196958025Y-185393328D01*
X196958025Y-185393328D02*
X197100883Y-185464757D01*
X197743739Y-186393328D02*
X197743739Y-184893328D01*
X198386597Y-186393328D02*
X198386597Y-185607614D01*
X198386597Y-185607614D02*
X198315168Y-185464757D01*
X198315168Y-185464757D02*
X198172311Y-185393328D01*
X198172311Y-185393328D02*
X197958025Y-185393328D01*
X197958025Y-185393328D02*
X197815168Y-185464757D01*
X197815168Y-185464757D02*
X197743739Y-185536185D01*
X199672311Y-186321900D02*
X199529454Y-186393328D01*
X199529454Y-186393328D02*
X199243740Y-186393328D01*
X199243740Y-186393328D02*
X199100882Y-186321900D01*
X199100882Y-186321900D02*
X199029454Y-186179042D01*
X199029454Y-186179042D02*
X199029454Y-185607614D01*
X199029454Y-185607614D02*
X199100882Y-185464757D01*
X199100882Y-185464757D02*
X199243740Y-185393328D01*
X199243740Y-185393328D02*
X199529454Y-185393328D01*
X199529454Y-185393328D02*
X199672311Y-185464757D01*
X199672311Y-185464757D02*
X199743740Y-185607614D01*
X199743740Y-185607614D02*
X199743740Y-185750471D01*
X199743740Y-185750471D02*
X199029454Y-185893328D01*
X200386596Y-186393328D02*
X200386596Y-185393328D01*
X200386596Y-185536185D02*
X200458025Y-185464757D01*
X200458025Y-185464757D02*
X200600882Y-185393328D01*
X200600882Y-185393328D02*
X200815168Y-185393328D01*
X200815168Y-185393328D02*
X200958025Y-185464757D01*
X200958025Y-185464757D02*
X201029454Y-185607614D01*
X201029454Y-185607614D02*
X201029454Y-186393328D01*
X201029454Y-185607614D02*
X201100882Y-185464757D01*
X201100882Y-185464757D02*
X201243739Y-185393328D01*
X201243739Y-185393328D02*
X201458025Y-185393328D01*
X201458025Y-185393328D02*
X201600882Y-185464757D01*
X201600882Y-185464757D02*
X201672311Y-185607614D01*
X201672311Y-185607614D02*
X201672311Y-186393328D01*
X202386596Y-186250471D02*
X202458025Y-186321900D01*
X202458025Y-186321900D02*
X202386596Y-186393328D01*
X202386596Y-186393328D02*
X202315168Y-186321900D01*
X202315168Y-186321900D02*
X202386596Y-186250471D01*
X202386596Y-186250471D02*
X202386596Y-186393328D01*
X203100882Y-186393328D02*
X203100882Y-184893328D01*
X203243740Y-185821900D02*
X203672311Y-186393328D01*
X203672311Y-185393328D02*
X203100882Y-185964757D01*
X204315168Y-186393328D02*
X204315168Y-185393328D01*
X204315168Y-184893328D02*
X204243740Y-184964757D01*
X204243740Y-184964757D02*
X204315168Y-185036185D01*
X204315168Y-185036185D02*
X204386597Y-184964757D01*
X204386597Y-184964757D02*
X204315168Y-184893328D01*
X204315168Y-184893328D02*
X204315168Y-185036185D01*
X205672312Y-186321900D02*
X205529454Y-186393328D01*
X205529454Y-186393328D02*
X205243740Y-186393328D01*
X205243740Y-186393328D02*
X205100883Y-186321900D01*
X205100883Y-186321900D02*
X205029454Y-186250471D01*
X205029454Y-186250471D02*
X204958026Y-186107614D01*
X204958026Y-186107614D02*
X204958026Y-185679042D01*
X204958026Y-185679042D02*
X205029454Y-185536185D01*
X205029454Y-185536185D02*
X205100883Y-185464757D01*
X205100883Y-185464757D02*
X205243740Y-185393328D01*
X205243740Y-185393328D02*
X205529454Y-185393328D01*
X205529454Y-185393328D02*
X205672312Y-185464757D01*
X206958026Y-186393328D02*
X206958026Y-185607614D01*
X206958026Y-185607614D02*
X206886597Y-185464757D01*
X206886597Y-185464757D02*
X206743740Y-185393328D01*
X206743740Y-185393328D02*
X206458026Y-185393328D01*
X206458026Y-185393328D02*
X206315168Y-185464757D01*
X206958026Y-186321900D02*
X206815168Y-186393328D01*
X206815168Y-186393328D02*
X206458026Y-186393328D01*
X206458026Y-186393328D02*
X206315168Y-186321900D01*
X206315168Y-186321900D02*
X206243740Y-186179042D01*
X206243740Y-186179042D02*
X206243740Y-186036185D01*
X206243740Y-186036185D02*
X206315168Y-185893328D01*
X206315168Y-185893328D02*
X206458026Y-185821900D01*
X206458026Y-185821900D02*
X206815168Y-185821900D01*
X206815168Y-185821900D02*
X206958026Y-185750471D01*
X208315169Y-186393328D02*
X208315169Y-184893328D01*
X208315169Y-186321900D02*
X208172311Y-186393328D01*
X208172311Y-186393328D02*
X207886597Y-186393328D01*
X207886597Y-186393328D02*
X207743740Y-186321900D01*
X207743740Y-186321900D02*
X207672311Y-186250471D01*
X207672311Y-186250471D02*
X207600883Y-186107614D01*
X207600883Y-186107614D02*
X207600883Y-185679042D01*
X207600883Y-185679042D02*
X207672311Y-185536185D01*
X207672311Y-185536185D02*
X207743740Y-185464757D01*
X207743740Y-185464757D02*
X207886597Y-185393328D01*
X207886597Y-185393328D02*
X208172311Y-185393328D01*
X208172311Y-185393328D02*
X208315169Y-185464757D01*
X208672312Y-186536185D02*
X209815169Y-186536185D01*
X210172311Y-185393328D02*
X210172311Y-186893328D01*
X210172311Y-185464757D02*
X210315169Y-185393328D01*
X210315169Y-185393328D02*
X210600883Y-185393328D01*
X210600883Y-185393328D02*
X210743740Y-185464757D01*
X210743740Y-185464757D02*
X210815169Y-185536185D01*
X210815169Y-185536185D02*
X210886597Y-185679042D01*
X210886597Y-185679042D02*
X210886597Y-186107614D01*
X210886597Y-186107614D02*
X210815169Y-186250471D01*
X210815169Y-186250471D02*
X210743740Y-186321900D01*
X210743740Y-186321900D02*
X210600883Y-186393328D01*
X210600883Y-186393328D02*
X210315169Y-186393328D01*
X210315169Y-186393328D02*
X210172311Y-186321900D01*
X212172312Y-186321900D02*
X212029454Y-186393328D01*
X212029454Y-186393328D02*
X211743740Y-186393328D01*
X211743740Y-186393328D02*
X211600883Y-186321900D01*
X211600883Y-186321900D02*
X211529454Y-186250471D01*
X211529454Y-186250471D02*
X211458026Y-186107614D01*
X211458026Y-186107614D02*
X211458026Y-185679042D01*
X211458026Y-185679042D02*
X211529454Y-185536185D01*
X211529454Y-185536185D02*
X211600883Y-185464757D01*
X211600883Y-185464757D02*
X211743740Y-185393328D01*
X211743740Y-185393328D02*
X212029454Y-185393328D01*
X212029454Y-185393328D02*
X212172312Y-185464757D01*
X212815168Y-186393328D02*
X212815168Y-184893328D01*
X212815168Y-185464757D02*
X212958026Y-185393328D01*
X212958026Y-185393328D02*
X213243740Y-185393328D01*
X213243740Y-185393328D02*
X213386597Y-185464757D01*
X213386597Y-185464757D02*
X213458026Y-185536185D01*
X213458026Y-185536185D02*
X213529454Y-185679042D01*
X213529454Y-185679042D02*
X213529454Y-186107614D01*
X213529454Y-186107614D02*
X213458026Y-186250471D01*
X213458026Y-186250471D02*
X213386597Y-186321900D01*
X213386597Y-186321900D02*
X213243740Y-186393328D01*
X213243740Y-186393328D02*
X212958026Y-186393328D01*
X212958026Y-186393328D02*
X212815168Y-186321900D01*
D10*
D11*
X177002200Y-181507200D02*
X285002200Y-181507200D01*
D10*
D11*
X178386598Y-183621900D02*
X178600884Y-183693328D01*
X178600884Y-183693328D02*
X178958026Y-183693328D01*
X178958026Y-183693328D02*
X179100884Y-183621900D01*
X179100884Y-183621900D02*
X179172312Y-183550471D01*
X179172312Y-183550471D02*
X179243741Y-183407614D01*
X179243741Y-183407614D02*
X179243741Y-183264757D01*
X179243741Y-183264757D02*
X179172312Y-183121900D01*
X179172312Y-183121900D02*
X179100884Y-183050471D01*
X179100884Y-183050471D02*
X178958026Y-182979042D01*
X178958026Y-182979042D02*
X178672312Y-182907614D01*
X178672312Y-182907614D02*
X178529455Y-182836185D01*
X178529455Y-182836185D02*
X178458026Y-182764757D01*
X178458026Y-182764757D02*
X178386598Y-182621900D01*
X178386598Y-182621900D02*
X178386598Y-182479042D01*
X178386598Y-182479042D02*
X178458026Y-182336185D01*
X178458026Y-182336185D02*
X178529455Y-182264757D01*
X178529455Y-182264757D02*
X178672312Y-182193328D01*
X178672312Y-182193328D02*
X179029455Y-182193328D01*
X179029455Y-182193328D02*
X179243741Y-182264757D01*
X179886597Y-183693328D02*
X179886597Y-182193328D01*
X180529455Y-183693328D02*
X180529455Y-182907614D01*
X180529455Y-182907614D02*
X180458026Y-182764757D01*
X180458026Y-182764757D02*
X180315169Y-182693328D01*
X180315169Y-182693328D02*
X180100883Y-182693328D01*
X180100883Y-182693328D02*
X179958026Y-182764757D01*
X179958026Y-182764757D02*
X179886597Y-182836185D01*
X181815169Y-183621900D02*
X181672312Y-183693328D01*
X181672312Y-183693328D02*
X181386598Y-183693328D01*
X181386598Y-183693328D02*
X181243740Y-183621900D01*
X181243740Y-183621900D02*
X181172312Y-183479042D01*
X181172312Y-183479042D02*
X181172312Y-182907614D01*
X181172312Y-182907614D02*
X181243740Y-182764757D01*
X181243740Y-182764757D02*
X181386598Y-182693328D01*
X181386598Y-182693328D02*
X181672312Y-182693328D01*
X181672312Y-182693328D02*
X181815169Y-182764757D01*
X181815169Y-182764757D02*
X181886598Y-182907614D01*
X181886598Y-182907614D02*
X181886598Y-183050471D01*
X181886598Y-183050471D02*
X181172312Y-183193328D01*
X183100883Y-183621900D02*
X182958026Y-183693328D01*
X182958026Y-183693328D02*
X182672312Y-183693328D01*
X182672312Y-183693328D02*
X182529454Y-183621900D01*
X182529454Y-183621900D02*
X182458026Y-183479042D01*
X182458026Y-183479042D02*
X182458026Y-182907614D01*
X182458026Y-182907614D02*
X182529454Y-182764757D01*
X182529454Y-182764757D02*
X182672312Y-182693328D01*
X182672312Y-182693328D02*
X182958026Y-182693328D01*
X182958026Y-182693328D02*
X183100883Y-182764757D01*
X183100883Y-182764757D02*
X183172312Y-182907614D01*
X183172312Y-182907614D02*
X183172312Y-183050471D01*
X183172312Y-183050471D02*
X182458026Y-183193328D01*
X183600883Y-182693328D02*
X184172311Y-182693328D01*
X183815168Y-182193328D02*
X183815168Y-183479042D01*
X183815168Y-183479042D02*
X183886597Y-183621900D01*
X183886597Y-183621900D02*
X184029454Y-183693328D01*
X184029454Y-183693328D02*
X184172311Y-183693328D01*
X184672311Y-183550471D02*
X184743740Y-183621900D01*
X184743740Y-183621900D02*
X184672311Y-183693328D01*
X184672311Y-183693328D02*
X184600883Y-183621900D01*
X184600883Y-183621900D02*
X184672311Y-183550471D01*
X184672311Y-183550471D02*
X184672311Y-183693328D01*
X184672311Y-182764757D02*
X184743740Y-182836185D01*
X184743740Y-182836185D02*
X184672311Y-182907614D01*
X184672311Y-182907614D02*
X184600883Y-182836185D01*
X184600883Y-182836185D02*
X184672311Y-182764757D01*
X184672311Y-182764757D02*
X184672311Y-182907614D01*
D10*
D11*
X197002200Y-191507200D02*
X197002200Y-194507200D01*
D10*
D11*
X261002200Y-191507200D02*
X261002200Y-198007200D01*
D14*
X321500000Y29000000D02*
X575500000Y29000000D01*
X575500000Y-47200000D01*
X321500000Y-47200000D01*
X321500000Y29000000D01*
X43000000Y-54044000D02*
X228500000Y-54044000D01*
X228500000Y-130244000D01*
X43000000Y-130244000D01*
X43000000Y-54044000D01*
X327853000Y-67400000D02*
X378653000Y-67400000D01*
X378653000Y-219800000D01*
X327853000Y-219800000D01*
X327853000Y-67400000D01*
X211000000Y-229088000D02*
X396500000Y-229088000D01*
X396500000Y-305288000D01*
X211000000Y-305288000D01*
X211000000Y-229088000D01*
D12*
D15*
X331374060Y-161015114D02*
X331874060Y-161015114D01*
X332088346Y-161800828D02*
X331374060Y-161800828D01*
X331374060Y-161800828D02*
X331374060Y-160300828D01*
X331374060Y-160300828D02*
X332088346Y-160300828D01*
X332731203Y-160800828D02*
X332731203Y-161800828D01*
X332731203Y-160943685D02*
X332802632Y-160872257D01*
X332802632Y-160872257D02*
X332945489Y-160800828D01*
X332945489Y-160800828D02*
X333159775Y-160800828D01*
X333159775Y-160800828D02*
X333302632Y-160872257D01*
X333302632Y-160872257D02*
X333374061Y-161015114D01*
X333374061Y-161015114D02*
X333374061Y-161800828D01*
X333874061Y-160800828D02*
X334445489Y-160800828D01*
X334088346Y-160300828D02*
X334088346Y-161586542D01*
X334088346Y-161586542D02*
X334159775Y-161729400D01*
X334159775Y-161729400D02*
X334302632Y-161800828D01*
X334302632Y-161800828D02*
X334445489Y-161800828D01*
X335516918Y-161729400D02*
X335374061Y-161800828D01*
X335374061Y-161800828D02*
X335088347Y-161800828D01*
X335088347Y-161800828D02*
X334945489Y-161729400D01*
X334945489Y-161729400D02*
X334874061Y-161586542D01*
X334874061Y-161586542D02*
X334874061Y-161015114D01*
X334874061Y-161015114D02*
X334945489Y-160872257D01*
X334945489Y-160872257D02*
X335088347Y-160800828D01*
X335088347Y-160800828D02*
X335374061Y-160800828D01*
X335374061Y-160800828D02*
X335516918Y-160872257D01*
X335516918Y-160872257D02*
X335588347Y-161015114D01*
X335588347Y-161015114D02*
X335588347Y-161157971D01*
X335588347Y-161157971D02*
X334874061Y-161300828D01*
X336231203Y-161800828D02*
X336231203Y-160800828D01*
X336231203Y-161086542D02*
X336302632Y-160943685D01*
X336302632Y-160943685D02*
X336374061Y-160872257D01*
X336374061Y-160872257D02*
X336516918Y-160800828D01*
X336516918Y-160800828D02*
X336659775Y-160800828D01*
D12*
D15*
X535483082Y16770600D02*
X535697368Y16699171D01*
X535697368Y16699171D02*
X536054510Y16699171D01*
X536054510Y16699171D02*
X536197368Y16770600D01*
X536197368Y16770600D02*
X536268796Y16842028D01*
X536268796Y16842028D02*
X536340225Y16984885D01*
X536340225Y16984885D02*
X536340225Y17127742D01*
X536340225Y17127742D02*
X536268796Y17270600D01*
X536268796Y17270600D02*
X536197368Y17342028D01*
X536197368Y17342028D02*
X536054510Y17413457D01*
X536054510Y17413457D02*
X535768796Y17484885D01*
X535768796Y17484885D02*
X535625939Y17556314D01*
X535625939Y17556314D02*
X535554510Y17627742D01*
X535554510Y17627742D02*
X535483082Y17770600D01*
X535483082Y17770600D02*
X535483082Y17913457D01*
X535483082Y17913457D02*
X535554510Y18056314D01*
X535554510Y18056314D02*
X535625939Y18127742D01*
X535625939Y18127742D02*
X535768796Y18199171D01*
X535768796Y18199171D02*
X536125939Y18199171D01*
X536125939Y18199171D02*
X536340225Y18127742D01*
X537625939Y17699171D02*
X537625939Y16699171D01*
X536983081Y17699171D02*
X536983081Y16913457D01*
X536983081Y16913457D02*
X537054510Y16770600D01*
X537054510Y16770600D02*
X537197367Y16699171D01*
X537197367Y16699171D02*
X537411653Y16699171D01*
X537411653Y16699171D02*
X537554510Y16770600D01*
X537554510Y16770600D02*
X537625939Y16842028D01*
X538340224Y16699171D02*
X538340224Y18199171D01*
X538340224Y17627742D02*
X538483082Y17699171D01*
X538483082Y17699171D02*
X538768796Y17699171D01*
X538768796Y17699171D02*
X538911653Y17627742D01*
X538911653Y17627742D02*
X538983082Y17556314D01*
X538983082Y17556314D02*
X539054510Y17413457D01*
X539054510Y17413457D02*
X539054510Y16984885D01*
X539054510Y16984885D02*
X538983082Y16842028D01*
X538983082Y16842028D02*
X538911653Y16770600D01*
X538911653Y16770600D02*
X538768796Y16699171D01*
X538768796Y16699171D02*
X538483082Y16699171D01*
X538483082Y16699171D02*
X538340224Y16770600D01*
X539483082Y17699171D02*
X540054510Y17699171D01*
X539697367Y18199171D02*
X539697367Y16913457D01*
X539697367Y16913457D02*
X539768796Y16770600D01*
X539768796Y16770600D02*
X539911653Y16699171D01*
X539911653Y16699171D02*
X540054510Y16699171D01*
X540554510Y16699171D02*
X540554510Y17699171D01*
X540554510Y17413457D02*
X540625939Y17556314D01*
X540625939Y17556314D02*
X540697368Y17627742D01*
X540697368Y17627742D02*
X540840225Y17699171D01*
X540840225Y17699171D02*
X540983082Y17699171D01*
X542125939Y16699171D02*
X542125939Y17484885D01*
X542125939Y17484885D02*
X542054510Y17627742D01*
X542054510Y17627742D02*
X541911653Y17699171D01*
X541911653Y17699171D02*
X541625939Y17699171D01*
X541625939Y17699171D02*
X541483081Y17627742D01*
X542125939Y16770600D02*
X541983081Y16699171D01*
X541983081Y16699171D02*
X541625939Y16699171D01*
X541625939Y16699171D02*
X541483081Y16770600D01*
X541483081Y16770600D02*
X541411653Y16913457D01*
X541411653Y16913457D02*
X541411653Y17056314D01*
X541411653Y17056314D02*
X541483081Y17199171D01*
X541483081Y17199171D02*
X541625939Y17270600D01*
X541625939Y17270600D02*
X541983081Y17270600D01*
X541983081Y17270600D02*
X542125939Y17342028D01*
X543483082Y16770600D02*
X543340224Y16699171D01*
X543340224Y16699171D02*
X543054510Y16699171D01*
X543054510Y16699171D02*
X542911653Y16770600D01*
X542911653Y16770600D02*
X542840224Y16842028D01*
X542840224Y16842028D02*
X542768796Y16984885D01*
X542768796Y16984885D02*
X542768796Y17413457D01*
X542768796Y17413457D02*
X542840224Y17556314D01*
X542840224Y17556314D02*
X542911653Y17627742D01*
X542911653Y17627742D02*
X543054510Y17699171D01*
X543054510Y17699171D02*
X543340224Y17699171D01*
X543340224Y17699171D02*
X543483082Y17627742D01*
X543911653Y17699171D02*
X544483081Y17699171D01*
X544125938Y18199171D02*
X544125938Y16913457D01*
X544125938Y16913457D02*
X544197367Y16770600D01*
X544197367Y16770600D02*
X544340224Y16699171D01*
X544340224Y16699171D02*
X544483081Y16699171D01*
X544983081Y16699171D02*
X544983081Y17699171D01*
X544983081Y18199171D02*
X544911653Y18127742D01*
X544911653Y18127742D02*
X544983081Y18056314D01*
X544983081Y18056314D02*
X545054510Y18127742D01*
X545054510Y18127742D02*
X544983081Y18199171D01*
X544983081Y18199171D02*
X544983081Y18056314D01*
X545911653Y16699171D02*
X545768796Y16770600D01*
X545768796Y16770600D02*
X545697367Y16842028D01*
X545697367Y16842028D02*
X545625939Y16984885D01*
X545625939Y16984885D02*
X545625939Y17413457D01*
X545625939Y17413457D02*
X545697367Y17556314D01*
X545697367Y17556314D02*
X545768796Y17627742D01*
X545768796Y17627742D02*
X545911653Y17699171D01*
X545911653Y17699171D02*
X546125939Y17699171D01*
X546125939Y17699171D02*
X546268796Y17627742D01*
X546268796Y17627742D02*
X546340225Y17556314D01*
X546340225Y17556314D02*
X546411653Y17413457D01*
X546411653Y17413457D02*
X546411653Y16984885D01*
X546411653Y16984885D02*
X546340225Y16842028D01*
X546340225Y16842028D02*
X546268796Y16770600D01*
X546268796Y16770600D02*
X546125939Y16699171D01*
X546125939Y16699171D02*
X545911653Y16699171D01*
X547054510Y17699171D02*
X547054510Y16699171D01*
X547054510Y17556314D02*
X547125939Y17627742D01*
X547125939Y17627742D02*
X547268796Y17699171D01*
X547268796Y17699171D02*
X547483082Y17699171D01*
X547483082Y17699171D02*
X547625939Y17627742D01*
X547625939Y17627742D02*
X547697368Y17484885D01*
X547697368Y17484885D02*
X547697368Y16699171D01*
D12*
D15*
X321016918Y-239344828D02*
X322016918Y-239344828D01*
X322016918Y-239344828D02*
X321016918Y-240844828D01*
X321016918Y-240844828D02*
X322016918Y-240844828D01*
X323159775Y-240773400D02*
X323016918Y-240844828D01*
X323016918Y-240844828D02*
X322731204Y-240844828D01*
X322731204Y-240844828D02*
X322588346Y-240773400D01*
X322588346Y-240773400D02*
X322516918Y-240630542D01*
X322516918Y-240630542D02*
X322516918Y-240059114D01*
X322516918Y-240059114D02*
X322588346Y-239916257D01*
X322588346Y-239916257D02*
X322731204Y-239844828D01*
X322731204Y-239844828D02*
X323016918Y-239844828D01*
X323016918Y-239844828D02*
X323159775Y-239916257D01*
X323159775Y-239916257D02*
X323231204Y-240059114D01*
X323231204Y-240059114D02*
X323231204Y-240201971D01*
X323231204Y-240201971D02*
X322516918Y-240344828D01*
X323874060Y-240844828D02*
X323874060Y-239844828D01*
X323874060Y-240130542D02*
X323945489Y-239987685D01*
X323945489Y-239987685D02*
X324016918Y-239916257D01*
X324016918Y-239916257D02*
X324159775Y-239844828D01*
X324159775Y-239844828D02*
X324302632Y-239844828D01*
X325016917Y-240844828D02*
X324874060Y-240773400D01*
X324874060Y-240773400D02*
X324802631Y-240701971D01*
X324802631Y-240701971D02*
X324731203Y-240559114D01*
X324731203Y-240559114D02*
X324731203Y-240130542D01*
X324731203Y-240130542D02*
X324802631Y-239987685D01*
X324802631Y-239987685D02*
X324874060Y-239916257D01*
X324874060Y-239916257D02*
X325016917Y-239844828D01*
X325016917Y-239844828D02*
X325231203Y-239844828D01*
X325231203Y-239844828D02*
X325374060Y-239916257D01*
X325374060Y-239916257D02*
X325445489Y-239987685D01*
X325445489Y-239987685D02*
X325516917Y-240130542D01*
X325516917Y-240130542D02*
X325516917Y-240559114D01*
X325516917Y-240559114D02*
X325445489Y-240701971D01*
X325445489Y-240701971D02*
X325374060Y-240773400D01*
X325374060Y-240773400D02*
X325231203Y-240844828D01*
X325231203Y-240844828D02*
X325016917Y-240844828D01*
D11*
D16*
X219880295Y-252397696D02*
X217499342Y-254064363D01*
X219880295Y-255254839D02*
X214880295Y-255254839D01*
X214880295Y-255254839D02*
X214880295Y-253350077D01*
X214880295Y-253350077D02*
X215118390Y-252873887D01*
X215118390Y-252873887D02*
X215356485Y-252635792D01*
X215356485Y-252635792D02*
X215832676Y-252397696D01*
X215832676Y-252397696D02*
X216546961Y-252397696D01*
X216546961Y-252397696D02*
X217023152Y-252635792D01*
X217023152Y-252635792D02*
X217261247Y-252873887D01*
X217261247Y-252873887D02*
X217499342Y-253350077D01*
X217499342Y-253350077D02*
X217499342Y-255254839D01*
X219880295Y-249540554D02*
X219642200Y-250016744D01*
X219642200Y-250016744D02*
X219404104Y-250254839D01*
X219404104Y-250254839D02*
X218927914Y-250492935D01*
X218927914Y-250492935D02*
X217499342Y-250492935D01*
X217499342Y-250492935D02*
X217023152Y-250254839D01*
X217023152Y-250254839D02*
X216785057Y-250016744D01*
X216785057Y-250016744D02*
X216546961Y-249540554D01*
X216546961Y-249540554D02*
X216546961Y-248826268D01*
X216546961Y-248826268D02*
X216785057Y-248350077D01*
X216785057Y-248350077D02*
X217023152Y-248111982D01*
X217023152Y-248111982D02*
X217499342Y-247873887D01*
X217499342Y-247873887D02*
X218927914Y-247873887D01*
X218927914Y-247873887D02*
X219404104Y-248111982D01*
X219404104Y-248111982D02*
X219642200Y-248350077D01*
X219642200Y-248350077D02*
X219880295Y-248826268D01*
X219880295Y-248826268D02*
X219880295Y-249540554D01*
X216546961Y-246207220D02*
X219880295Y-245254839D01*
X219880295Y-245254839D02*
X217499342Y-244302458D01*
X217499342Y-244302458D02*
X219880295Y-243350077D01*
X219880295Y-243350077D02*
X216546961Y-242397696D01*
X214880295Y-234302458D02*
X214880295Y-236683410D01*
X214880295Y-236683410D02*
X217261247Y-236921506D01*
X217261247Y-236921506D02*
X217023152Y-236683410D01*
X217023152Y-236683410D02*
X216785057Y-236207220D01*
X216785057Y-236207220D02*
X216785057Y-235016744D01*
X216785057Y-235016744D02*
X217023152Y-234540553D01*
X217023152Y-234540553D02*
X217261247Y-234302458D01*
X217261247Y-234302458D02*
X217737438Y-234064363D01*
X217737438Y-234064363D02*
X218927914Y-234064363D01*
X218927914Y-234064363D02*
X219404104Y-234302458D01*
X219404104Y-234302458D02*
X219642200Y-234540553D01*
X219642200Y-234540553D02*
X219880295Y-235016744D01*
X219880295Y-235016744D02*
X219880295Y-236207220D01*
X219880295Y-236207220D02*
X219642200Y-236683410D01*
X219642200Y-236683410D02*
X219404104Y-236921506D01*
D12*
D15*
X448911653Y16842028D02*
X448840225Y16770600D01*
X448840225Y16770600D02*
X448625939Y16699171D01*
X448625939Y16699171D02*
X448483082Y16699171D01*
X448483082Y16699171D02*
X448268796Y16770600D01*
X448268796Y16770600D02*
X448125939Y16913457D01*
X448125939Y16913457D02*
X448054510Y17056314D01*
X448054510Y17056314D02*
X447983082Y17342028D01*
X447983082Y17342028D02*
X447983082Y17556314D01*
X447983082Y17556314D02*
X448054510Y17842028D01*
X448054510Y17842028D02*
X448125939Y17984885D01*
X448125939Y17984885D02*
X448268796Y18127742D01*
X448268796Y18127742D02*
X448483082Y18199171D01*
X448483082Y18199171D02*
X448625939Y18199171D01*
X448625939Y18199171D02*
X448840225Y18127742D01*
X448840225Y18127742D02*
X448911653Y18056314D01*
X449768796Y16699171D02*
X449625939Y16770600D01*
X449625939Y16770600D02*
X449554510Y16842028D01*
X449554510Y16842028D02*
X449483082Y16984885D01*
X449483082Y16984885D02*
X449483082Y17413457D01*
X449483082Y17413457D02*
X449554510Y17556314D01*
X449554510Y17556314D02*
X449625939Y17627742D01*
X449625939Y17627742D02*
X449768796Y17699171D01*
X449768796Y17699171D02*
X449983082Y17699171D01*
X449983082Y17699171D02*
X450125939Y17627742D01*
X450125939Y17627742D02*
X450197368Y17556314D01*
X450197368Y17556314D02*
X450268796Y17413457D01*
X450268796Y17413457D02*
X450268796Y16984885D01*
X450268796Y16984885D02*
X450197368Y16842028D01*
X450197368Y16842028D02*
X450125939Y16770600D01*
X450125939Y16770600D02*
X449983082Y16699171D01*
X449983082Y16699171D02*
X449768796Y16699171D01*
X451125939Y16699171D02*
X450983082Y16770600D01*
X450983082Y16770600D02*
X450911653Y16913457D01*
X450911653Y16913457D02*
X450911653Y18199171D01*
X452697367Y18199171D02*
X453625939Y18199171D01*
X453625939Y18199171D02*
X453125939Y17627742D01*
X453125939Y17627742D02*
X453340224Y17627742D01*
X453340224Y17627742D02*
X453483082Y17556314D01*
X453483082Y17556314D02*
X453554510Y17484885D01*
X453554510Y17484885D02*
X453625939Y17342028D01*
X453625939Y17342028D02*
X453625939Y16984885D01*
X453625939Y16984885D02*
X453554510Y16842028D01*
X453554510Y16842028D02*
X453483082Y16770600D01*
X453483082Y16770600D02*
X453340224Y16699171D01*
X453340224Y16699171D02*
X452911653Y16699171D01*
X452911653Y16699171D02*
X452768796Y16770600D01*
X452768796Y16770600D02*
X452697367Y16842028D01*
D12*
D15*
X392911653Y16842028D02*
X392840225Y16770600D01*
X392840225Y16770600D02*
X392625939Y16699171D01*
X392625939Y16699171D02*
X392483082Y16699171D01*
X392483082Y16699171D02*
X392268796Y16770600D01*
X392268796Y16770600D02*
X392125939Y16913457D01*
X392125939Y16913457D02*
X392054510Y17056314D01*
X392054510Y17056314D02*
X391983082Y17342028D01*
X391983082Y17342028D02*
X391983082Y17556314D01*
X391983082Y17556314D02*
X392054510Y17842028D01*
X392054510Y17842028D02*
X392125939Y17984885D01*
X392125939Y17984885D02*
X392268796Y18127742D01*
X392268796Y18127742D02*
X392483082Y18199171D01*
X392483082Y18199171D02*
X392625939Y18199171D01*
X392625939Y18199171D02*
X392840225Y18127742D01*
X392840225Y18127742D02*
X392911653Y18056314D01*
X393768796Y16699171D02*
X393625939Y16770600D01*
X393625939Y16770600D02*
X393554510Y16842028D01*
X393554510Y16842028D02*
X393483082Y16984885D01*
X393483082Y16984885D02*
X393483082Y17413457D01*
X393483082Y17413457D02*
X393554510Y17556314D01*
X393554510Y17556314D02*
X393625939Y17627742D01*
X393625939Y17627742D02*
X393768796Y17699171D01*
X393768796Y17699171D02*
X393983082Y17699171D01*
X393983082Y17699171D02*
X394125939Y17627742D01*
X394125939Y17627742D02*
X394197368Y17556314D01*
X394197368Y17556314D02*
X394268796Y17413457D01*
X394268796Y17413457D02*
X394268796Y16984885D01*
X394268796Y16984885D02*
X394197368Y16842028D01*
X394197368Y16842028D02*
X394125939Y16770600D01*
X394125939Y16770600D02*
X393983082Y16699171D01*
X393983082Y16699171D02*
X393768796Y16699171D01*
X395125939Y16699171D02*
X394983082Y16770600D01*
X394983082Y16770600D02*
X394911653Y16913457D01*
X394911653Y16913457D02*
X394911653Y18199171D01*
X396768796Y18056314D02*
X396840224Y18127742D01*
X396840224Y18127742D02*
X396983082Y18199171D01*
X396983082Y18199171D02*
X397340224Y18199171D01*
X397340224Y18199171D02*
X397483082Y18127742D01*
X397483082Y18127742D02*
X397554510Y18056314D01*
X397554510Y18056314D02*
X397625939Y17913457D01*
X397625939Y17913457D02*
X397625939Y17770600D01*
X397625939Y17770600D02*
X397554510Y17556314D01*
X397554510Y17556314D02*
X396697367Y16699171D01*
X396697367Y16699171D02*
X397625939Y16699171D01*
D12*
D15*
X332417653Y-90157971D02*
X332346225Y-90229400D01*
X332346225Y-90229400D02*
X332131939Y-90300828D01*
X332131939Y-90300828D02*
X331989082Y-90300828D01*
X331989082Y-90300828D02*
X331774796Y-90229400D01*
X331774796Y-90229400D02*
X331631939Y-90086542D01*
X331631939Y-90086542D02*
X331560510Y-89943685D01*
X331560510Y-89943685D02*
X331489082Y-89657971D01*
X331489082Y-89657971D02*
X331489082Y-89443685D01*
X331489082Y-89443685D02*
X331560510Y-89157971D01*
X331560510Y-89157971D02*
X331631939Y-89015114D01*
X331631939Y-89015114D02*
X331774796Y-88872257D01*
X331774796Y-88872257D02*
X331989082Y-88800828D01*
X331989082Y-88800828D02*
X332131939Y-88800828D01*
X332131939Y-88800828D02*
X332346225Y-88872257D01*
X332346225Y-88872257D02*
X332417653Y-88943685D01*
X333274796Y-90300828D02*
X333131939Y-90229400D01*
X333131939Y-90229400D02*
X333060510Y-90157971D01*
X333060510Y-90157971D02*
X332989082Y-90015114D01*
X332989082Y-90015114D02*
X332989082Y-89586542D01*
X332989082Y-89586542D02*
X333060510Y-89443685D01*
X333060510Y-89443685D02*
X333131939Y-89372257D01*
X333131939Y-89372257D02*
X333274796Y-89300828D01*
X333274796Y-89300828D02*
X333489082Y-89300828D01*
X333489082Y-89300828D02*
X333631939Y-89372257D01*
X333631939Y-89372257D02*
X333703368Y-89443685D01*
X333703368Y-89443685D02*
X333774796Y-89586542D01*
X333774796Y-89586542D02*
X333774796Y-90015114D01*
X333774796Y-90015114D02*
X333703368Y-90157971D01*
X333703368Y-90157971D02*
X333631939Y-90229400D01*
X333631939Y-90229400D02*
X333489082Y-90300828D01*
X333489082Y-90300828D02*
X333274796Y-90300828D01*
X334631939Y-90300828D02*
X334489082Y-90229400D01*
X334489082Y-90229400D02*
X334417653Y-90086542D01*
X334417653Y-90086542D02*
X334417653Y-88800828D01*
X336989082Y-89300828D02*
X336989082Y-90300828D01*
X336631939Y-88729400D02*
X336274796Y-89800828D01*
X336274796Y-89800828D02*
X337203367Y-89800828D01*
X337774795Y-89729400D02*
X338917653Y-89729400D01*
X340417653Y-90300828D02*
X339560510Y-90300828D01*
X339989081Y-90300828D02*
X339989081Y-88800828D01*
X339989081Y-88800828D02*
X339846224Y-89015114D01*
X339846224Y-89015114D02*
X339703367Y-89157971D01*
X339703367Y-89157971D02*
X339560510Y-89229400D01*
D11*
D16*
X51880295Y-89397696D02*
X49499342Y-91064363D01*
X51880295Y-92254839D02*
X46880295Y-92254839D01*
X46880295Y-92254839D02*
X46880295Y-90350077D01*
X46880295Y-90350077D02*
X47118390Y-89873887D01*
X47118390Y-89873887D02*
X47356485Y-89635792D01*
X47356485Y-89635792D02*
X47832676Y-89397696D01*
X47832676Y-89397696D02*
X48546961Y-89397696D01*
X48546961Y-89397696D02*
X49023152Y-89635792D01*
X49023152Y-89635792D02*
X49261247Y-89873887D01*
X49261247Y-89873887D02*
X49499342Y-90350077D01*
X49499342Y-90350077D02*
X49499342Y-92254839D01*
X51880295Y-86540554D02*
X51642200Y-87016744D01*
X51642200Y-87016744D02*
X51404104Y-87254839D01*
X51404104Y-87254839D02*
X50927914Y-87492935D01*
X50927914Y-87492935D02*
X49499342Y-87492935D01*
X49499342Y-87492935D02*
X49023152Y-87254839D01*
X49023152Y-87254839D02*
X48785057Y-87016744D01*
X48785057Y-87016744D02*
X48546961Y-86540554D01*
X48546961Y-86540554D02*
X48546961Y-85826268D01*
X48546961Y-85826268D02*
X48785057Y-85350077D01*
X48785057Y-85350077D02*
X49023152Y-85111982D01*
X49023152Y-85111982D02*
X49499342Y-84873887D01*
X49499342Y-84873887D02*
X50927914Y-84873887D01*
X50927914Y-84873887D02*
X51404104Y-85111982D01*
X51404104Y-85111982D02*
X51642200Y-85350077D01*
X51642200Y-85350077D02*
X51880295Y-85826268D01*
X51880295Y-85826268D02*
X51880295Y-86540554D01*
X48546961Y-83207220D02*
X51880295Y-82254839D01*
X51880295Y-82254839D02*
X49499342Y-81302458D01*
X49499342Y-81302458D02*
X51880295Y-80350077D01*
X51880295Y-80350077D02*
X48546961Y-79397696D01*
X47356485Y-73921506D02*
X47118390Y-73683410D01*
X47118390Y-73683410D02*
X46880295Y-73207220D01*
X46880295Y-73207220D02*
X46880295Y-72016744D01*
X46880295Y-72016744D02*
X47118390Y-71540553D01*
X47118390Y-71540553D02*
X47356485Y-71302458D01*
X47356485Y-71302458D02*
X47832676Y-71064363D01*
X47832676Y-71064363D02*
X48308866Y-71064363D01*
X48308866Y-71064363D02*
X49023152Y-71302458D01*
X49023152Y-71302458D02*
X51880295Y-74159601D01*
X51880295Y-74159601D02*
X51880295Y-71064363D01*
X49975533Y-68921505D02*
X49975533Y-65111982D01*
X48546961Y-60588172D02*
X51880295Y-60588172D01*
X46642200Y-61778648D02*
X50213628Y-62969125D01*
X50213628Y-62969125D02*
X50213628Y-59873886D01*
D12*
D15*
X374016917Y-240844828D02*
X374016917Y-239344828D01*
X374016917Y-239344828D02*
X374588346Y-239344828D01*
X374588346Y-239344828D02*
X374731203Y-239416257D01*
X374731203Y-239416257D02*
X374802632Y-239487685D01*
X374802632Y-239487685D02*
X374874060Y-239630542D01*
X374874060Y-239630542D02*
X374874060Y-239844828D01*
X374874060Y-239844828D02*
X374802632Y-239987685D01*
X374802632Y-239987685D02*
X374731203Y-240059114D01*
X374731203Y-240059114D02*
X374588346Y-240130542D01*
X374588346Y-240130542D02*
X374016917Y-240130542D01*
X376088346Y-240773400D02*
X375945489Y-240844828D01*
X375945489Y-240844828D02*
X375659775Y-240844828D01*
X375659775Y-240844828D02*
X375516917Y-240773400D01*
X375516917Y-240773400D02*
X375445489Y-240630542D01*
X375445489Y-240630542D02*
X375445489Y-240059114D01*
X375445489Y-240059114D02*
X375516917Y-239916257D01*
X375516917Y-239916257D02*
X375659775Y-239844828D01*
X375659775Y-239844828D02*
X375945489Y-239844828D01*
X375945489Y-239844828D02*
X376088346Y-239916257D01*
X376088346Y-239916257D02*
X376159775Y-240059114D01*
X376159775Y-240059114D02*
X376159775Y-240201971D01*
X376159775Y-240201971D02*
X375445489Y-240344828D01*
X376802631Y-240844828D02*
X376802631Y-239844828D01*
X376802631Y-240130542D02*
X376874060Y-239987685D01*
X376874060Y-239987685D02*
X376945489Y-239916257D01*
X376945489Y-239916257D02*
X377088346Y-239844828D01*
X377088346Y-239844828D02*
X377231203Y-239844828D01*
X377731202Y-240844828D02*
X377731202Y-239844828D01*
X377731202Y-239344828D02*
X377659774Y-239416257D01*
X377659774Y-239416257D02*
X377731202Y-239487685D01*
X377731202Y-239487685D02*
X377802631Y-239416257D01*
X377802631Y-239416257D02*
X377731202Y-239344828D01*
X377731202Y-239344828D02*
X377731202Y-239487685D01*
X378659774Y-240844828D02*
X378516917Y-240773400D01*
X378516917Y-240773400D02*
X378445488Y-240701971D01*
X378445488Y-240701971D02*
X378374060Y-240559114D01*
X378374060Y-240559114D02*
X378374060Y-240130542D01*
X378374060Y-240130542D02*
X378445488Y-239987685D01*
X378445488Y-239987685D02*
X378516917Y-239916257D01*
X378516917Y-239916257D02*
X378659774Y-239844828D01*
X378659774Y-239844828D02*
X378874060Y-239844828D01*
X378874060Y-239844828D02*
X379016917Y-239916257D01*
X379016917Y-239916257D02*
X379088346Y-239987685D01*
X379088346Y-239987685D02*
X379159774Y-240130542D01*
X379159774Y-240130542D02*
X379159774Y-240559114D01*
X379159774Y-240559114D02*
X379088346Y-240701971D01*
X379088346Y-240701971D02*
X379016917Y-240773400D01*
X379016917Y-240773400D02*
X378874060Y-240844828D01*
X378874060Y-240844828D02*
X378659774Y-240844828D01*
X380445489Y-240844828D02*
X380445489Y-239344828D01*
X380445489Y-240773400D02*
X380302631Y-240844828D01*
X380302631Y-240844828D02*
X380016917Y-240844828D01*
X380016917Y-240844828D02*
X379874060Y-240773400D01*
X379874060Y-240773400D02*
X379802631Y-240701971D01*
X379802631Y-240701971D02*
X379731203Y-240559114D01*
X379731203Y-240559114D02*
X379731203Y-240130542D01*
X379731203Y-240130542D02*
X379802631Y-239987685D01*
X379802631Y-239987685D02*
X379874060Y-239916257D01*
X379874060Y-239916257D02*
X380016917Y-239844828D01*
X380016917Y-239844828D02*
X380302631Y-239844828D01*
X380302631Y-239844828D02*
X380445489Y-239916257D01*
D12*
D15*
X478054510Y16699171D02*
X478054510Y18199171D01*
X478054510Y18199171D02*
X478554510Y17127742D01*
X478554510Y17127742D02*
X479054510Y18199171D01*
X479054510Y18199171D02*
X479054510Y16699171D01*
X480411654Y17699171D02*
X480411654Y16699171D01*
X479768796Y17699171D02*
X479768796Y16913457D01*
X479768796Y16913457D02*
X479840225Y16770600D01*
X479840225Y16770600D02*
X479983082Y16699171D01*
X479983082Y16699171D02*
X480197368Y16699171D01*
X480197368Y16699171D02*
X480340225Y16770600D01*
X480340225Y16770600D02*
X480411654Y16842028D01*
X481340225Y16699171D02*
X481197368Y16770600D01*
X481197368Y16770600D02*
X481125939Y16913457D01*
X481125939Y16913457D02*
X481125939Y18199171D01*
X481697368Y17699171D02*
X482268796Y17699171D01*
X481911653Y18199171D02*
X481911653Y16913457D01*
X481911653Y16913457D02*
X481983082Y16770600D01*
X481983082Y16770600D02*
X482125939Y16699171D01*
X482125939Y16699171D02*
X482268796Y16699171D01*
X482768796Y16699171D02*
X482768796Y17699171D01*
X482768796Y18199171D02*
X482697368Y18127742D01*
X482697368Y18127742D02*
X482768796Y18056314D01*
X482768796Y18056314D02*
X482840225Y18127742D01*
X482840225Y18127742D02*
X482768796Y18199171D01*
X482768796Y18199171D02*
X482768796Y18056314D01*
X483483082Y17699171D02*
X483483082Y16199171D01*
X483483082Y17627742D02*
X483625940Y17699171D01*
X483625940Y17699171D02*
X483911654Y17699171D01*
X483911654Y17699171D02*
X484054511Y17627742D01*
X484054511Y17627742D02*
X484125940Y17556314D01*
X484125940Y17556314D02*
X484197368Y17413457D01*
X484197368Y17413457D02*
X484197368Y16984885D01*
X484197368Y16984885D02*
X484125940Y16842028D01*
X484125940Y16842028D02*
X484054511Y16770600D01*
X484054511Y16770600D02*
X483911654Y16699171D01*
X483911654Y16699171D02*
X483625940Y16699171D01*
X483625940Y16699171D02*
X483483082Y16770600D01*
X485054511Y16699171D02*
X484911654Y16770600D01*
X484911654Y16770600D02*
X484840225Y16913457D01*
X484840225Y16913457D02*
X484840225Y18199171D01*
X485625939Y16699171D02*
X485625939Y17699171D01*
X485625939Y18199171D02*
X485554511Y18127742D01*
X485554511Y18127742D02*
X485625939Y18056314D01*
X485625939Y18056314D02*
X485697368Y18127742D01*
X485697368Y18127742D02*
X485625939Y18199171D01*
X485625939Y18199171D02*
X485625939Y18056314D01*
X486983083Y16770600D02*
X486840225Y16699171D01*
X486840225Y16699171D02*
X486554511Y16699171D01*
X486554511Y16699171D02*
X486411654Y16770600D01*
X486411654Y16770600D02*
X486340225Y16842028D01*
X486340225Y16842028D02*
X486268797Y16984885D01*
X486268797Y16984885D02*
X486268797Y17413457D01*
X486268797Y17413457D02*
X486340225Y17556314D01*
X486340225Y17556314D02*
X486411654Y17627742D01*
X486411654Y17627742D02*
X486554511Y17699171D01*
X486554511Y17699171D02*
X486840225Y17699171D01*
X486840225Y17699171D02*
X486983083Y17627742D01*
X488268797Y16699171D02*
X488268797Y17484885D01*
X488268797Y17484885D02*
X488197368Y17627742D01*
X488197368Y17627742D02*
X488054511Y17699171D01*
X488054511Y17699171D02*
X487768797Y17699171D01*
X487768797Y17699171D02*
X487625939Y17627742D01*
X488268797Y16770600D02*
X488125939Y16699171D01*
X488125939Y16699171D02*
X487768797Y16699171D01*
X487768797Y16699171D02*
X487625939Y16770600D01*
X487625939Y16770600D02*
X487554511Y16913457D01*
X487554511Y16913457D02*
X487554511Y17056314D01*
X487554511Y17056314D02*
X487625939Y17199171D01*
X487625939Y17199171D02*
X487768797Y17270600D01*
X487768797Y17270600D02*
X488125939Y17270600D01*
X488125939Y17270600D02*
X488268797Y17342028D01*
X488768797Y17699171D02*
X489340225Y17699171D01*
X488983082Y18199171D02*
X488983082Y16913457D01*
X488983082Y16913457D02*
X489054511Y16770600D01*
X489054511Y16770600D02*
X489197368Y16699171D01*
X489197368Y16699171D02*
X489340225Y16699171D01*
X489840225Y16699171D02*
X489840225Y17699171D01*
X489840225Y18199171D02*
X489768797Y18127742D01*
X489768797Y18127742D02*
X489840225Y18056314D01*
X489840225Y18056314D02*
X489911654Y18127742D01*
X489911654Y18127742D02*
X489840225Y18199171D01*
X489840225Y18199171D02*
X489840225Y18056314D01*
X490768797Y16699171D02*
X490625940Y16770600D01*
X490625940Y16770600D02*
X490554511Y16842028D01*
X490554511Y16842028D02*
X490483083Y16984885D01*
X490483083Y16984885D02*
X490483083Y17413457D01*
X490483083Y17413457D02*
X490554511Y17556314D01*
X490554511Y17556314D02*
X490625940Y17627742D01*
X490625940Y17627742D02*
X490768797Y17699171D01*
X490768797Y17699171D02*
X490983083Y17699171D01*
X490983083Y17699171D02*
X491125940Y17627742D01*
X491125940Y17627742D02*
X491197369Y17556314D01*
X491197369Y17556314D02*
X491268797Y17413457D01*
X491268797Y17413457D02*
X491268797Y16984885D01*
X491268797Y16984885D02*
X491197369Y16842028D01*
X491197369Y16842028D02*
X491125940Y16770600D01*
X491125940Y16770600D02*
X490983083Y16699171D01*
X490983083Y16699171D02*
X490768797Y16699171D01*
X491911654Y17699171D02*
X491911654Y16699171D01*
X491911654Y17556314D02*
X491983083Y17627742D01*
X491983083Y17627742D02*
X492125940Y17699171D01*
X492125940Y17699171D02*
X492340226Y17699171D01*
X492340226Y17699171D02*
X492483083Y17627742D01*
X492483083Y17627742D02*
X492554512Y17484885D01*
X492554512Y17484885D02*
X492554512Y16699171D01*
D12*
D15*
X227411653Y-240701971D02*
X227340225Y-240773400D01*
X227340225Y-240773400D02*
X227125939Y-240844828D01*
X227125939Y-240844828D02*
X226983082Y-240844828D01*
X226983082Y-240844828D02*
X226768796Y-240773400D01*
X226768796Y-240773400D02*
X226625939Y-240630542D01*
X226625939Y-240630542D02*
X226554510Y-240487685D01*
X226554510Y-240487685D02*
X226483082Y-240201971D01*
X226483082Y-240201971D02*
X226483082Y-239987685D01*
X226483082Y-239987685D02*
X226554510Y-239701971D01*
X226554510Y-239701971D02*
X226625939Y-239559114D01*
X226625939Y-239559114D02*
X226768796Y-239416257D01*
X226768796Y-239416257D02*
X226983082Y-239344828D01*
X226983082Y-239344828D02*
X227125939Y-239344828D01*
X227125939Y-239344828D02*
X227340225Y-239416257D01*
X227340225Y-239416257D02*
X227411653Y-239487685D01*
X228268796Y-240844828D02*
X228125939Y-240773400D01*
X228125939Y-240773400D02*
X228054510Y-240701971D01*
X228054510Y-240701971D02*
X227983082Y-240559114D01*
X227983082Y-240559114D02*
X227983082Y-240130542D01*
X227983082Y-240130542D02*
X228054510Y-239987685D01*
X228054510Y-239987685D02*
X228125939Y-239916257D01*
X228125939Y-239916257D02*
X228268796Y-239844828D01*
X228268796Y-239844828D02*
X228483082Y-239844828D01*
X228483082Y-239844828D02*
X228625939Y-239916257D01*
X228625939Y-239916257D02*
X228697368Y-239987685D01*
X228697368Y-239987685D02*
X228768796Y-240130542D01*
X228768796Y-240130542D02*
X228768796Y-240559114D01*
X228768796Y-240559114D02*
X228697368Y-240701971D01*
X228697368Y-240701971D02*
X228625939Y-240773400D01*
X228625939Y-240773400D02*
X228483082Y-240844828D01*
X228483082Y-240844828D02*
X228268796Y-240844828D01*
X229625939Y-240844828D02*
X229483082Y-240773400D01*
X229483082Y-240773400D02*
X229411653Y-240630542D01*
X229411653Y-240630542D02*
X229411653Y-239344828D01*
X232125939Y-240844828D02*
X231268796Y-240844828D01*
X231697367Y-240844828D02*
X231697367Y-239344828D01*
X231697367Y-239344828D02*
X231554510Y-239559114D01*
X231554510Y-239559114D02*
X231411653Y-239701971D01*
X231411653Y-239701971D02*
X231268796Y-239773400D01*
X232768795Y-240273400D02*
X233911653Y-240273400D01*
X234554510Y-239487685D02*
X234625938Y-239416257D01*
X234625938Y-239416257D02*
X234768796Y-239344828D01*
X234768796Y-239344828D02*
X235125938Y-239344828D01*
X235125938Y-239344828D02*
X235268796Y-239416257D01*
X235268796Y-239416257D02*
X235340224Y-239487685D01*
X235340224Y-239487685D02*
X235411653Y-239630542D01*
X235411653Y-239630542D02*
X235411653Y-239773400D01*
X235411653Y-239773400D02*
X235340224Y-239987685D01*
X235340224Y-239987685D02*
X234483081Y-240844828D01*
X234483081Y-240844828D02*
X235411653Y-240844828D01*
D12*
D15*
X337411653Y16842028D02*
X337340225Y16770600D01*
X337340225Y16770600D02*
X337125939Y16699171D01*
X337125939Y16699171D02*
X336983082Y16699171D01*
X336983082Y16699171D02*
X336768796Y16770600D01*
X336768796Y16770600D02*
X336625939Y16913457D01*
X336625939Y16913457D02*
X336554510Y17056314D01*
X336554510Y17056314D02*
X336483082Y17342028D01*
X336483082Y17342028D02*
X336483082Y17556314D01*
X336483082Y17556314D02*
X336554510Y17842028D01*
X336554510Y17842028D02*
X336625939Y17984885D01*
X336625939Y17984885D02*
X336768796Y18127742D01*
X336768796Y18127742D02*
X336983082Y18199171D01*
X336983082Y18199171D02*
X337125939Y18199171D01*
X337125939Y18199171D02*
X337340225Y18127742D01*
X337340225Y18127742D02*
X337411653Y18056314D01*
X338268796Y16699171D02*
X338125939Y16770600D01*
X338125939Y16770600D02*
X338054510Y16842028D01*
X338054510Y16842028D02*
X337983082Y16984885D01*
X337983082Y16984885D02*
X337983082Y17413457D01*
X337983082Y17413457D02*
X338054510Y17556314D01*
X338054510Y17556314D02*
X338125939Y17627742D01*
X338125939Y17627742D02*
X338268796Y17699171D01*
X338268796Y17699171D02*
X338483082Y17699171D01*
X338483082Y17699171D02*
X338625939Y17627742D01*
X338625939Y17627742D02*
X338697368Y17556314D01*
X338697368Y17556314D02*
X338768796Y17413457D01*
X338768796Y17413457D02*
X338768796Y16984885D01*
X338768796Y16984885D02*
X338697368Y16842028D01*
X338697368Y16842028D02*
X338625939Y16770600D01*
X338625939Y16770600D02*
X338483082Y16699171D01*
X338483082Y16699171D02*
X338268796Y16699171D01*
X339625939Y16699171D02*
X339483082Y16770600D01*
X339483082Y16770600D02*
X339411653Y16913457D01*
X339411653Y16913457D02*
X339411653Y18199171D01*
X342125939Y16699171D02*
X341268796Y16699171D01*
X341697367Y16699171D02*
X341697367Y18199171D01*
X341697367Y18199171D02*
X341554510Y17984885D01*
X341554510Y17984885D02*
X341411653Y17842028D01*
X341411653Y17842028D02*
X341268796Y17770600D01*
D12*
D15*
X331588345Y-92872257D02*
X332302631Y-92872257D01*
X331445488Y-93300828D02*
X331945488Y-91800828D01*
X331945488Y-91800828D02*
X332445488Y-93300828D01*
X333588345Y-93300828D02*
X333588345Y-91800828D01*
X333588345Y-93229400D02*
X333445487Y-93300828D01*
X333445487Y-93300828D02*
X333159773Y-93300828D01*
X333159773Y-93300828D02*
X333016916Y-93229400D01*
X333016916Y-93229400D02*
X332945487Y-93157971D01*
X332945487Y-93157971D02*
X332874059Y-93015114D01*
X332874059Y-93015114D02*
X332874059Y-92586542D01*
X332874059Y-92586542D02*
X332945487Y-92443685D01*
X332945487Y-92443685D02*
X333016916Y-92372257D01*
X333016916Y-92372257D02*
X333159773Y-92300828D01*
X333159773Y-92300828D02*
X333445487Y-92300828D01*
X333445487Y-92300828D02*
X333588345Y-92372257D01*
X334945488Y-93300828D02*
X334945488Y-91800828D01*
X334945488Y-93229400D02*
X334802630Y-93300828D01*
X334802630Y-93300828D02*
X334516916Y-93300828D01*
X334516916Y-93300828D02*
X334374059Y-93229400D01*
X334374059Y-93229400D02*
X334302630Y-93157971D01*
X334302630Y-93157971D02*
X334231202Y-93015114D01*
X334231202Y-93015114D02*
X334231202Y-92586542D01*
X334231202Y-92586542D02*
X334302630Y-92443685D01*
X334302630Y-92443685D02*
X334374059Y-92372257D01*
X334374059Y-92372257D02*
X334516916Y-92300828D01*
X334516916Y-92300828D02*
X334802630Y-92300828D01*
X334802630Y-92300828D02*
X334945488Y-92372257D01*
X335659773Y-93300828D02*
X335659773Y-92300828D01*
X335659773Y-91800828D02*
X335588345Y-91872257D01*
X335588345Y-91872257D02*
X335659773Y-91943685D01*
X335659773Y-91943685D02*
X335731202Y-91872257D01*
X335731202Y-91872257D02*
X335659773Y-91800828D01*
X335659773Y-91800828D02*
X335659773Y-91943685D01*
X336159774Y-92300828D02*
X336731202Y-92300828D01*
X336374059Y-91800828D02*
X336374059Y-93086542D01*
X336374059Y-93086542D02*
X336445488Y-93229400D01*
X336445488Y-93229400D02*
X336588345Y-93300828D01*
X336588345Y-93300828D02*
X336731202Y-93300828D01*
X337231202Y-93300828D02*
X337231202Y-92300828D01*
X337231202Y-91800828D02*
X337159774Y-91872257D01*
X337159774Y-91872257D02*
X337231202Y-91943685D01*
X337231202Y-91943685D02*
X337302631Y-91872257D01*
X337302631Y-91872257D02*
X337231202Y-91800828D01*
X337231202Y-91800828D02*
X337231202Y-91943685D01*
X338159774Y-93300828D02*
X338016917Y-93229400D01*
X338016917Y-93229400D02*
X337945488Y-93157971D01*
X337945488Y-93157971D02*
X337874060Y-93015114D01*
X337874060Y-93015114D02*
X337874060Y-92586542D01*
X337874060Y-92586542D02*
X337945488Y-92443685D01*
X337945488Y-92443685D02*
X338016917Y-92372257D01*
X338016917Y-92372257D02*
X338159774Y-92300828D01*
X338159774Y-92300828D02*
X338374060Y-92300828D01*
X338374060Y-92300828D02*
X338516917Y-92372257D01*
X338516917Y-92372257D02*
X338588346Y-92443685D01*
X338588346Y-92443685D02*
X338659774Y-92586542D01*
X338659774Y-92586542D02*
X338659774Y-93015114D01*
X338659774Y-93015114D02*
X338588346Y-93157971D01*
X338588346Y-93157971D02*
X338516917Y-93229400D01*
X338516917Y-93229400D02*
X338374060Y-93300828D01*
X338374060Y-93300828D02*
X338159774Y-93300828D01*
X339302631Y-92300828D02*
X339302631Y-93300828D01*
X339302631Y-92443685D02*
X339374060Y-92372257D01*
X339374060Y-92372257D02*
X339516917Y-92300828D01*
X339516917Y-92300828D02*
X339731203Y-92300828D01*
X339731203Y-92300828D02*
X339874060Y-92372257D01*
X339874060Y-92372257D02*
X339945489Y-92515114D01*
X339945489Y-92515114D02*
X339945489Y-93300828D01*
D11*
D16*
X333146303Y-75880295D02*
X331479636Y-73499342D01*
X330289160Y-75880295D02*
X330289160Y-70880295D01*
X330289160Y-70880295D02*
X332193922Y-70880295D01*
X332193922Y-70880295D02*
X332670112Y-71118390D01*
X332670112Y-71118390D02*
X332908207Y-71356485D01*
X332908207Y-71356485D02*
X333146303Y-71832676D01*
X333146303Y-71832676D02*
X333146303Y-72546961D01*
X333146303Y-72546961D02*
X332908207Y-73023152D01*
X332908207Y-73023152D02*
X332670112Y-73261247D01*
X332670112Y-73261247D02*
X332193922Y-73499342D01*
X332193922Y-73499342D02*
X330289160Y-73499342D01*
X336003445Y-75880295D02*
X335527255Y-75642200D01*
X335527255Y-75642200D02*
X335289160Y-75404104D01*
X335289160Y-75404104D02*
X335051064Y-74927914D01*
X335051064Y-74927914D02*
X335051064Y-73499342D01*
X335051064Y-73499342D02*
X335289160Y-73023152D01*
X335289160Y-73023152D02*
X335527255Y-72785057D01*
X335527255Y-72785057D02*
X336003445Y-72546961D01*
X336003445Y-72546961D02*
X336717731Y-72546961D01*
X336717731Y-72546961D02*
X337193922Y-72785057D01*
X337193922Y-72785057D02*
X337432017Y-73023152D01*
X337432017Y-73023152D02*
X337670112Y-73499342D01*
X337670112Y-73499342D02*
X337670112Y-74927914D01*
X337670112Y-74927914D02*
X337432017Y-75404104D01*
X337432017Y-75404104D02*
X337193922Y-75642200D01*
X337193922Y-75642200D02*
X336717731Y-75880295D01*
X336717731Y-75880295D02*
X336003445Y-75880295D01*
X339336779Y-72546961D02*
X340289160Y-75880295D01*
X340289160Y-75880295D02*
X341241541Y-73499342D01*
X341241541Y-73499342D02*
X342193922Y-75880295D01*
X342193922Y-75880295D02*
X343146303Y-72546961D01*
X348622493Y-71356485D02*
X348860589Y-71118390D01*
X348860589Y-71118390D02*
X349336779Y-70880295D01*
X349336779Y-70880295D02*
X350527255Y-70880295D01*
X350527255Y-70880295D02*
X351003446Y-71118390D01*
X351003446Y-71118390D02*
X351241541Y-71356485D01*
X351241541Y-71356485D02*
X351479636Y-71832676D01*
X351479636Y-71832676D02*
X351479636Y-72308866D01*
X351479636Y-72308866D02*
X351241541Y-73023152D01*
X351241541Y-73023152D02*
X348384398Y-75880295D01*
X348384398Y-75880295D02*
X351479636Y-75880295D01*
X353622494Y-73975533D02*
X357432018Y-73975533D01*
X361955827Y-72546961D02*
X361955827Y-75880295D01*
X360765351Y-70642200D02*
X359574874Y-74213628D01*
X359574874Y-74213628D02*
X362670113Y-74213628D01*
D12*
D15*
X337411653Y-241157971D02*
X337340225Y-241229400D01*
X337340225Y-241229400D02*
X337125939Y-241300828D01*
X337125939Y-241300828D02*
X336983082Y-241300828D01*
X336983082Y-241300828D02*
X336768796Y-241229400D01*
X336768796Y-241229400D02*
X336625939Y-241086542D01*
X336625939Y-241086542D02*
X336554510Y-240943685D01*
X336554510Y-240943685D02*
X336483082Y-240657971D01*
X336483082Y-240657971D02*
X336483082Y-240443685D01*
X336483082Y-240443685D02*
X336554510Y-240157971D01*
X336554510Y-240157971D02*
X336625939Y-240015114D01*
X336625939Y-240015114D02*
X336768796Y-239872257D01*
X336768796Y-239872257D02*
X336983082Y-239800828D01*
X336983082Y-239800828D02*
X337125939Y-239800828D01*
X337125939Y-239800828D02*
X337340225Y-239872257D01*
X337340225Y-239872257D02*
X337411653Y-239943685D01*
X338268796Y-241300828D02*
X338125939Y-241229400D01*
X338125939Y-241229400D02*
X338054510Y-241157971D01*
X338054510Y-241157971D02*
X337983082Y-241015114D01*
X337983082Y-241015114D02*
X337983082Y-240586542D01*
X337983082Y-240586542D02*
X338054510Y-240443685D01*
X338054510Y-240443685D02*
X338125939Y-240372257D01*
X338125939Y-240372257D02*
X338268796Y-240300828D01*
X338268796Y-240300828D02*
X338483082Y-240300828D01*
X338483082Y-240300828D02*
X338625939Y-240372257D01*
X338625939Y-240372257D02*
X338697368Y-240443685D01*
X338697368Y-240443685D02*
X338768796Y-240586542D01*
X338768796Y-240586542D02*
X338768796Y-241015114D01*
X338768796Y-241015114D02*
X338697368Y-241157971D01*
X338697368Y-241157971D02*
X338625939Y-241229400D01*
X338625939Y-241229400D02*
X338483082Y-241300828D01*
X338483082Y-241300828D02*
X338268796Y-241300828D01*
X339625939Y-241300828D02*
X339483082Y-241229400D01*
X339483082Y-241229400D02*
X339411653Y-241086542D01*
X339411653Y-241086542D02*
X339411653Y-239800828D01*
X341197367Y-239800828D02*
X342125939Y-239800828D01*
X342125939Y-239800828D02*
X341625939Y-240372257D01*
X341625939Y-240372257D02*
X341840224Y-240372257D01*
X341840224Y-240372257D02*
X341983082Y-240443685D01*
X341983082Y-240443685D02*
X342054510Y-240515114D01*
X342054510Y-240515114D02*
X342125939Y-240657971D01*
X342125939Y-240657971D02*
X342125939Y-241015114D01*
X342125939Y-241015114D02*
X342054510Y-241157971D01*
X342054510Y-241157971D02*
X341983082Y-241229400D01*
X341983082Y-241229400D02*
X341840224Y-241300828D01*
X341840224Y-241300828D02*
X341411653Y-241300828D01*
X341411653Y-241300828D02*
X341268796Y-241229400D01*
X341268796Y-241229400D02*
X341197367Y-241157971D01*
D11*
D16*
X329880295Y1646303D02*
X327499342Y-20363D01*
X329880295Y-1210839D02*
X324880295Y-1210839D01*
X324880295Y-1210839D02*
X324880295Y693922D01*
X324880295Y693922D02*
X325118390Y1170112D01*
X325118390Y1170112D02*
X325356485Y1408207D01*
X325356485Y1408207D02*
X325832676Y1646303D01*
X325832676Y1646303D02*
X326546961Y1646303D01*
X326546961Y1646303D02*
X327023152Y1408207D01*
X327023152Y1408207D02*
X327261247Y1170112D01*
X327261247Y1170112D02*
X327499342Y693922D01*
X327499342Y693922D02*
X327499342Y-1210839D01*
X329880295Y4503445D02*
X329642200Y4027255D01*
X329642200Y4027255D02*
X329404104Y3789160D01*
X329404104Y3789160D02*
X328927914Y3551064D01*
X328927914Y3551064D02*
X327499342Y3551064D01*
X327499342Y3551064D02*
X327023152Y3789160D01*
X327023152Y3789160D02*
X326785057Y4027255D01*
X326785057Y4027255D02*
X326546961Y4503445D01*
X326546961Y4503445D02*
X326546961Y5217731D01*
X326546961Y5217731D02*
X326785057Y5693922D01*
X326785057Y5693922D02*
X327023152Y5932017D01*
X327023152Y5932017D02*
X327499342Y6170112D01*
X327499342Y6170112D02*
X328927914Y6170112D01*
X328927914Y6170112D02*
X329404104Y5932017D01*
X329404104Y5932017D02*
X329642200Y5693922D01*
X329642200Y5693922D02*
X329880295Y5217731D01*
X329880295Y5217731D02*
X329880295Y4503445D01*
X326546961Y7836779D02*
X329880295Y8789160D01*
X329880295Y8789160D02*
X327499342Y9741541D01*
X327499342Y9741541D02*
X329880295Y10693922D01*
X329880295Y10693922D02*
X326546961Y11646303D01*
X329880295Y19979636D02*
X329880295Y17122493D01*
X329880295Y18551065D02*
X324880295Y18551065D01*
X324880295Y18551065D02*
X325594580Y18074874D01*
X325594580Y18074874D02*
X326070771Y17598684D01*
X326070771Y17598684D02*
X326308866Y17122493D01*
D12*
D15*
X371054510Y16699171D02*
X371054510Y18199171D01*
X371054510Y18199171D02*
X371911653Y16699171D01*
X371911653Y16699171D02*
X371911653Y18199171D01*
X373268797Y17699171D02*
X373268797Y16699171D01*
X372625939Y17699171D02*
X372625939Y16913457D01*
X372625939Y16913457D02*
X372697368Y16770600D01*
X372697368Y16770600D02*
X372840225Y16699171D01*
X372840225Y16699171D02*
X373054511Y16699171D01*
X373054511Y16699171D02*
X373197368Y16770600D01*
X373197368Y16770600D02*
X373268797Y16842028D01*
X373983082Y16699171D02*
X373983082Y17699171D01*
X373983082Y17556314D02*
X374054511Y17627742D01*
X374054511Y17627742D02*
X374197368Y17699171D01*
X374197368Y17699171D02*
X374411654Y17699171D01*
X374411654Y17699171D02*
X374554511Y17627742D01*
X374554511Y17627742D02*
X374625940Y17484885D01*
X374625940Y17484885D02*
X374625940Y16699171D01*
X374625940Y17484885D02*
X374697368Y17627742D01*
X374697368Y17627742D02*
X374840225Y17699171D01*
X374840225Y17699171D02*
X375054511Y17699171D01*
X375054511Y17699171D02*
X375197368Y17627742D01*
X375197368Y17627742D02*
X375268797Y17484885D01*
X375268797Y17484885D02*
X375268797Y16699171D01*
X377840225Y16699171D02*
X377125939Y16699171D01*
X377125939Y16699171D02*
X377125939Y18199171D01*
X378554511Y16699171D02*
X378411654Y16770600D01*
X378411654Y16770600D02*
X378340225Y16842028D01*
X378340225Y16842028D02*
X378268797Y16984885D01*
X378268797Y16984885D02*
X378268797Y17413457D01*
X378268797Y17413457D02*
X378340225Y17556314D01*
X378340225Y17556314D02*
X378411654Y17627742D01*
X378411654Y17627742D02*
X378554511Y17699171D01*
X378554511Y17699171D02*
X378768797Y17699171D01*
X378768797Y17699171D02*
X378911654Y17627742D01*
X378911654Y17627742D02*
X378983083Y17556314D01*
X378983083Y17556314D02*
X379054511Y17413457D01*
X379054511Y17413457D02*
X379054511Y16984885D01*
X379054511Y16984885D02*
X378983083Y16842028D01*
X378983083Y16842028D02*
X378911654Y16770600D01*
X378911654Y16770600D02*
X378768797Y16699171D01*
X378768797Y16699171D02*
X378554511Y16699171D01*
X380340226Y16770600D02*
X380197368Y16699171D01*
X380197368Y16699171D02*
X379911654Y16699171D01*
X379911654Y16699171D02*
X379768797Y16770600D01*
X379768797Y16770600D02*
X379697368Y16842028D01*
X379697368Y16842028D02*
X379625940Y16984885D01*
X379625940Y16984885D02*
X379625940Y17413457D01*
X379625940Y17413457D02*
X379697368Y17556314D01*
X379697368Y17556314D02*
X379768797Y17627742D01*
X379768797Y17627742D02*
X379911654Y17699171D01*
X379911654Y17699171D02*
X380197368Y17699171D01*
X380197368Y17699171D02*
X380340226Y17627742D01*
X380983082Y16699171D02*
X380983082Y18199171D01*
X381125940Y17270600D02*
X381554511Y16699171D01*
X381554511Y17699171D02*
X380983082Y17127742D01*
D12*
D15*
X209231202Y-65514996D02*
X209231202Y-64014996D01*
X209231202Y-64014996D02*
X210088345Y-65514996D01*
X210088345Y-65514996D02*
X210088345Y-64014996D01*
X210802631Y-65514996D02*
X210802631Y-64514996D01*
X210802631Y-64014996D02*
X210731203Y-64086425D01*
X210731203Y-64086425D02*
X210802631Y-64157853D01*
X210802631Y-64157853D02*
X210874060Y-64086425D01*
X210874060Y-64086425D02*
X210802631Y-64014996D01*
X210802631Y-64014996D02*
X210802631Y-64157853D01*
X211516917Y-64514996D02*
X211516917Y-65514996D01*
X211516917Y-64657853D02*
X211588346Y-64586425D01*
X211588346Y-64586425D02*
X211731203Y-64514996D01*
X211731203Y-64514996D02*
X211945489Y-64514996D01*
X211945489Y-64514996D02*
X212088346Y-64586425D01*
X212088346Y-64586425D02*
X212159775Y-64729282D01*
X212159775Y-64729282D02*
X212159775Y-65514996D01*
X213445489Y-65443568D02*
X213302632Y-65514996D01*
X213302632Y-65514996D02*
X213016918Y-65514996D01*
X213016918Y-65514996D02*
X212874060Y-65443568D01*
X212874060Y-65443568D02*
X212802632Y-65300710D01*
X212802632Y-65300710D02*
X212802632Y-64729282D01*
X212802632Y-64729282D02*
X212874060Y-64586425D01*
X212874060Y-64586425D02*
X213016918Y-64514996D01*
X213016918Y-64514996D02*
X213302632Y-64514996D01*
X213302632Y-64514996D02*
X213445489Y-64586425D01*
X213445489Y-64586425D02*
X213516918Y-64729282D01*
X213516918Y-64729282D02*
X213516918Y-64872139D01*
X213516918Y-64872139D02*
X212802632Y-65014996D01*
X210731203Y-67858484D02*
X210945489Y-67929912D01*
X210945489Y-67929912D02*
X211302631Y-67929912D01*
X211302631Y-67929912D02*
X211445489Y-67858484D01*
X211445489Y-67858484D02*
X211516917Y-67787055D01*
X211516917Y-67787055D02*
X211588346Y-67644198D01*
X211588346Y-67644198D02*
X211588346Y-67501341D01*
X211588346Y-67501341D02*
X211516917Y-67358484D01*
X211516917Y-67358484D02*
X211445489Y-67287055D01*
X211445489Y-67287055D02*
X211302631Y-67215626D01*
X211302631Y-67215626D02*
X211016917Y-67144198D01*
X211016917Y-67144198D02*
X210874060Y-67072769D01*
X210874060Y-67072769D02*
X210802631Y-67001341D01*
X210802631Y-67001341D02*
X210731203Y-66858484D01*
X210731203Y-66858484D02*
X210731203Y-66715626D01*
X210731203Y-66715626D02*
X210802631Y-66572769D01*
X210802631Y-66572769D02*
X210874060Y-66501341D01*
X210874060Y-66501341D02*
X211016917Y-66429912D01*
X211016917Y-66429912D02*
X211374060Y-66429912D01*
X211374060Y-66429912D02*
X211588346Y-66501341D01*
X212231202Y-67929912D02*
X212231202Y-66929912D01*
X212231202Y-66429912D02*
X212159774Y-66501341D01*
X212159774Y-66501341D02*
X212231202Y-66572769D01*
X212231202Y-66572769D02*
X212302631Y-66501341D01*
X212302631Y-66501341D02*
X212231202Y-66429912D01*
X212231202Y-66429912D02*
X212231202Y-66572769D01*
X212802631Y-67929912D02*
X213588346Y-66929912D01*
X212802631Y-66929912D02*
X213588346Y-67929912D01*
X207945490Y-68844828D02*
X208802633Y-68844828D01*
X208374061Y-70344828D02*
X208374061Y-68844828D01*
X209302632Y-70344828D02*
X209302632Y-68844828D01*
X209945490Y-70344828D02*
X209945490Y-69559114D01*
X209945490Y-69559114D02*
X209874061Y-69416257D01*
X209874061Y-69416257D02*
X209731204Y-69344828D01*
X209731204Y-69344828D02*
X209516918Y-69344828D01*
X209516918Y-69344828D02*
X209374061Y-69416257D01*
X209374061Y-69416257D02*
X209302632Y-69487685D01*
X210659775Y-70344828D02*
X210659775Y-69344828D01*
X210659775Y-69630542D02*
X210731204Y-69487685D01*
X210731204Y-69487685D02*
X210802633Y-69416257D01*
X210802633Y-69416257D02*
X210945490Y-69344828D01*
X210945490Y-69344828D02*
X211088347Y-69344828D01*
X212159775Y-70273400D02*
X212016918Y-70344828D01*
X212016918Y-70344828D02*
X211731204Y-70344828D01*
X211731204Y-70344828D02*
X211588346Y-70273400D01*
X211588346Y-70273400D02*
X211516918Y-70130542D01*
X211516918Y-70130542D02*
X211516918Y-69559114D01*
X211516918Y-69559114D02*
X211588346Y-69416257D01*
X211588346Y-69416257D02*
X211731204Y-69344828D01*
X211731204Y-69344828D02*
X212016918Y-69344828D01*
X212016918Y-69344828D02*
X212159775Y-69416257D01*
X212159775Y-69416257D02*
X212231204Y-69559114D01*
X212231204Y-69559114D02*
X212231204Y-69701971D01*
X212231204Y-69701971D02*
X211516918Y-69844828D01*
X213445489Y-70273400D02*
X213302632Y-70344828D01*
X213302632Y-70344828D02*
X213016918Y-70344828D01*
X213016918Y-70344828D02*
X212874060Y-70273400D01*
X212874060Y-70273400D02*
X212802632Y-70130542D01*
X212802632Y-70130542D02*
X212802632Y-69559114D01*
X212802632Y-69559114D02*
X212874060Y-69416257D01*
X212874060Y-69416257D02*
X213016918Y-69344828D01*
X213016918Y-69344828D02*
X213302632Y-69344828D01*
X213302632Y-69344828D02*
X213445489Y-69416257D01*
X213445489Y-69416257D02*
X213516918Y-69559114D01*
X213516918Y-69559114D02*
X213516918Y-69701971D01*
X213516918Y-69701971D02*
X212802632Y-69844828D01*
D12*
D15*
X428054510Y16699171D02*
X428054510Y18199171D01*
X428054510Y18199171D02*
X428411653Y18199171D01*
X428411653Y18199171D02*
X428625939Y18127742D01*
X428625939Y18127742D02*
X428768796Y17984885D01*
X428768796Y17984885D02*
X428840225Y17842028D01*
X428840225Y17842028D02*
X428911653Y17556314D01*
X428911653Y17556314D02*
X428911653Y17342028D01*
X428911653Y17342028D02*
X428840225Y17056314D01*
X428840225Y17056314D02*
X428768796Y16913457D01*
X428768796Y16913457D02*
X428625939Y16770600D01*
X428625939Y16770600D02*
X428411653Y16699171D01*
X428411653Y16699171D02*
X428054510Y16699171D01*
X429554510Y16699171D02*
X429554510Y17699171D01*
X429554510Y18199171D02*
X429483082Y18127742D01*
X429483082Y18127742D02*
X429554510Y18056314D01*
X429554510Y18056314D02*
X429625939Y18127742D01*
X429625939Y18127742D02*
X429554510Y18199171D01*
X429554510Y18199171D02*
X429554510Y18056314D01*
X430125939Y17699171D02*
X430483082Y16699171D01*
X430483082Y16699171D02*
X430840225Y17699171D01*
X431411653Y16699171D02*
X431411653Y17699171D01*
X431411653Y18199171D02*
X431340225Y18127742D01*
X431340225Y18127742D02*
X431411653Y18056314D01*
X431411653Y18056314D02*
X431483082Y18127742D01*
X431483082Y18127742D02*
X431411653Y18199171D01*
X431411653Y18199171D02*
X431411653Y18056314D01*
X432054511Y16770600D02*
X432197368Y16699171D01*
X432197368Y16699171D02*
X432483082Y16699171D01*
X432483082Y16699171D02*
X432625939Y16770600D01*
X432625939Y16770600D02*
X432697368Y16913457D01*
X432697368Y16913457D02*
X432697368Y16984885D01*
X432697368Y16984885D02*
X432625939Y17127742D01*
X432625939Y17127742D02*
X432483082Y17199171D01*
X432483082Y17199171D02*
X432268797Y17199171D01*
X432268797Y17199171D02*
X432125939Y17270600D01*
X432125939Y17270600D02*
X432054511Y17413457D01*
X432054511Y17413457D02*
X432054511Y17484885D01*
X432054511Y17484885D02*
X432125939Y17627742D01*
X432125939Y17627742D02*
X432268797Y17699171D01*
X432268797Y17699171D02*
X432483082Y17699171D01*
X432483082Y17699171D02*
X432625939Y17627742D01*
X433340225Y16699171D02*
X433340225Y17699171D01*
X433340225Y18199171D02*
X433268797Y18127742D01*
X433268797Y18127742D02*
X433340225Y18056314D01*
X433340225Y18056314D02*
X433411654Y18127742D01*
X433411654Y18127742D02*
X433340225Y18199171D01*
X433340225Y18199171D02*
X433340225Y18056314D01*
X434268797Y16699171D02*
X434125940Y16770600D01*
X434125940Y16770600D02*
X434054511Y16842028D01*
X434054511Y16842028D02*
X433983083Y16984885D01*
X433983083Y16984885D02*
X433983083Y17413457D01*
X433983083Y17413457D02*
X434054511Y17556314D01*
X434054511Y17556314D02*
X434125940Y17627742D01*
X434125940Y17627742D02*
X434268797Y17699171D01*
X434268797Y17699171D02*
X434483083Y17699171D01*
X434483083Y17699171D02*
X434625940Y17627742D01*
X434625940Y17627742D02*
X434697369Y17556314D01*
X434697369Y17556314D02*
X434768797Y17413457D01*
X434768797Y17413457D02*
X434768797Y16984885D01*
X434768797Y16984885D02*
X434697369Y16842028D01*
X434697369Y16842028D02*
X434625940Y16770600D01*
X434625940Y16770600D02*
X434483083Y16699171D01*
X434483083Y16699171D02*
X434268797Y16699171D01*
X435411654Y17699171D02*
X435411654Y16699171D01*
X435411654Y17556314D02*
X435483083Y17627742D01*
X435483083Y17627742D02*
X435625940Y17699171D01*
X435625940Y17699171D02*
X435840226Y17699171D01*
X435840226Y17699171D02*
X435983083Y17627742D01*
X435983083Y17627742D02*
X436054512Y17484885D01*
X436054512Y17484885D02*
X436054512Y16699171D01*
D12*
D15*
X114411653Y-66201971D02*
X114340225Y-66273400D01*
X114340225Y-66273400D02*
X114125939Y-66344828D01*
X114125939Y-66344828D02*
X113983082Y-66344828D01*
X113983082Y-66344828D02*
X113768796Y-66273400D01*
X113768796Y-66273400D02*
X113625939Y-66130542D01*
X113625939Y-66130542D02*
X113554510Y-65987685D01*
X113554510Y-65987685D02*
X113483082Y-65701971D01*
X113483082Y-65701971D02*
X113483082Y-65487685D01*
X113483082Y-65487685D02*
X113554510Y-65201971D01*
X113554510Y-65201971D02*
X113625939Y-65059114D01*
X113625939Y-65059114D02*
X113768796Y-64916257D01*
X113768796Y-64916257D02*
X113983082Y-64844828D01*
X113983082Y-64844828D02*
X114125939Y-64844828D01*
X114125939Y-64844828D02*
X114340225Y-64916257D01*
X114340225Y-64916257D02*
X114411653Y-64987685D01*
X115268796Y-66344828D02*
X115125939Y-66273400D01*
X115125939Y-66273400D02*
X115054510Y-66201971D01*
X115054510Y-66201971D02*
X114983082Y-66059114D01*
X114983082Y-66059114D02*
X114983082Y-65630542D01*
X114983082Y-65630542D02*
X115054510Y-65487685D01*
X115054510Y-65487685D02*
X115125939Y-65416257D01*
X115125939Y-65416257D02*
X115268796Y-65344828D01*
X115268796Y-65344828D02*
X115483082Y-65344828D01*
X115483082Y-65344828D02*
X115625939Y-65416257D01*
X115625939Y-65416257D02*
X115697368Y-65487685D01*
X115697368Y-65487685D02*
X115768796Y-65630542D01*
X115768796Y-65630542D02*
X115768796Y-66059114D01*
X115768796Y-66059114D02*
X115697368Y-66201971D01*
X115697368Y-66201971D02*
X115625939Y-66273400D01*
X115625939Y-66273400D02*
X115483082Y-66344828D01*
X115483082Y-66344828D02*
X115268796Y-66344828D01*
X116625939Y-66344828D02*
X116483082Y-66273400D01*
X116483082Y-66273400D02*
X116411653Y-66130542D01*
X116411653Y-66130542D02*
X116411653Y-64844828D01*
X118268796Y-64987685D02*
X118340224Y-64916257D01*
X118340224Y-64916257D02*
X118483082Y-64844828D01*
X118483082Y-64844828D02*
X118840224Y-64844828D01*
X118840224Y-64844828D02*
X118983082Y-64916257D01*
X118983082Y-64916257D02*
X119054510Y-64987685D01*
X119054510Y-64987685D02*
X119125939Y-65130542D01*
X119125939Y-65130542D02*
X119125939Y-65273400D01*
X119125939Y-65273400D02*
X119054510Y-65487685D01*
X119054510Y-65487685D02*
X118197367Y-66344828D01*
X118197367Y-66344828D02*
X119125939Y-66344828D01*
D12*
D15*
X58911653Y-66201971D02*
X58840225Y-66273400D01*
X58840225Y-66273400D02*
X58625939Y-66344828D01*
X58625939Y-66344828D02*
X58483082Y-66344828D01*
X58483082Y-66344828D02*
X58268796Y-66273400D01*
X58268796Y-66273400D02*
X58125939Y-66130542D01*
X58125939Y-66130542D02*
X58054510Y-65987685D01*
X58054510Y-65987685D02*
X57983082Y-65701971D01*
X57983082Y-65701971D02*
X57983082Y-65487685D01*
X57983082Y-65487685D02*
X58054510Y-65201971D01*
X58054510Y-65201971D02*
X58125939Y-65059114D01*
X58125939Y-65059114D02*
X58268796Y-64916257D01*
X58268796Y-64916257D02*
X58483082Y-64844828D01*
X58483082Y-64844828D02*
X58625939Y-64844828D01*
X58625939Y-64844828D02*
X58840225Y-64916257D01*
X58840225Y-64916257D02*
X58911653Y-64987685D01*
X59768796Y-66344828D02*
X59625939Y-66273400D01*
X59625939Y-66273400D02*
X59554510Y-66201971D01*
X59554510Y-66201971D02*
X59483082Y-66059114D01*
X59483082Y-66059114D02*
X59483082Y-65630542D01*
X59483082Y-65630542D02*
X59554510Y-65487685D01*
X59554510Y-65487685D02*
X59625939Y-65416257D01*
X59625939Y-65416257D02*
X59768796Y-65344828D01*
X59768796Y-65344828D02*
X59983082Y-65344828D01*
X59983082Y-65344828D02*
X60125939Y-65416257D01*
X60125939Y-65416257D02*
X60197368Y-65487685D01*
X60197368Y-65487685D02*
X60268796Y-65630542D01*
X60268796Y-65630542D02*
X60268796Y-66059114D01*
X60268796Y-66059114D02*
X60197368Y-66201971D01*
X60197368Y-66201971D02*
X60125939Y-66273400D01*
X60125939Y-66273400D02*
X59983082Y-66344828D01*
X59983082Y-66344828D02*
X59768796Y-66344828D01*
X61125939Y-66344828D02*
X60983082Y-66273400D01*
X60983082Y-66273400D02*
X60911653Y-66130542D01*
X60911653Y-66130542D02*
X60911653Y-64844828D01*
X63625939Y-66344828D02*
X62768796Y-66344828D01*
X63197367Y-66344828D02*
X63197367Y-64844828D01*
X63197367Y-64844828D02*
X63054510Y-65059114D01*
X63054510Y-65059114D02*
X62911653Y-65201971D01*
X62911653Y-65201971D02*
X62768796Y-65273400D01*
D12*
D15*
X170411653Y-66201971D02*
X170340225Y-66273400D01*
X170340225Y-66273400D02*
X170125939Y-66344828D01*
X170125939Y-66344828D02*
X169983082Y-66344828D01*
X169983082Y-66344828D02*
X169768796Y-66273400D01*
X169768796Y-66273400D02*
X169625939Y-66130542D01*
X169625939Y-66130542D02*
X169554510Y-65987685D01*
X169554510Y-65987685D02*
X169483082Y-65701971D01*
X169483082Y-65701971D02*
X169483082Y-65487685D01*
X169483082Y-65487685D02*
X169554510Y-65201971D01*
X169554510Y-65201971D02*
X169625939Y-65059114D01*
X169625939Y-65059114D02*
X169768796Y-64916257D01*
X169768796Y-64916257D02*
X169983082Y-64844828D01*
X169983082Y-64844828D02*
X170125939Y-64844828D01*
X170125939Y-64844828D02*
X170340225Y-64916257D01*
X170340225Y-64916257D02*
X170411653Y-64987685D01*
X171268796Y-66344828D02*
X171125939Y-66273400D01*
X171125939Y-66273400D02*
X171054510Y-66201971D01*
X171054510Y-66201971D02*
X170983082Y-66059114D01*
X170983082Y-66059114D02*
X170983082Y-65630542D01*
X170983082Y-65630542D02*
X171054510Y-65487685D01*
X171054510Y-65487685D02*
X171125939Y-65416257D01*
X171125939Y-65416257D02*
X171268796Y-65344828D01*
X171268796Y-65344828D02*
X171483082Y-65344828D01*
X171483082Y-65344828D02*
X171625939Y-65416257D01*
X171625939Y-65416257D02*
X171697368Y-65487685D01*
X171697368Y-65487685D02*
X171768796Y-65630542D01*
X171768796Y-65630542D02*
X171768796Y-66059114D01*
X171768796Y-66059114D02*
X171697368Y-66201971D01*
X171697368Y-66201971D02*
X171625939Y-66273400D01*
X171625939Y-66273400D02*
X171483082Y-66344828D01*
X171483082Y-66344828D02*
X171268796Y-66344828D01*
X172625939Y-66344828D02*
X172483082Y-66273400D01*
X172483082Y-66273400D02*
X172411653Y-66130542D01*
X172411653Y-66130542D02*
X172411653Y-64844828D01*
X174197367Y-64844828D02*
X175125939Y-64844828D01*
X175125939Y-64844828D02*
X174625939Y-65416257D01*
X174625939Y-65416257D02*
X174840224Y-65416257D01*
X174840224Y-65416257D02*
X174983082Y-65487685D01*
X174983082Y-65487685D02*
X175054510Y-65559114D01*
X175054510Y-65559114D02*
X175125939Y-65701971D01*
X175125939Y-65701971D02*
X175125939Y-66059114D01*
X175125939Y-66059114D02*
X175054510Y-66201971D01*
X175054510Y-66201971D02*
X174983082Y-66273400D01*
X174983082Y-66273400D02*
X174840224Y-66344828D01*
X174840224Y-66344828D02*
X174411653Y-66344828D01*
X174411653Y-66344828D02*
X174268796Y-66273400D01*
X174268796Y-66273400D02*
X174197367Y-66201971D01*
D12*
D15*
X96088347Y-65443568D02*
X96302633Y-65514996D01*
X96302633Y-65514996D02*
X96659775Y-65514996D01*
X96659775Y-65514996D02*
X96802633Y-65443568D01*
X96802633Y-65443568D02*
X96874061Y-65372139D01*
X96874061Y-65372139D02*
X96945490Y-65229282D01*
X96945490Y-65229282D02*
X96945490Y-65086425D01*
X96945490Y-65086425D02*
X96874061Y-64943568D01*
X96874061Y-64943568D02*
X96802633Y-64872139D01*
X96802633Y-64872139D02*
X96659775Y-64800710D01*
X96659775Y-64800710D02*
X96374061Y-64729282D01*
X96374061Y-64729282D02*
X96231204Y-64657853D01*
X96231204Y-64657853D02*
X96159775Y-64586425D01*
X96159775Y-64586425D02*
X96088347Y-64443568D01*
X96088347Y-64443568D02*
X96088347Y-64300710D01*
X96088347Y-64300710D02*
X96159775Y-64157853D01*
X96159775Y-64157853D02*
X96231204Y-64086425D01*
X96231204Y-64086425D02*
X96374061Y-64014996D01*
X96374061Y-64014996D02*
X96731204Y-64014996D01*
X96731204Y-64014996D02*
X96945490Y-64086425D01*
X98159775Y-65443568D02*
X98016918Y-65514996D01*
X98016918Y-65514996D02*
X97731204Y-65514996D01*
X97731204Y-65514996D02*
X97588346Y-65443568D01*
X97588346Y-65443568D02*
X97516918Y-65300710D01*
X97516918Y-65300710D02*
X97516918Y-64729282D01*
X97516918Y-64729282D02*
X97588346Y-64586425D01*
X97588346Y-64586425D02*
X97731204Y-64514996D01*
X97731204Y-64514996D02*
X98016918Y-64514996D01*
X98016918Y-64514996D02*
X98159775Y-64586425D01*
X98159775Y-64586425D02*
X98231204Y-64729282D01*
X98231204Y-64729282D02*
X98231204Y-64872139D01*
X98231204Y-64872139D02*
X97516918Y-65014996D01*
X98731203Y-64514996D02*
X99088346Y-65514996D01*
X99088346Y-65514996D02*
X99445489Y-64514996D01*
X100588346Y-65443568D02*
X100445489Y-65514996D01*
X100445489Y-65514996D02*
X100159775Y-65514996D01*
X100159775Y-65514996D02*
X100016917Y-65443568D01*
X100016917Y-65443568D02*
X99945489Y-65300710D01*
X99945489Y-65300710D02*
X99945489Y-64729282D01*
X99945489Y-64729282D02*
X100016917Y-64586425D01*
X100016917Y-64586425D02*
X100159775Y-64514996D01*
X100159775Y-64514996D02*
X100445489Y-64514996D01*
X100445489Y-64514996D02*
X100588346Y-64586425D01*
X100588346Y-64586425D02*
X100659775Y-64729282D01*
X100659775Y-64729282D02*
X100659775Y-64872139D01*
X100659775Y-64872139D02*
X99945489Y-65014996D01*
X101302631Y-64514996D02*
X101302631Y-65514996D01*
X101302631Y-64657853D02*
X101374060Y-64586425D01*
X101374060Y-64586425D02*
X101516917Y-64514996D01*
X101516917Y-64514996D02*
X101731203Y-64514996D01*
X101731203Y-64514996D02*
X101874060Y-64586425D01*
X101874060Y-64586425D02*
X101945489Y-64729282D01*
X101945489Y-64729282D02*
X101945489Y-65514996D01*
X98231203Y-67144198D02*
X97731203Y-67144198D01*
X97731203Y-67929912D02*
X97731203Y-66429912D01*
X97731203Y-66429912D02*
X98445489Y-66429912D01*
X99231203Y-67929912D02*
X99088346Y-67858484D01*
X99088346Y-67858484D02*
X99016917Y-67787055D01*
X99016917Y-67787055D02*
X98945489Y-67644198D01*
X98945489Y-67644198D02*
X98945489Y-67215626D01*
X98945489Y-67215626D02*
X99016917Y-67072769D01*
X99016917Y-67072769D02*
X99088346Y-67001341D01*
X99088346Y-67001341D02*
X99231203Y-66929912D01*
X99231203Y-66929912D02*
X99445489Y-66929912D01*
X99445489Y-66929912D02*
X99588346Y-67001341D01*
X99588346Y-67001341D02*
X99659775Y-67072769D01*
X99659775Y-67072769D02*
X99731203Y-67215626D01*
X99731203Y-67215626D02*
X99731203Y-67644198D01*
X99731203Y-67644198D02*
X99659775Y-67787055D01*
X99659775Y-67787055D02*
X99588346Y-67858484D01*
X99588346Y-67858484D02*
X99445489Y-67929912D01*
X99445489Y-67929912D02*
X99231203Y-67929912D01*
X101016918Y-66929912D02*
X101016918Y-67929912D01*
X100374060Y-66929912D02*
X100374060Y-67715626D01*
X100374060Y-67715626D02*
X100445489Y-67858484D01*
X100445489Y-67858484D02*
X100588346Y-67929912D01*
X100588346Y-67929912D02*
X100802632Y-67929912D01*
X100802632Y-67929912D02*
X100945489Y-67858484D01*
X100945489Y-67858484D02*
X101016918Y-67787055D01*
X101731203Y-67929912D02*
X101731203Y-66929912D01*
X101731203Y-67215626D02*
X101802632Y-67072769D01*
X101802632Y-67072769D02*
X101874061Y-67001341D01*
X101874061Y-67001341D02*
X102016918Y-66929912D01*
X102016918Y-66929912D02*
X102159775Y-66929912D01*
X98731203Y-68844828D02*
X99016917Y-68844828D01*
X99016917Y-68844828D02*
X99159774Y-68916257D01*
X99159774Y-68916257D02*
X99302631Y-69059114D01*
X99302631Y-69059114D02*
X99374060Y-69344828D01*
X99374060Y-69344828D02*
X99374060Y-69844828D01*
X99374060Y-69844828D02*
X99302631Y-70130542D01*
X99302631Y-70130542D02*
X99159774Y-70273400D01*
X99159774Y-70273400D02*
X99016917Y-70344828D01*
X99016917Y-70344828D02*
X98731203Y-70344828D01*
X98731203Y-70344828D02*
X98588346Y-70273400D01*
X98588346Y-70273400D02*
X98445488Y-70130542D01*
X98445488Y-70130542D02*
X98374060Y-69844828D01*
X98374060Y-69844828D02*
X98374060Y-69344828D01*
X98374060Y-69344828D02*
X98445488Y-69059114D01*
X98445488Y-69059114D02*
X98588346Y-68916257D01*
X98588346Y-68916257D02*
X98731203Y-68844828D01*
X100016917Y-69344828D02*
X100016917Y-70344828D01*
X100016917Y-69487685D02*
X100088346Y-69416257D01*
X100088346Y-69416257D02*
X100231203Y-69344828D01*
X100231203Y-69344828D02*
X100445489Y-69344828D01*
X100445489Y-69344828D02*
X100588346Y-69416257D01*
X100588346Y-69416257D02*
X100659775Y-69559114D01*
X100659775Y-69559114D02*
X100659775Y-70344828D01*
X101945489Y-70273400D02*
X101802632Y-70344828D01*
X101802632Y-70344828D02*
X101516918Y-70344828D01*
X101516918Y-70344828D02*
X101374060Y-70273400D01*
X101374060Y-70273400D02*
X101302632Y-70130542D01*
X101302632Y-70130542D02*
X101302632Y-69559114D01*
X101302632Y-69559114D02*
X101374060Y-69416257D01*
X101374060Y-69416257D02*
X101516918Y-69344828D01*
X101516918Y-69344828D02*
X101802632Y-69344828D01*
X101802632Y-69344828D02*
X101945489Y-69416257D01*
X101945489Y-69416257D02*
X102016918Y-69559114D01*
X102016918Y-69559114D02*
X102016918Y-69701971D01*
X102016918Y-69701971D02*
X101302632Y-69844828D01*
D12*
D15*
X503911653Y16842028D02*
X503840225Y16770600D01*
X503840225Y16770600D02*
X503625939Y16699171D01*
X503625939Y16699171D02*
X503483082Y16699171D01*
X503483082Y16699171D02*
X503268796Y16770600D01*
X503268796Y16770600D02*
X503125939Y16913457D01*
X503125939Y16913457D02*
X503054510Y17056314D01*
X503054510Y17056314D02*
X502983082Y17342028D01*
X502983082Y17342028D02*
X502983082Y17556314D01*
X502983082Y17556314D02*
X503054510Y17842028D01*
X503054510Y17842028D02*
X503125939Y17984885D01*
X503125939Y17984885D02*
X503268796Y18127742D01*
X503268796Y18127742D02*
X503483082Y18199171D01*
X503483082Y18199171D02*
X503625939Y18199171D01*
X503625939Y18199171D02*
X503840225Y18127742D01*
X503840225Y18127742D02*
X503911653Y18056314D01*
X504768796Y16699171D02*
X504625939Y16770600D01*
X504625939Y16770600D02*
X504554510Y16842028D01*
X504554510Y16842028D02*
X504483082Y16984885D01*
X504483082Y16984885D02*
X504483082Y17413457D01*
X504483082Y17413457D02*
X504554510Y17556314D01*
X504554510Y17556314D02*
X504625939Y17627742D01*
X504625939Y17627742D02*
X504768796Y17699171D01*
X504768796Y17699171D02*
X504983082Y17699171D01*
X504983082Y17699171D02*
X505125939Y17627742D01*
X505125939Y17627742D02*
X505197368Y17556314D01*
X505197368Y17556314D02*
X505268796Y17413457D01*
X505268796Y17413457D02*
X505268796Y16984885D01*
X505268796Y16984885D02*
X505197368Y16842028D01*
X505197368Y16842028D02*
X505125939Y16770600D01*
X505125939Y16770600D02*
X504983082Y16699171D01*
X504983082Y16699171D02*
X504768796Y16699171D01*
X506125939Y16699171D02*
X505983082Y16770600D01*
X505983082Y16770600D02*
X505911653Y16913457D01*
X505911653Y16913457D02*
X505911653Y18199171D01*
X508483082Y17699171D02*
X508483082Y16699171D01*
X508125939Y18270600D02*
X507768796Y17199171D01*
X507768796Y17199171D02*
X508697367Y17199171D01*
D12*
D15*
X152516916Y-64729282D02*
X153016916Y-64729282D01*
X153231202Y-65514996D02*
X152516916Y-65514996D01*
X152516916Y-65514996D02*
X152516916Y-64014996D01*
X152516916Y-64014996D02*
X153231202Y-64014996D01*
X153874059Y-65514996D02*
X153874059Y-64514996D01*
X153874059Y-64014996D02*
X153802631Y-64086425D01*
X153802631Y-64086425D02*
X153874059Y-64157853D01*
X153874059Y-64157853D02*
X153945488Y-64086425D01*
X153945488Y-64086425D02*
X153874059Y-64014996D01*
X153874059Y-64014996D02*
X153874059Y-64157853D01*
X155231203Y-64514996D02*
X155231203Y-65729282D01*
X155231203Y-65729282D02*
X155159774Y-65872139D01*
X155159774Y-65872139D02*
X155088345Y-65943568D01*
X155088345Y-65943568D02*
X154945488Y-66014996D01*
X154945488Y-66014996D02*
X154731203Y-66014996D01*
X154731203Y-66014996D02*
X154588345Y-65943568D01*
X155231203Y-65443568D02*
X155088345Y-65514996D01*
X155088345Y-65514996D02*
X154802631Y-65514996D01*
X154802631Y-65514996D02*
X154659774Y-65443568D01*
X154659774Y-65443568D02*
X154588345Y-65372139D01*
X154588345Y-65372139D02*
X154516917Y-65229282D01*
X154516917Y-65229282D02*
X154516917Y-64800710D01*
X154516917Y-64800710D02*
X154588345Y-64657853D01*
X154588345Y-64657853D02*
X154659774Y-64586425D01*
X154659774Y-64586425D02*
X154802631Y-64514996D01*
X154802631Y-64514996D02*
X155088345Y-64514996D01*
X155088345Y-64514996D02*
X155231203Y-64586425D01*
X155945488Y-65514996D02*
X155945488Y-64014996D01*
X156588346Y-65514996D02*
X156588346Y-64729282D01*
X156588346Y-64729282D02*
X156516917Y-64586425D01*
X156516917Y-64586425D02*
X156374060Y-64514996D01*
X156374060Y-64514996D02*
X156159774Y-64514996D01*
X156159774Y-64514996D02*
X156016917Y-64586425D01*
X156016917Y-64586425D02*
X155945488Y-64657853D01*
X157088346Y-64514996D02*
X157659774Y-64514996D01*
X157302631Y-64014996D02*
X157302631Y-65300710D01*
X157302631Y-65300710D02*
X157374060Y-65443568D01*
X157374060Y-65443568D02*
X157516917Y-65514996D01*
X157516917Y-65514996D02*
X157659774Y-65514996D01*
X154231203Y-67144198D02*
X153731203Y-67144198D01*
X153731203Y-67929912D02*
X153731203Y-66429912D01*
X153731203Y-66429912D02*
X154445489Y-66429912D01*
X155016917Y-67929912D02*
X155016917Y-66929912D01*
X155016917Y-66429912D02*
X154945489Y-66501341D01*
X154945489Y-66501341D02*
X155016917Y-66572769D01*
X155016917Y-66572769D02*
X155088346Y-66501341D01*
X155088346Y-66501341D02*
X155016917Y-66429912D01*
X155016917Y-66429912D02*
X155016917Y-66572769D01*
X155588346Y-66929912D02*
X155945489Y-67929912D01*
X155945489Y-67929912D02*
X156302632Y-66929912D01*
X157445489Y-67858484D02*
X157302632Y-67929912D01*
X157302632Y-67929912D02*
X157016918Y-67929912D01*
X157016918Y-67929912D02*
X156874060Y-67858484D01*
X156874060Y-67858484D02*
X156802632Y-67715626D01*
X156802632Y-67715626D02*
X156802632Y-67144198D01*
X156802632Y-67144198D02*
X156874060Y-67001341D01*
X156874060Y-67001341D02*
X157016918Y-66929912D01*
X157016918Y-66929912D02*
X157302632Y-66929912D01*
X157302632Y-66929912D02*
X157445489Y-67001341D01*
X157445489Y-67001341D02*
X157516918Y-67144198D01*
X157516918Y-67144198D02*
X157516918Y-67287055D01*
X157516918Y-67287055D02*
X156802632Y-67429912D01*
X153874060Y-68844828D02*
X154731203Y-68844828D01*
X154302631Y-70344828D02*
X154302631Y-68844828D01*
X155088345Y-69344828D02*
X155374060Y-70344828D01*
X155374060Y-70344828D02*
X155659774Y-69630542D01*
X155659774Y-69630542D02*
X155945488Y-70344828D01*
X155945488Y-70344828D02*
X156231202Y-69344828D01*
X157016917Y-70344828D02*
X156874060Y-70273400D01*
X156874060Y-70273400D02*
X156802631Y-70201971D01*
X156802631Y-70201971D02*
X156731203Y-70059114D01*
X156731203Y-70059114D02*
X156731203Y-69630542D01*
X156731203Y-69630542D02*
X156802631Y-69487685D01*
X156802631Y-69487685D02*
X156874060Y-69416257D01*
X156874060Y-69416257D02*
X157016917Y-69344828D01*
X157016917Y-69344828D02*
X157231203Y-69344828D01*
X157231203Y-69344828D02*
X157374060Y-69416257D01*
X157374060Y-69416257D02*
X157445489Y-69487685D01*
X157445489Y-69487685D02*
X157516917Y-69630542D01*
X157516917Y-69630542D02*
X157516917Y-70059114D01*
X157516917Y-70059114D02*
X157445489Y-70201971D01*
X157445489Y-70201971D02*
X157374060Y-70273400D01*
X157374060Y-70273400D02*
X157231203Y-70344828D01*
X157231203Y-70344828D02*
X157016917Y-70344828D01*
D12*
D15*
X332408653Y-158201971D02*
X332337225Y-158273400D01*
X332337225Y-158273400D02*
X332122939Y-158344828D01*
X332122939Y-158344828D02*
X331980082Y-158344828D01*
X331980082Y-158344828D02*
X331765796Y-158273400D01*
X331765796Y-158273400D02*
X331622939Y-158130542D01*
X331622939Y-158130542D02*
X331551510Y-157987685D01*
X331551510Y-157987685D02*
X331480082Y-157701971D01*
X331480082Y-157701971D02*
X331480082Y-157487685D01*
X331480082Y-157487685D02*
X331551510Y-157201971D01*
X331551510Y-157201971D02*
X331622939Y-157059114D01*
X331622939Y-157059114D02*
X331765796Y-156916257D01*
X331765796Y-156916257D02*
X331980082Y-156844828D01*
X331980082Y-156844828D02*
X332122939Y-156844828D01*
X332122939Y-156844828D02*
X332337225Y-156916257D01*
X332337225Y-156916257D02*
X332408653Y-156987685D01*
X333265796Y-158344828D02*
X333122939Y-158273400D01*
X333122939Y-158273400D02*
X333051510Y-158201971D01*
X333051510Y-158201971D02*
X332980082Y-158059114D01*
X332980082Y-158059114D02*
X332980082Y-157630542D01*
X332980082Y-157630542D02*
X333051510Y-157487685D01*
X333051510Y-157487685D02*
X333122939Y-157416257D01*
X333122939Y-157416257D02*
X333265796Y-157344828D01*
X333265796Y-157344828D02*
X333480082Y-157344828D01*
X333480082Y-157344828D02*
X333622939Y-157416257D01*
X333622939Y-157416257D02*
X333694368Y-157487685D01*
X333694368Y-157487685D02*
X333765796Y-157630542D01*
X333765796Y-157630542D02*
X333765796Y-158059114D01*
X333765796Y-158059114D02*
X333694368Y-158201971D01*
X333694368Y-158201971D02*
X333622939Y-158273400D01*
X333622939Y-158273400D02*
X333480082Y-158344828D01*
X333480082Y-158344828D02*
X333265796Y-158344828D01*
X334622939Y-158344828D02*
X334480082Y-158273400D01*
X334480082Y-158273400D02*
X334408653Y-158130542D01*
X334408653Y-158130542D02*
X334408653Y-156844828D01*
X336980082Y-157344828D02*
X336980082Y-158344828D01*
X336622939Y-156773400D02*
X336265796Y-157844828D01*
X336265796Y-157844828D02*
X337194367Y-157844828D01*
X337765795Y-157773400D02*
X338908653Y-157773400D01*
X339551510Y-156987685D02*
X339622938Y-156916257D01*
X339622938Y-156916257D02*
X339765796Y-156844828D01*
X339765796Y-156844828D02*
X340122938Y-156844828D01*
X340122938Y-156844828D02*
X340265796Y-156916257D01*
X340265796Y-156916257D02*
X340337224Y-156987685D01*
X340337224Y-156987685D02*
X340408653Y-157130542D01*
X340408653Y-157130542D02*
X340408653Y-157273400D01*
X340408653Y-157273400D02*
X340337224Y-157487685D01*
X340337224Y-157487685D02*
X339480081Y-158344828D01*
X339480081Y-158344828D02*
X340408653Y-158344828D01*
D17*
%TO.P,D1,1,K*%
%TO.N,Row 1*%
X372000000Y-26166000D03*
D18*
%TO.P,D1,2,A*%
%TO.N,Net-(D1-A)*%
X372000000Y-18546000D03*
%TD*%
D19*
%TO.P,J3,1,Pin_1*%
%TO.N,Col 1-1*%
X325000000Y-29500000D03*
D20*
%TO.P,J3,2,Pin_2*%
%TO.N,Col 1-2*%
X325000000Y-32040000D03*
%TO.P,J3,3,Pin_3*%
%TO.N,Col 1-3*%
X325000000Y-34580000D03*
%TO.P,J3,4,Pin_4*%
%TO.N,Col 1-4*%
X325000000Y-37120000D03*
%TD*%
D19*
%TO.P,J1,1,Pin_1*%
%TO.N,Row 1*%
X563500000Y19025000D03*
D20*
%TO.P,J1,2,Pin_2*%
%TO.N,Coil 1-1*%
X560960000Y19025000D03*
%TO.P,J1,3,Pin_3*%
%TO.N,Coil 1-2*%
X558420000Y19025000D03*
%TD*%
D21*
%TO.P,K8,1,C1*%
%TO.N,Coil 5-2*%
X275079375Y-253166125D03*
D22*
%TO.P,K8,2,C2*%
%TO.N,Net-(K8-C2)*%
X275000000Y-257500000D03*
D23*
%TO.P,K8,3,Bout*%
%TO.N,Net-(D8-A)*%
X274952375Y-277502500D03*
D24*
%TO.P,K8,4,Bin*%
%TO.N,Col 5-1*%
X274976187Y-282058625D03*
%TD*%
D21*
%TO.P,K1,1,C1*%
%TO.N,Coil 1-2*%
X358560500Y5458500D03*
D22*
%TO.P,K1,2,C2*%
%TO.N,Net-(K1-C2)*%
X358481125Y1124625D03*
D23*
%TO.P,K1,3,Bout*%
%TO.N,Net-(D1-A)*%
X358433500Y-18877875D03*
D24*
%TO.P,K1,4,Bin*%
%TO.N,Col 1-1*%
X358457312Y-23434000D03*
%TD*%
D17*
%TO.P,D5,1,K*%
%TO.N,Row 2*%
X92500000Y-110854000D03*
D18*
%TO.P,D5,2,A*%
%TO.N,Net-(D5-A)*%
X92500000Y-103234000D03*
%TD*%
%TO.P,Jumper,*%
%TO.N,Coil 5-4*%
X342500000Y-132500000D03*
%TO.P,Jumper,1*%
X342500000Y-126500000D03*
%TD*%
D21*
%TO.P,K4,1,C1*%
%TO.N,Net-(K3-C2)*%
X525579375Y6333875D03*
D22*
%TO.P,K4,2,C2*%
%TO.N,Coil 1-1*%
X525500000Y2000000D03*
D23*
%TO.P,K4,3,Bout*%
%TO.N,Net-(D4-A)*%
X525452375Y-18002500D03*
D24*
%TO.P,K4,4,Bin*%
%TO.N,Col 1-4*%
X525476187Y-22558625D03*
%TD*%
D19*
%TO.P,J6,1,Pin_1*%
%TO.N,Row 5*%
X390580000Y-234044000D03*
D20*
%TO.P,J6,2,Pin_2*%
%TO.N,Coil 5-1*%
X388040000Y-234044000D03*
%TO.P,J6,3,Pin_3*%
%TO.N,Coil 5-2*%
X385500000Y-234044000D03*
%TD*%
D18*
%TO.P,Jumper,*%
%TO.N,Col 1-2*%
X414000000Y-33500000D03*
%TO.P,Jumper,1*%
X414000000Y-27500000D03*
%TD*%
D19*
%TO.P,J2,1,Pin_1*%
%TO.N,Row 2*%
X223000000Y-60044000D03*
D20*
%TO.P,J2,2,Pin_2*%
%TO.N,Coil 2-1*%
X220460000Y-60044000D03*
%TO.P,J2,3,Pin_3*%
%TO.N,Coil 2-2*%
X217920000Y-60044000D03*
%TD*%
D18*
%TO.P,Jumper,*%
%TO.N,Col 1-3*%
X470000000Y-34025000D03*
%TO.P,Jumper,1*%
X470000000Y-28025000D03*
%TD*%
%TO.P,Jumper,*%
%TO.N,Col 2-3*%
X192500000Y-116569000D03*
%TO.P,Jumper,1*%
X192500000Y-110569000D03*
%TD*%
D17*
%TO.P,D3,1,K*%
%TO.N,Row 1*%
X483000000Y-26120000D03*
D18*
%TO.P,D3,2,A*%
%TO.N,Net-(D3-A)*%
X483000000Y-18500000D03*
%TD*%
D17*
%TO.P,D9,1,K*%
%TO.N,Row 5*%
X372500000Y-285266000D03*
D18*
%TO.P,D9,2,A*%
%TO.N,Net-(D9-A)*%
X372500000Y-277646000D03*
%TD*%
D17*
%TO.P,D10,1,K*%
%TO.N,Col 5*%
X363500000Y-200810000D03*
D18*
%TO.P,D10,2,A*%
%TO.N,Net-(D10-A)*%
X363500000Y-193190000D03*
%TD*%
D17*
%TO.P,D2,1,K*%
%TO.N,Row 1*%
X427000000Y-26310000D03*
D18*
%TO.P,D2,2,A*%
%TO.N,Net-(D2-A)*%
X427000000Y-18690000D03*
%TD*%
D19*
%TO.P,J3,1,Pin_1*%
%TO.N,Col 1-1*%
X331000000Y-29500000D03*
D20*
%TO.P,J3,2,Pin_2*%
%TO.N,Col 1-2*%
X331000000Y-32040000D03*
%TO.P,J3,3,Pin_3*%
%TO.N,Col 1-3*%
X331000000Y-34580000D03*
%TO.P,J3,4,Pin_4*%
%TO.N,Col 1-4*%
X331000000Y-37120000D03*
%TD*%
D19*
%TO.P,J7,1,Pin_1*%
%TO.N,Row 5-1*%
X331500000Y-214500000D03*
D20*
%TO.P,J7,2,Pin_2*%
%TO.N,Row 5-2*%
X334040000Y-214500000D03*
%TO.P,J7,3,Pin_3*%
%TO.N,unconnected-(J7-Pin_3-Pad3)*%
X336580000Y-214500000D03*
%TO.P,J7,4,Pin_4*%
%TO.N,unconnected-(J7-Pin_4-Pad4)*%
X339120000Y-214500000D03*
%TD*%
D21*
%TO.P,K3,1,C1*%
%TO.N,Net-(K2-C2)*%
X470127000Y5836375D03*
D22*
%TO.P,K3,2,C2*%
%TO.N,Net-(K3-C2)*%
X470047625Y1502500D03*
D23*
%TO.P,K3,3,Bout*%
%TO.N,Net-(D3-A)*%
X470000000Y-18500000D03*
D24*
%TO.P,K3,4,Bin*%
%TO.N,Col 1-3*%
X470023812Y-23056125D03*
%TD*%
D18*
%TO.P,Jumper,*%
%TO.N,Col 2-2*%
X136436500Y-117069000D03*
%TO.P,Jumper,1*%
X136436500Y-111069000D03*
%TD*%
D21*
%TO.P,K11,1,C1*%
%TO.N,Net-(K10-C2)*%
X353563500Y-100585500D03*
D22*
%TO.P,K11,2,C2*%
%TO.N,Coil 5-3*%
X353484125Y-104919375D03*
D23*
%TO.P,K11,3,Bout*%
%TO.N,Net-(D11-A)*%
X353436500Y-124921875D03*
D24*
%TO.P,K11,4,Bin*%
%TO.N,Row 5-2*%
X353460312Y-129478000D03*
%TD*%
D18*
%TO.P,Jumper,*%
%TO.N,Col 5-2*%
X360000000Y-291981000D03*
%TO.P,Jumper,1*%
X360000000Y-285981000D03*
%TD*%
D17*
%TO.P,D6,1,K*%
%TO.N,Row 2*%
X149500000Y-109854000D03*
D18*
%TO.P,D6,2,A*%
%TO.N,Net-(D6-A)*%
X149500000Y-102234000D03*
%TD*%
%TO.P,Jumper,*%
%TO.N,Row 5-2*%
X334000000Y-201525000D03*
%TO.P,Jumper,1*%
X334000000Y-195525000D03*
%TD*%
D21*
%TO.P,K10,1,C1*%
%TO.N,Coil 5-4*%
X353063500Y-169085500D03*
D22*
%TO.P,K10,2,C2*%
%TO.N,Net-(K10-C2)*%
X352984125Y-173419375D03*
D23*
%TO.P,K10,3,Bout*%
%TO.N,Net-(D10-A)*%
X352936500Y-193421875D03*
D24*
%TO.P,K10,4,Bin*%
%TO.N,Row 5-1*%
X352960312Y-197978000D03*
%TD*%
D19*
%TO.P,J8,1,Pin_1*%
%TO.N,Col 5*%
X373080000Y-79000000D03*
D20*
%TO.P,J8,2,Pin_2*%
%TO.N,Coil 5-3*%
X370540000Y-79000000D03*
%TO.P,J8,3,Pin_3*%
%TO.N,Coil 5-4*%
X368000000Y-79000000D03*
%TD*%
D19*
%TO.P,J5,1,Pin_1*%
%TO.N,Col 5-1*%
X220000000Y-287744000D03*
D20*
%TO.P,J5,2,Pin_2*%
%TO.N,Col 5-2*%
X220000000Y-290284000D03*
%TO.P,J5,3,Pin_3*%
%TO.N,Col 5-3*%
X220000000Y-292824000D03*
%TO.P,J5,4,Pin_4*%
%TO.N,Col 5-4*%
X220000000Y-295364000D03*
%TD*%
D19*
%TO.P,J3,1,Pin_1*%
%TO.N,Col 2-1*%
X46500000Y-112544000D03*
D20*
%TO.P,J3,2,Pin_2*%
%TO.N,Col 2-2*%
X46500000Y-115084000D03*
%TO.P,J3,3,Pin_3*%
%TO.N,Col 2-3*%
X46500000Y-117624000D03*
%TO.P,J3,4,Pin_4*%
%TO.N,Col 2-4*%
X46500000Y-120164000D03*
%TD*%
D17*
%TO.P,D8,1,K*%
%TO.N,Row 5*%
X288000000Y-285310000D03*
D18*
%TO.P,D8,2,A*%
%TO.N,Net-(D8-A)*%
X288000000Y-277690000D03*
%TD*%
D21*
%TO.P,K6,1,C1*%
%TO.N,Net-(K5-C2)*%
X136500000Y-78044000D03*
D22*
%TO.P,K6,2,C2*%
%TO.N,Net-(K6-C2)*%
X136420625Y-82377875D03*
D23*
%TO.P,K6,3,Bout*%
%TO.N,Net-(D6-A)*%
X136373000Y-102380375D03*
D24*
%TO.P,K6,4,Bin*%
%TO.N,Col 2-2*%
X136396812Y-106936500D03*
%TD*%
D19*
%TO.P,J4,1,Pin_1*%
%TO.N,Col 2-1*%
X51500000Y-112504000D03*
D20*
%TO.P,J4,2,Pin_2*%
%TO.N,Col 2-2*%
X51500000Y-115044000D03*
%TO.P,J4,3,Pin_3*%
%TO.N,Col 2-3*%
X51500000Y-117584000D03*
%TO.P,J4,4,Pin_4*%
%TO.N,Col 2-4*%
X51500000Y-120124000D03*
%TD*%
D17*
%TO.P,D11,1,K*%
%TO.N,Col 5*%
X362500000Y-132310000D03*
D18*
%TO.P,D11,2,A*%
%TO.N,Net-(D11-A)*%
X362500000Y-124690000D03*
%TD*%
%TO.P,Jumper,*%
%TO.N,Coil 5-4*%
X348500000Y-138500000D03*
%TO.P,Jumper,1*%
X342500000Y-138500000D03*
%TD*%
%TO.P,Jumper,*%
%TO.N,Col 1-4*%
X525500000Y-33525000D03*
%TO.P,Jumper,1*%
X525500000Y-27525000D03*
%TD*%
D21*
%TO.P,K2,1,C1*%
%TO.N,Net-(K1-C2)*%
X414066500Y5414500D03*
D22*
%TO.P,K2,2,C2*%
%TO.N,Net-(K2-C2)*%
X413987125Y1080625D03*
D23*
%TO.P,K2,3,Bout*%
%TO.N,Net-(D2-A)*%
X413939500Y-18921875D03*
D24*
%TO.P,K2,4,Bin*%
%TO.N,Col 1-2*%
X413963312Y-23478000D03*
%TD*%
D18*
%TO.P,Jumper,*%
%TO.N,Net-(K10-C2)*%
X345500000Y-132525000D03*
%TO.P,Jumper,1*%
X345500000Y-126525000D03*
%TD*%
D19*
%TO.P,J3,1,Pin_1*%
%TO.N,Row 5-1*%
X331460000Y-218000000D03*
D20*
%TO.P,J3,2,Pin_2*%
%TO.N,Row 5-2*%
X334000000Y-218000000D03*
%TO.P,J3,3,Pin_3*%
%TO.N,N/C*%
X336540000Y-218000000D03*
%TO.P,J3,4,Pin_4*%
X339080000Y-218000000D03*
%TD*%
D21*
%TO.P,K7,1,C1*%
%TO.N,Net-(K6-C2)*%
X192500000Y-77544000D03*
D22*
%TO.P,K7,2,C2*%
%TO.N,Coil 2-1*%
X192420625Y-81877875D03*
D23*
%TO.P,K7,3,Bout*%
%TO.N,Net-(D7-A)*%
X192373000Y-101880375D03*
D24*
%TO.P,K7,4,Bin*%
%TO.N,Col 2-3*%
X192396812Y-106436500D03*
%TD*%
D19*
%TO.P,J3,1,Pin_1*%
%TO.N,Col 5-1*%
X214500000Y-287504000D03*
D20*
%TO.P,J3,2,Pin_2*%
%TO.N,Col 5-2*%
X214500000Y-290044000D03*
%TO.P,J3,3,Pin_3*%
%TO.N,Col 5-3*%
X214500000Y-292584000D03*
%TO.P,J3,4,Pin_4*%
%TO.N,Col 5-4*%
X214500000Y-295124000D03*
%TD*%
D21*
%TO.P,K9,1,C1*%
%TO.N,Net-(K8-C2)*%
X360079375Y-253122125D03*
D22*
%TO.P,K9,2,C2*%
%TO.N,Coil 5-1*%
X360000000Y-257456000D03*
D23*
%TO.P,K9,3,Bout*%
%TO.N,Net-(D9-A)*%
X359952375Y-277458500D03*
D24*
%TO.P,K9,4,Bin*%
%TO.N,Col 5-2*%
X359976187Y-282014625D03*
%TD*%
D21*
%TO.P,K5,1,C1*%
%TO.N,Coil 2-2*%
X80079375Y-78710125D03*
D22*
%TO.P,K5,2,C2*%
%TO.N,Net-(K5-C2)*%
X80000000Y-83044000D03*
D23*
%TO.P,K5,3,Bout*%
%TO.N,Net-(D5-A)*%
X79952375Y-103046500D03*
D24*
%TO.P,K5,4,Bin*%
%TO.N,Col 2-1*%
X79976187Y-107602625D03*
%TD*%
D17*
%TO.P,D7,1,K*%
%TO.N,Row 2*%
X205000000Y-109354000D03*
D18*
%TO.P,D7,2,A*%
%TO.N,Net-(D7-A)*%
X205000000Y-101734000D03*
%TD*%
D17*
%TO.P,D4,1,K*%
%TO.N,Row 1*%
X538500000Y-25620000D03*
D18*
%TO.P,D4,2,A*%
%TO.N,Net-(D4-A)*%
X538500000Y-18000000D03*
%TD*%
D25*
%TO.N,Row 1*%
X485500000Y-30500000D02*
X540500000Y-30500000D01*
X373500000Y-30500000D02*
X430000000Y-30500000D01*
X483000000Y-28500000D02*
X485000000Y-30500000D01*
X372000000Y-29000000D02*
X373500000Y-30500000D01*
X428500000Y-30500000D02*
X430000000Y-30500000D01*
X427000000Y-29000000D02*
X428500000Y-30500000D01*
X563500000Y19025000D02*
X563500000Y-19500000D01*
X427000000Y-26310000D02*
X427000000Y-29000000D01*
X483000000Y-26120000D02*
X483000000Y-28500000D01*
X563500000Y-19500000D02*
X552500000Y-30500000D01*
X430000000Y-30500000D02*
X485500000Y-30500000D01*
X538500000Y-28500000D02*
X540500000Y-30500000D01*
X485000000Y-30500000D02*
X485500000Y-30500000D01*
X538500000Y-25620000D02*
X538500000Y-28500000D01*
X372000000Y-26166000D02*
X372000000Y-29000000D01*
X552500000Y-30500000D02*
X540500000Y-30500000D01*
%TO.N,Net-(D1-A)*%
X358433500Y-18877875D02*
X371668125Y-18877875D01*
X371668125Y-18877875D02*
X372000000Y-18546000D01*
%TO.N,Net-(D2-A)*%
X426768125Y-18921875D02*
X427000000Y-18690000D01*
X413939500Y-18921875D02*
X426768125Y-18921875D01*
%TO.N,Net-(D3-A)*%
X470000000Y-18500000D02*
X483000000Y-18500000D01*
%TO.N,Net-(D4-A)*%
X538497500Y-18002500D02*
X538500000Y-18000000D01*
X525452375Y-18002500D02*
X538497500Y-18002500D01*
%TO.N,Net-(K1-C2)*%
X413981000Y5500000D02*
X414066500Y5414500D01*
X366500000Y5500000D02*
X413981000Y5500000D01*
X362124625Y1124625D02*
X366500000Y5500000D01*
X358481125Y1124625D02*
X362124625Y1124625D01*
%TO.N,Net-(K2-C2)*%
X413987125Y1080625D02*
X419080625Y1080625D01*
X423836375Y5836375D02*
X470127000Y5836375D01*
X419080625Y1080625D02*
X423836375Y5836375D01*
%TO.N,Net-(K3-C2)*%
X482166125Y6333875D02*
X525579375Y6333875D01*
X470047625Y1502500D02*
X475997500Y1502500D01*
X482000000Y6500000D02*
X482166125Y6333875D01*
X476000000Y1500000D02*
X477000000Y1500000D01*
X477000000Y1500000D02*
X482000000Y6500000D01*
X475997500Y1502500D02*
X476000000Y1500000D01*
%TO.N,Net-(D5-A)*%
X79952375Y-103046500D02*
X92312500Y-103046500D01*
X92312500Y-103046500D02*
X92500000Y-103234000D01*
%TO.N,Net-(D6-A)*%
X136373000Y-102380375D02*
X149353625Y-102380375D01*
X149353625Y-102380375D02*
X149500000Y-102234000D01*
%TO.N,Net-(D7-A)*%
X204853625Y-101880375D02*
X205000000Y-101734000D01*
X192373000Y-101880375D02*
X204853625Y-101880375D01*
%TO.N,Net-(K5-C2)*%
X83500000Y-83044000D02*
X88500000Y-78044000D01*
X88500000Y-78044000D02*
X136500000Y-78044000D01*
X80000000Y-83044000D02*
X83500000Y-83044000D01*
%TO.N,Net-(K6-C2)*%
X136420625Y-82377875D02*
X142666125Y-82377875D01*
X142666125Y-82377875D02*
X147500000Y-77544000D01*
X147500000Y-77544000D02*
X192500000Y-77544000D01*
%TO.N,Row 2*%
X207000000Y-114044000D02*
X209500000Y-114044000D01*
X205000000Y-112044000D02*
X207000000Y-114044000D01*
X151500000Y-114044000D02*
X207000000Y-114044000D01*
X209500000Y-114044000D02*
X223000000Y-100544000D01*
X149500000Y-112044000D02*
X151500000Y-114044000D01*
X94500000Y-114044000D02*
X151500000Y-114044000D01*
X149500000Y-109854000D02*
X149500000Y-112044000D01*
X92500000Y-112044000D02*
X94500000Y-114044000D01*
X205000000Y-109354000D02*
X205000000Y-112044000D01*
X223000000Y-100544000D02*
X223000000Y-60044000D01*
X92500000Y-110854000D02*
X92500000Y-112044000D01*
%TO.N,Coil 1-2*%
X558420000Y19025000D02*
X558420000Y15420000D01*
X363458500Y5458500D02*
X358560500Y5458500D01*
X558420000Y15420000D02*
X554000000Y11000000D01*
X369000000Y11000000D02*
X363458500Y5458500D01*
X554000000Y11000000D02*
X369000000Y11000000D01*
%TO.N,Coil 1-1*%
X560960000Y12537323D02*
X550422677Y2000000D01*
X560960000Y19025000D02*
X560960000Y12537323D01*
X550422677Y2000000D02*
X525500000Y2000000D01*
%TO.N,Coil 2-2*%
X86745500Y-72044000D02*
X217500000Y-72044000D01*
X217500000Y-72044000D02*
X217920000Y-71624000D01*
X80079375Y-78710125D02*
X86745500Y-72044000D01*
X217920000Y-71624000D02*
X217920000Y-60044000D01*
%TO.N,Coil 2-1*%
X220460000Y-60044000D02*
X220460000Y-73504000D01*
X220460000Y-73504000D02*
X212086125Y-81877875D01*
X212086125Y-81877875D02*
X192420625Y-81877875D01*
%TO.N,Col 1-3*%
X470023812Y-23056125D02*
X470023812Y-28001188D01*
X468525000Y-35500000D02*
X411840000Y-35500000D01*
X410920000Y-34580000D02*
X331000000Y-34580000D01*
X331000000Y-34580000D02*
X325000000Y-34580000D01*
X470023812Y-28001188D02*
X470000000Y-28025000D01*
X411840000Y-35500000D02*
X410920000Y-34580000D01*
X470000000Y-34025000D02*
X468525000Y-35500000D01*
%TO.N,Col 1-2*%
X331000000Y-32040000D02*
X412540000Y-32040000D01*
X412540000Y-32040000D02*
X414000000Y-33500000D01*
X413963312Y-23478000D02*
X413963312Y-27963312D01*
X413963312Y-27963312D02*
X414000000Y-28000000D01*
X331000000Y-32040000D02*
X325000000Y-32040000D01*
%TO.N,Col 1-4*%
X525476187Y-22558625D02*
X525476187Y-27501187D01*
X331000000Y-37120000D02*
X521905000Y-37120000D01*
X331000000Y-37120000D02*
X325000000Y-37120000D01*
X525476187Y-27501187D02*
X525500000Y-27525000D01*
X521905000Y-37120000D02*
X525500000Y-33525000D01*
%TO.N,Col 1-1*%
X355000000Y-29500000D02*
X358500000Y-26000000D01*
X358500000Y-26000000D02*
X358457312Y-25957312D01*
X331000000Y-29500000D02*
X325000000Y-29500000D01*
X358457312Y-25957312D02*
X358457312Y-23434000D01*
X331000000Y-29500000D02*
X355000000Y-29500000D01*
%TO.N,Col 2-3*%
X191000000Y-118544000D02*
X52460000Y-118544000D01*
X192396812Y-106436500D02*
X192396812Y-110465812D01*
X51500000Y-117584000D02*
X46540000Y-117584000D01*
X192500000Y-116569000D02*
X191000000Y-118069000D01*
X191000000Y-118069000D02*
X191000000Y-118544000D01*
X192396812Y-110465812D02*
X192500000Y-110569000D01*
X46540000Y-117584000D02*
X46500000Y-117624000D01*
X52460000Y-118544000D02*
X51500000Y-117584000D01*
%TO.N,Col 2-4*%
X51500000Y-120124000D02*
X46540000Y-120124000D01*
X46540000Y-120124000D02*
X46500000Y-120164000D01*
%TO.N,Col 2-1*%
X51460000Y-112544000D02*
X51500000Y-112504000D01*
X79976187Y-107602625D02*
X79976187Y-111567813D01*
X46500000Y-112544000D02*
X51460000Y-112544000D01*
X78960000Y-112504000D02*
X51500000Y-112504000D01*
X79000000Y-112544000D02*
X78960000Y-112504000D01*
X79976187Y-111567813D02*
X79000000Y-112544000D01*
%TO.N,Col 2-2*%
X51500000Y-115044000D02*
X46540000Y-115044000D01*
X136396812Y-111029312D02*
X136436500Y-111069000D01*
X53525000Y-117069000D02*
X136436500Y-117069000D01*
X136396812Y-106936500D02*
X136396812Y-111029312D01*
X51500000Y-115044000D02*
X53525000Y-117069000D01*
X46540000Y-115044000D02*
X46500000Y-115084000D01*
%TO.N,Net-(D8-A)*%
X287812500Y-277502500D02*
X288000000Y-277690000D01*
X274952375Y-277502500D02*
X287812500Y-277502500D01*
%TO.N,Row 5*%
X288000000Y-285310000D02*
X288000000Y-288544000D01*
X390580000Y-278464000D02*
X390580000Y-234044000D01*
X375500000Y-290044000D02*
X379000000Y-290044000D01*
X289500000Y-290044000D02*
X375500000Y-290044000D01*
X288000000Y-288544000D02*
X289500000Y-290044000D01*
X372500000Y-285266000D02*
X372500000Y-287044000D01*
X372500000Y-287044000D02*
X375500000Y-290044000D01*
X379000000Y-290044000D02*
X390580000Y-278464000D01*
%TO.N,Net-(D9-A)*%
X359952375Y-277458500D02*
X372312500Y-277458500D01*
X372312500Y-277458500D02*
X372500000Y-277646000D01*
%TO.N,Col 5*%
X362500000Y-132310000D02*
X368690000Y-132310000D01*
X367690000Y-200810000D02*
X373080000Y-195420000D01*
X363500000Y-200810000D02*
X367690000Y-200810000D01*
X368690000Y-132310000D02*
X373080000Y-127920000D01*
X373080000Y-127920000D02*
X373080000Y-79000000D01*
X373080000Y-195420000D02*
X373080000Y-127920000D01*
%TO.N,Net-(D10-A)*%
X363268125Y-193421875D02*
X363500000Y-193190000D01*
X352936500Y-193421875D02*
X363268125Y-193421875D01*
%TO.N,Col 5-2*%
X214500000Y-290044000D02*
X219760000Y-290044000D01*
X222240000Y-290284000D02*
X220000000Y-290284000D01*
X214540000Y-290088000D02*
X214500000Y-290128000D01*
X360000000Y-291981000D02*
X223937000Y-291981000D01*
X219760000Y-290044000D02*
X220000000Y-290284000D01*
X359976187Y-285957187D02*
X360000000Y-285981000D01*
X359976187Y-282014625D02*
X359976187Y-285957187D01*
X223937000Y-291981000D02*
X222240000Y-290284000D01*
%TO.N,Col 5-4*%
X214500000Y-295124000D02*
X219760000Y-295124000D01*
X219760000Y-295124000D02*
X220000000Y-295364000D01*
X214540000Y-295168000D02*
X214500000Y-295208000D01*
%TO.N,Col 5-3*%
X219760000Y-292584000D02*
X220000000Y-292824000D01*
X214500000Y-292584000D02*
X219760000Y-292584000D01*
X214540000Y-292628000D02*
X214500000Y-292668000D01*
%TO.N,Col 5-1*%
X273300000Y-287744000D02*
X275000000Y-286044000D01*
X214500000Y-287504000D02*
X219760000Y-287504000D01*
X274976187Y-286020187D02*
X274976187Y-282058625D01*
X219760000Y-287504000D02*
X220000000Y-287744000D01*
X275000000Y-286044000D02*
X274976187Y-286020187D01*
X220000000Y-287744000D02*
X273300000Y-287744000D01*
%TO.N,Coil 5-2*%
X385500000Y-244044000D02*
X385500000Y-234044000D01*
X281877875Y-253166125D02*
X286000000Y-249044000D01*
X286000000Y-249044000D02*
X380500000Y-249044000D01*
X275079375Y-253166125D02*
X281877875Y-253166125D01*
X380500000Y-249044000D02*
X385500000Y-244044000D01*
%TO.N,Coil 5-1*%
X388040000Y-245004000D02*
X388040000Y-234044000D01*
X375588000Y-257456000D02*
X388040000Y-245004000D01*
X360000000Y-257456000D02*
X375588000Y-257456000D01*
%TO.N,Row 5-1*%
X331500000Y-201500000D02*
X331500000Y-214500000D01*
X352960312Y-197978000D02*
X335022000Y-197978000D01*
X335022000Y-197978000D02*
X331500000Y-201500000D01*
X331500000Y-217960000D02*
X331460000Y-218000000D01*
X331500000Y-214500000D02*
X331500000Y-217960000D01*
%TO.N,Row 5-2*%
X330764060Y-139735940D02*
X330764060Y-192289060D01*
X334040000Y-201565000D02*
X334040000Y-214500000D01*
X341022000Y-129478000D02*
X330764060Y-139735940D01*
X330764060Y-192289060D02*
X334000000Y-195525000D01*
X353460312Y-129478000D02*
X341022000Y-129478000D01*
X334000000Y-201525000D02*
X334040000Y-201565000D01*
X334040000Y-214500000D02*
X334040000Y-217960000D01*
X334040000Y-217960000D02*
X334000000Y-218000000D01*
%TO.N,Coil 5-3*%
X367080625Y-104919375D02*
X370540000Y-101460000D01*
X370540000Y-101460000D02*
X370540000Y-79000000D01*
X353484125Y-104919375D02*
X367080625Y-104919375D01*
%TO.N,Coil 5-4*%
X353063500Y-169085500D02*
X353063500Y-141063500D01*
X353063500Y-141063500D02*
X350500000Y-138500000D01*
X350500000Y-138500000D02*
X348500000Y-138500000D01*
X348000000Y-94500000D02*
X368000000Y-94500000D01*
X342500000Y-100000000D02*
X348000000Y-94500000D01*
X342500000Y-126500000D02*
X342500000Y-100000000D01*
X342500000Y-138500000D02*
X342500000Y-132500000D01*
X368000000Y-94500000D02*
X368000000Y-79000000D01*
%TO.N,Net-(K8-C2)*%
X275000000Y-257500000D02*
X281544000Y-257500000D01*
X286078125Y-253122125D02*
X360079375Y-253122125D01*
X281544000Y-257500000D02*
X286000000Y-253044000D01*
X286000000Y-253044000D02*
X286078125Y-253122125D01*
%TO.N,Net-(K10-C2)*%
X353563500Y-100585500D02*
X348414500Y-100585500D01*
X345500000Y-170500000D02*
X348419375Y-173419375D01*
X345500000Y-103500000D02*
X345500000Y-126525000D01*
X348414500Y-100585500D02*
X345500000Y-103500000D01*
X348419375Y-173419375D02*
X352984125Y-173419375D01*
X345500000Y-132525000D02*
X345500000Y-170500000D01*
%TD*%
M02*
