%TF.GenerationSoftware,KiCad,Pcbnew,9.0.0*%
%TF.CreationDate,2025-04-02T13:07:29+08:00*%
%TF.ProjectId,keynergy_schem,6b65796e-6572-4677-995f-736368656d2e,rev?*%
%TF.SameCoordinates,Original*%
%TF.FileFunction,Legend,Top*%
%TF.FilePolarity,Positive*%
%FSLAX46Y46*%
G04 Gerber Fmt 4.6, Leading zero omitted, Abs format (unit mm)*
G04 Created by KiCad (PCBNEW 9.0.0) date 2025-04-02 13:07:29*
%MOMM*%
%LPD*%
G01*
G04 APERTURE LIST*
%ADD10C,0.100000*%
%ADD11C,0.150000*%
%ADD12C,0.300000*%
%ADD13C,0.400000*%
%ADD14C,0.120000*%
G04 APERTURE END LIST*
D10*
D11*
X177002200Y-166007200D02*
X285002200Y-166007200D01*
X285002200Y-198007200D01*
X177002200Y-198007200D01*
X177002200Y-166007200D01*
D10*
D11*
X10000000Y-10000000D02*
X287002200Y-10000000D01*
X287002200Y-200007200D01*
X10000000Y-200007200D01*
X10000000Y-10000000D01*
D10*
D11*
X12000000Y-12000000D02*
X285002200Y-12000000D01*
X285002200Y-198007200D01*
X12000000Y-198007200D01*
X12000000Y-12000000D01*
D10*
D11*
X60000000Y-12000000D02*
X60000000Y-10000000D01*
D10*
D11*
X110000000Y-12000000D02*
X110000000Y-10000000D01*
D10*
D11*
X160000000Y-12000000D02*
X160000000Y-10000000D01*
D10*
D11*
X210000000Y-12000000D02*
X210000000Y-10000000D01*
D10*
D11*
X260000000Y-12000000D02*
X260000000Y-10000000D01*
D10*
D11*
X36089160Y-11593604D02*
X35346303Y-11593604D01*
X35717731Y-11593604D02*
X35717731Y-10293604D01*
X35717731Y-10293604D02*
X35593922Y-10479319D01*
X35593922Y-10479319D02*
X35470112Y-10603128D01*
X35470112Y-10603128D02*
X35346303Y-10665033D01*
D10*
D11*
X85346303Y-10417414D02*
X85408207Y-10355509D01*
X85408207Y-10355509D02*
X85532017Y-10293604D01*
X85532017Y-10293604D02*
X85841541Y-10293604D01*
X85841541Y-10293604D02*
X85965350Y-10355509D01*
X85965350Y-10355509D02*
X86027255Y-10417414D01*
X86027255Y-10417414D02*
X86089160Y-10541223D01*
X86089160Y-10541223D02*
X86089160Y-10665033D01*
X86089160Y-10665033D02*
X86027255Y-10850747D01*
X86027255Y-10850747D02*
X85284398Y-11593604D01*
X85284398Y-11593604D02*
X86089160Y-11593604D01*
D10*
D11*
X135284398Y-10293604D02*
X136089160Y-10293604D01*
X136089160Y-10293604D02*
X135655826Y-10788842D01*
X135655826Y-10788842D02*
X135841541Y-10788842D01*
X135841541Y-10788842D02*
X135965350Y-10850747D01*
X135965350Y-10850747D02*
X136027255Y-10912652D01*
X136027255Y-10912652D02*
X136089160Y-11036461D01*
X136089160Y-11036461D02*
X136089160Y-11345985D01*
X136089160Y-11345985D02*
X136027255Y-11469795D01*
X136027255Y-11469795D02*
X135965350Y-11531700D01*
X135965350Y-11531700D02*
X135841541Y-11593604D01*
X135841541Y-11593604D02*
X135470112Y-11593604D01*
X135470112Y-11593604D02*
X135346303Y-11531700D01*
X135346303Y-11531700D02*
X135284398Y-11469795D01*
D10*
D11*
X185965350Y-10726938D02*
X185965350Y-11593604D01*
X185655826Y-10231700D02*
X185346303Y-11160271D01*
X185346303Y-11160271D02*
X186151064Y-11160271D01*
D10*
D11*
X236027255Y-10293604D02*
X235408207Y-10293604D01*
X235408207Y-10293604D02*
X235346303Y-10912652D01*
X235346303Y-10912652D02*
X235408207Y-10850747D01*
X235408207Y-10850747D02*
X235532017Y-10788842D01*
X235532017Y-10788842D02*
X235841541Y-10788842D01*
X235841541Y-10788842D02*
X235965350Y-10850747D01*
X235965350Y-10850747D02*
X236027255Y-10912652D01*
X236027255Y-10912652D02*
X236089160Y-11036461D01*
X236089160Y-11036461D02*
X236089160Y-11345985D01*
X236089160Y-11345985D02*
X236027255Y-11469795D01*
X236027255Y-11469795D02*
X235965350Y-11531700D01*
X235965350Y-11531700D02*
X235841541Y-11593604D01*
X235841541Y-11593604D02*
X235532017Y-11593604D01*
X235532017Y-11593604D02*
X235408207Y-11531700D01*
X235408207Y-11531700D02*
X235346303Y-11469795D01*
D10*
D11*
X285965350Y-10293604D02*
X285717731Y-10293604D01*
X285717731Y-10293604D02*
X285593922Y-10355509D01*
X285593922Y-10355509D02*
X285532017Y-10417414D01*
X285532017Y-10417414D02*
X285408207Y-10603128D01*
X285408207Y-10603128D02*
X285346303Y-10850747D01*
X285346303Y-10850747D02*
X285346303Y-11345985D01*
X285346303Y-11345985D02*
X285408207Y-11469795D01*
X285408207Y-11469795D02*
X285470112Y-11531700D01*
X285470112Y-11531700D02*
X285593922Y-11593604D01*
X285593922Y-11593604D02*
X285841541Y-11593604D01*
X285841541Y-11593604D02*
X285965350Y-11531700D01*
X285965350Y-11531700D02*
X286027255Y-11469795D01*
X286027255Y-11469795D02*
X286089160Y-11345985D01*
X286089160Y-11345985D02*
X286089160Y-11036461D01*
X286089160Y-11036461D02*
X286027255Y-10912652D01*
X286027255Y-10912652D02*
X285965350Y-10850747D01*
X285965350Y-10850747D02*
X285841541Y-10788842D01*
X285841541Y-10788842D02*
X285593922Y-10788842D01*
X285593922Y-10788842D02*
X285470112Y-10850747D01*
X285470112Y-10850747D02*
X285408207Y-10912652D01*
X285408207Y-10912652D02*
X285346303Y-11036461D01*
D10*
D11*
X60000000Y-198007200D02*
X60000000Y-200007200D01*
D10*
D11*
X110000000Y-198007200D02*
X110000000Y-200007200D01*
D10*
D11*
X160000000Y-198007200D02*
X160000000Y-200007200D01*
D10*
D11*
X210000000Y-198007200D02*
X210000000Y-200007200D01*
D10*
D11*
X260000000Y-198007200D02*
X260000000Y-200007200D01*
D10*
D11*
X36089160Y-199600804D02*
X35346303Y-199600804D01*
X35717731Y-199600804D02*
X35717731Y-198300804D01*
X35717731Y-198300804D02*
X35593922Y-198486519D01*
X35593922Y-198486519D02*
X35470112Y-198610328D01*
X35470112Y-198610328D02*
X35346303Y-198672233D01*
D10*
D11*
X85346303Y-198424614D02*
X85408207Y-198362709D01*
X85408207Y-198362709D02*
X85532017Y-198300804D01*
X85532017Y-198300804D02*
X85841541Y-198300804D01*
X85841541Y-198300804D02*
X85965350Y-198362709D01*
X85965350Y-198362709D02*
X86027255Y-198424614D01*
X86027255Y-198424614D02*
X86089160Y-198548423D01*
X86089160Y-198548423D02*
X86089160Y-198672233D01*
X86089160Y-198672233D02*
X86027255Y-198857947D01*
X86027255Y-198857947D02*
X85284398Y-199600804D01*
X85284398Y-199600804D02*
X86089160Y-199600804D01*
D10*
D11*
X135284398Y-198300804D02*
X136089160Y-198300804D01*
X136089160Y-198300804D02*
X135655826Y-198796042D01*
X135655826Y-198796042D02*
X135841541Y-198796042D01*
X135841541Y-198796042D02*
X135965350Y-198857947D01*
X135965350Y-198857947D02*
X136027255Y-198919852D01*
X136027255Y-198919852D02*
X136089160Y-199043661D01*
X136089160Y-199043661D02*
X136089160Y-199353185D01*
X136089160Y-199353185D02*
X136027255Y-199476995D01*
X136027255Y-199476995D02*
X135965350Y-199538900D01*
X135965350Y-199538900D02*
X135841541Y-199600804D01*
X135841541Y-199600804D02*
X135470112Y-199600804D01*
X135470112Y-199600804D02*
X135346303Y-199538900D01*
X135346303Y-199538900D02*
X135284398Y-199476995D01*
D10*
D11*
X185965350Y-198734138D02*
X185965350Y-199600804D01*
X185655826Y-198238900D02*
X185346303Y-199167471D01*
X185346303Y-199167471D02*
X186151064Y-199167471D01*
D10*
D11*
X236027255Y-198300804D02*
X235408207Y-198300804D01*
X235408207Y-198300804D02*
X235346303Y-198919852D01*
X235346303Y-198919852D02*
X235408207Y-198857947D01*
X235408207Y-198857947D02*
X235532017Y-198796042D01*
X235532017Y-198796042D02*
X235841541Y-198796042D01*
X235841541Y-198796042D02*
X235965350Y-198857947D01*
X235965350Y-198857947D02*
X236027255Y-198919852D01*
X236027255Y-198919852D02*
X236089160Y-199043661D01*
X236089160Y-199043661D02*
X236089160Y-199353185D01*
X236089160Y-199353185D02*
X236027255Y-199476995D01*
X236027255Y-199476995D02*
X235965350Y-199538900D01*
X235965350Y-199538900D02*
X235841541Y-199600804D01*
X235841541Y-199600804D02*
X235532017Y-199600804D01*
X235532017Y-199600804D02*
X235408207Y-199538900D01*
X235408207Y-199538900D02*
X235346303Y-199476995D01*
D10*
D11*
X285965350Y-198300804D02*
X285717731Y-198300804D01*
X285717731Y-198300804D02*
X285593922Y-198362709D01*
X285593922Y-198362709D02*
X285532017Y-198424614D01*
X285532017Y-198424614D02*
X285408207Y-198610328D01*
X285408207Y-198610328D02*
X285346303Y-198857947D01*
X285346303Y-198857947D02*
X285346303Y-199353185D01*
X285346303Y-199353185D02*
X285408207Y-199476995D01*
X285408207Y-199476995D02*
X285470112Y-199538900D01*
X285470112Y-199538900D02*
X285593922Y-199600804D01*
X285593922Y-199600804D02*
X285841541Y-199600804D01*
X285841541Y-199600804D02*
X285965350Y-199538900D01*
X285965350Y-199538900D02*
X286027255Y-199476995D01*
X286027255Y-199476995D02*
X286089160Y-199353185D01*
X286089160Y-199353185D02*
X286089160Y-199043661D01*
X286089160Y-199043661D02*
X286027255Y-198919852D01*
X286027255Y-198919852D02*
X285965350Y-198857947D01*
X285965350Y-198857947D02*
X285841541Y-198796042D01*
X285841541Y-198796042D02*
X285593922Y-198796042D01*
X285593922Y-198796042D02*
X285470112Y-198857947D01*
X285470112Y-198857947D02*
X285408207Y-198919852D01*
X285408207Y-198919852D02*
X285346303Y-199043661D01*
D10*
D11*
X10000000Y-60000000D02*
X12000000Y-60000000D01*
D10*
D11*
X10000000Y-110000000D02*
X12000000Y-110000000D01*
D10*
D11*
X10000000Y-160000000D02*
X12000000Y-160000000D01*
D10*
D11*
X10690476Y-35222176D02*
X11309523Y-35222176D01*
X10566666Y-35593604D02*
X10999999Y-34293604D01*
X10999999Y-34293604D02*
X11433333Y-35593604D01*
D10*
D11*
X11092857Y-84912652D02*
X11278571Y-84974557D01*
X11278571Y-84974557D02*
X11340476Y-85036461D01*
X11340476Y-85036461D02*
X11402380Y-85160271D01*
X11402380Y-85160271D02*
X11402380Y-85345985D01*
X11402380Y-85345985D02*
X11340476Y-85469795D01*
X11340476Y-85469795D02*
X11278571Y-85531700D01*
X11278571Y-85531700D02*
X11154761Y-85593604D01*
X11154761Y-85593604D02*
X10659523Y-85593604D01*
X10659523Y-85593604D02*
X10659523Y-84293604D01*
X10659523Y-84293604D02*
X11092857Y-84293604D01*
X11092857Y-84293604D02*
X11216666Y-84355509D01*
X11216666Y-84355509D02*
X11278571Y-84417414D01*
X11278571Y-84417414D02*
X11340476Y-84541223D01*
X11340476Y-84541223D02*
X11340476Y-84665033D01*
X11340476Y-84665033D02*
X11278571Y-84788842D01*
X11278571Y-84788842D02*
X11216666Y-84850747D01*
X11216666Y-84850747D02*
X11092857Y-84912652D01*
X11092857Y-84912652D02*
X10659523Y-84912652D01*
D10*
D11*
X11402380Y-135469795D02*
X11340476Y-135531700D01*
X11340476Y-135531700D02*
X11154761Y-135593604D01*
X11154761Y-135593604D02*
X11030952Y-135593604D01*
X11030952Y-135593604D02*
X10845238Y-135531700D01*
X10845238Y-135531700D02*
X10721428Y-135407890D01*
X10721428Y-135407890D02*
X10659523Y-135284080D01*
X10659523Y-135284080D02*
X10597619Y-135036461D01*
X10597619Y-135036461D02*
X10597619Y-134850747D01*
X10597619Y-134850747D02*
X10659523Y-134603128D01*
X10659523Y-134603128D02*
X10721428Y-134479319D01*
X10721428Y-134479319D02*
X10845238Y-134355509D01*
X10845238Y-134355509D02*
X11030952Y-134293604D01*
X11030952Y-134293604D02*
X11154761Y-134293604D01*
X11154761Y-134293604D02*
X11340476Y-134355509D01*
X11340476Y-134355509D02*
X11402380Y-134417414D01*
D10*
D11*
X10659523Y-185593604D02*
X10659523Y-184293604D01*
X10659523Y-184293604D02*
X10969047Y-184293604D01*
X10969047Y-184293604D02*
X11154761Y-184355509D01*
X11154761Y-184355509D02*
X11278571Y-184479319D01*
X11278571Y-184479319D02*
X11340476Y-184603128D01*
X11340476Y-184603128D02*
X11402380Y-184850747D01*
X11402380Y-184850747D02*
X11402380Y-185036461D01*
X11402380Y-185036461D02*
X11340476Y-185284080D01*
X11340476Y-185284080D02*
X11278571Y-185407890D01*
X11278571Y-185407890D02*
X11154761Y-185531700D01*
X11154761Y-185531700D02*
X10969047Y-185593604D01*
X10969047Y-185593604D02*
X10659523Y-185593604D01*
D10*
D11*
X287002200Y-60000000D02*
X285002200Y-60000000D01*
D10*
D11*
X287002200Y-110000000D02*
X285002200Y-110000000D01*
D10*
D11*
X287002200Y-160000000D02*
X285002200Y-160000000D01*
D10*
D11*
X285692676Y-35222176D02*
X286311723Y-35222176D01*
X285568866Y-35593604D02*
X286002199Y-34293604D01*
X286002199Y-34293604D02*
X286435533Y-35593604D01*
D10*
D11*
X286095057Y-84912652D02*
X286280771Y-84974557D01*
X286280771Y-84974557D02*
X286342676Y-85036461D01*
X286342676Y-85036461D02*
X286404580Y-85160271D01*
X286404580Y-85160271D02*
X286404580Y-85345985D01*
X286404580Y-85345985D02*
X286342676Y-85469795D01*
X286342676Y-85469795D02*
X286280771Y-85531700D01*
X286280771Y-85531700D02*
X286156961Y-85593604D01*
X286156961Y-85593604D02*
X285661723Y-85593604D01*
X285661723Y-85593604D02*
X285661723Y-84293604D01*
X285661723Y-84293604D02*
X286095057Y-84293604D01*
X286095057Y-84293604D02*
X286218866Y-84355509D01*
X286218866Y-84355509D02*
X286280771Y-84417414D01*
X286280771Y-84417414D02*
X286342676Y-84541223D01*
X286342676Y-84541223D02*
X286342676Y-84665033D01*
X286342676Y-84665033D02*
X286280771Y-84788842D01*
X286280771Y-84788842D02*
X286218866Y-84850747D01*
X286218866Y-84850747D02*
X286095057Y-84912652D01*
X286095057Y-84912652D02*
X285661723Y-84912652D01*
D10*
D11*
X286404580Y-135469795D02*
X286342676Y-135531700D01*
X286342676Y-135531700D02*
X286156961Y-135593604D01*
X286156961Y-135593604D02*
X286033152Y-135593604D01*
X286033152Y-135593604D02*
X285847438Y-135531700D01*
X285847438Y-135531700D02*
X285723628Y-135407890D01*
X285723628Y-135407890D02*
X285661723Y-135284080D01*
X285661723Y-135284080D02*
X285599819Y-135036461D01*
X285599819Y-135036461D02*
X285599819Y-134850747D01*
X285599819Y-134850747D02*
X285661723Y-134603128D01*
X285661723Y-134603128D02*
X285723628Y-134479319D01*
X285723628Y-134479319D02*
X285847438Y-134355509D01*
X285847438Y-134355509D02*
X286033152Y-134293604D01*
X286033152Y-134293604D02*
X286156961Y-134293604D01*
X286156961Y-134293604D02*
X286342676Y-134355509D01*
X286342676Y-134355509D02*
X286404580Y-134417414D01*
D10*
D11*
X285661723Y-185593604D02*
X285661723Y-184293604D01*
X285661723Y-184293604D02*
X285971247Y-184293604D01*
X285971247Y-184293604D02*
X286156961Y-184355509D01*
X286156961Y-184355509D02*
X286280771Y-184479319D01*
X286280771Y-184479319D02*
X286342676Y-184603128D01*
X286342676Y-184603128D02*
X286404580Y-184850747D01*
X286404580Y-184850747D02*
X286404580Y-185036461D01*
X286404580Y-185036461D02*
X286342676Y-185284080D01*
X286342676Y-185284080D02*
X286280771Y-185407890D01*
X286280771Y-185407890D02*
X286156961Y-185531700D01*
X286156961Y-185531700D02*
X285971247Y-185593604D01*
X285971247Y-185593604D02*
X285661723Y-185593604D01*
D10*
D11*
X200458026Y-193793328D02*
X200458026Y-192293328D01*
X200458026Y-192293328D02*
X200815169Y-192293328D01*
X200815169Y-192293328D02*
X201029455Y-192364757D01*
X201029455Y-192364757D02*
X201172312Y-192507614D01*
X201172312Y-192507614D02*
X201243741Y-192650471D01*
X201243741Y-192650471D02*
X201315169Y-192936185D01*
X201315169Y-192936185D02*
X201315169Y-193150471D01*
X201315169Y-193150471D02*
X201243741Y-193436185D01*
X201243741Y-193436185D02*
X201172312Y-193579042D01*
X201172312Y-193579042D02*
X201029455Y-193721900D01*
X201029455Y-193721900D02*
X200815169Y-193793328D01*
X200815169Y-193793328D02*
X200458026Y-193793328D01*
X202600884Y-193793328D02*
X202600884Y-193007614D01*
X202600884Y-193007614D02*
X202529455Y-192864757D01*
X202529455Y-192864757D02*
X202386598Y-192793328D01*
X202386598Y-192793328D02*
X202100884Y-192793328D01*
X202100884Y-192793328D02*
X201958026Y-192864757D01*
X202600884Y-193721900D02*
X202458026Y-193793328D01*
X202458026Y-193793328D02*
X202100884Y-193793328D01*
X202100884Y-193793328D02*
X201958026Y-193721900D01*
X201958026Y-193721900D02*
X201886598Y-193579042D01*
X201886598Y-193579042D02*
X201886598Y-193436185D01*
X201886598Y-193436185D02*
X201958026Y-193293328D01*
X201958026Y-193293328D02*
X202100884Y-193221900D01*
X202100884Y-193221900D02*
X202458026Y-193221900D01*
X202458026Y-193221900D02*
X202600884Y-193150471D01*
X203100884Y-192793328D02*
X203672312Y-192793328D01*
X203315169Y-192293328D02*
X203315169Y-193579042D01*
X203315169Y-193579042D02*
X203386598Y-193721900D01*
X203386598Y-193721900D02*
X203529455Y-193793328D01*
X203529455Y-193793328D02*
X203672312Y-193793328D01*
X204743741Y-193721900D02*
X204600884Y-193793328D01*
X204600884Y-193793328D02*
X204315170Y-193793328D01*
X204315170Y-193793328D02*
X204172312Y-193721900D01*
X204172312Y-193721900D02*
X204100884Y-193579042D01*
X204100884Y-193579042D02*
X204100884Y-193007614D01*
X204100884Y-193007614D02*
X204172312Y-192864757D01*
X204172312Y-192864757D02*
X204315170Y-192793328D01*
X204315170Y-192793328D02*
X204600884Y-192793328D01*
X204600884Y-192793328D02*
X204743741Y-192864757D01*
X204743741Y-192864757D02*
X204815170Y-193007614D01*
X204815170Y-193007614D02*
X204815170Y-193150471D01*
X204815170Y-193150471D02*
X204100884Y-193293328D01*
X205458026Y-193650471D02*
X205529455Y-193721900D01*
X205529455Y-193721900D02*
X205458026Y-193793328D01*
X205458026Y-193793328D02*
X205386598Y-193721900D01*
X205386598Y-193721900D02*
X205458026Y-193650471D01*
X205458026Y-193650471D02*
X205458026Y-193793328D01*
X205458026Y-192864757D02*
X205529455Y-192936185D01*
X205529455Y-192936185D02*
X205458026Y-193007614D01*
X205458026Y-193007614D02*
X205386598Y-192936185D01*
X205386598Y-192936185D02*
X205458026Y-192864757D01*
X205458026Y-192864757D02*
X205458026Y-193007614D01*
D10*
D11*
X177002200Y-194507200D02*
X285002200Y-194507200D01*
D10*
D11*
X178458026Y-196593328D02*
X178458026Y-195093328D01*
X179315169Y-196593328D02*
X178672312Y-195736185D01*
X179315169Y-195093328D02*
X178458026Y-195950471D01*
X179958026Y-196593328D02*
X179958026Y-195593328D01*
X179958026Y-195093328D02*
X179886598Y-195164757D01*
X179886598Y-195164757D02*
X179958026Y-195236185D01*
X179958026Y-195236185D02*
X180029455Y-195164757D01*
X180029455Y-195164757D02*
X179958026Y-195093328D01*
X179958026Y-195093328D02*
X179958026Y-195236185D01*
X181529455Y-196450471D02*
X181458027Y-196521900D01*
X181458027Y-196521900D02*
X181243741Y-196593328D01*
X181243741Y-196593328D02*
X181100884Y-196593328D01*
X181100884Y-196593328D02*
X180886598Y-196521900D01*
X180886598Y-196521900D02*
X180743741Y-196379042D01*
X180743741Y-196379042D02*
X180672312Y-196236185D01*
X180672312Y-196236185D02*
X180600884Y-195950471D01*
X180600884Y-195950471D02*
X180600884Y-195736185D01*
X180600884Y-195736185D02*
X180672312Y-195450471D01*
X180672312Y-195450471D02*
X180743741Y-195307614D01*
X180743741Y-195307614D02*
X180886598Y-195164757D01*
X180886598Y-195164757D02*
X181100884Y-195093328D01*
X181100884Y-195093328D02*
X181243741Y-195093328D01*
X181243741Y-195093328D02*
X181458027Y-195164757D01*
X181458027Y-195164757D02*
X181529455Y-195236185D01*
X182815170Y-196593328D02*
X182815170Y-195807614D01*
X182815170Y-195807614D02*
X182743741Y-195664757D01*
X182743741Y-195664757D02*
X182600884Y-195593328D01*
X182600884Y-195593328D02*
X182315170Y-195593328D01*
X182315170Y-195593328D02*
X182172312Y-195664757D01*
X182815170Y-196521900D02*
X182672312Y-196593328D01*
X182672312Y-196593328D02*
X182315170Y-196593328D01*
X182315170Y-196593328D02*
X182172312Y-196521900D01*
X182172312Y-196521900D02*
X182100884Y-196379042D01*
X182100884Y-196379042D02*
X182100884Y-196236185D01*
X182100884Y-196236185D02*
X182172312Y-196093328D01*
X182172312Y-196093328D02*
X182315170Y-196021900D01*
X182315170Y-196021900D02*
X182672312Y-196021900D01*
X182672312Y-196021900D02*
X182815170Y-195950471D01*
X184172313Y-196593328D02*
X184172313Y-195093328D01*
X184172313Y-196521900D02*
X184029455Y-196593328D01*
X184029455Y-196593328D02*
X183743741Y-196593328D01*
X183743741Y-196593328D02*
X183600884Y-196521900D01*
X183600884Y-196521900D02*
X183529455Y-196450471D01*
X183529455Y-196450471D02*
X183458027Y-196307614D01*
X183458027Y-196307614D02*
X183458027Y-195879042D01*
X183458027Y-195879042D02*
X183529455Y-195736185D01*
X183529455Y-195736185D02*
X183600884Y-195664757D01*
X183600884Y-195664757D02*
X183743741Y-195593328D01*
X183743741Y-195593328D02*
X184029455Y-195593328D01*
X184029455Y-195593328D02*
X184172313Y-195664757D01*
X186029455Y-195807614D02*
X186529455Y-195807614D01*
X186743741Y-196593328D02*
X186029455Y-196593328D01*
X186029455Y-196593328D02*
X186029455Y-195093328D01*
X186029455Y-195093328D02*
X186743741Y-195093328D01*
X187386598Y-196450471D02*
X187458027Y-196521900D01*
X187458027Y-196521900D02*
X187386598Y-196593328D01*
X187386598Y-196593328D02*
X187315170Y-196521900D01*
X187315170Y-196521900D02*
X187386598Y-196450471D01*
X187386598Y-196450471D02*
X187386598Y-196593328D01*
X188100884Y-196593328D02*
X188100884Y-195093328D01*
X188100884Y-195093328D02*
X188458027Y-195093328D01*
X188458027Y-195093328D02*
X188672313Y-195164757D01*
X188672313Y-195164757D02*
X188815170Y-195307614D01*
X188815170Y-195307614D02*
X188886599Y-195450471D01*
X188886599Y-195450471D02*
X188958027Y-195736185D01*
X188958027Y-195736185D02*
X188958027Y-195950471D01*
X188958027Y-195950471D02*
X188886599Y-196236185D01*
X188886599Y-196236185D02*
X188815170Y-196379042D01*
X188815170Y-196379042D02*
X188672313Y-196521900D01*
X188672313Y-196521900D02*
X188458027Y-196593328D01*
X188458027Y-196593328D02*
X188100884Y-196593328D01*
X189600884Y-196450471D02*
X189672313Y-196521900D01*
X189672313Y-196521900D02*
X189600884Y-196593328D01*
X189600884Y-196593328D02*
X189529456Y-196521900D01*
X189529456Y-196521900D02*
X189600884Y-196450471D01*
X189600884Y-196450471D02*
X189600884Y-196593328D01*
X190243742Y-196164757D02*
X190958028Y-196164757D01*
X190100885Y-196593328D02*
X190600885Y-195093328D01*
X190600885Y-195093328D02*
X191100885Y-196593328D01*
X191600884Y-196450471D02*
X191672313Y-196521900D01*
X191672313Y-196521900D02*
X191600884Y-196593328D01*
X191600884Y-196593328D02*
X191529456Y-196521900D01*
X191529456Y-196521900D02*
X191600884Y-196450471D01*
X191600884Y-196450471D02*
X191600884Y-196593328D01*
X193529456Y-196593328D02*
X193815170Y-196593328D01*
X193815170Y-196593328D02*
X193958027Y-196521900D01*
X193958027Y-196521900D02*
X194029456Y-196450471D01*
X194029456Y-196450471D02*
X194172313Y-196236185D01*
X194172313Y-196236185D02*
X194243742Y-195950471D01*
X194243742Y-195950471D02*
X194243742Y-195379042D01*
X194243742Y-195379042D02*
X194172313Y-195236185D01*
X194172313Y-195236185D02*
X194100885Y-195164757D01*
X194100885Y-195164757D02*
X193958027Y-195093328D01*
X193958027Y-195093328D02*
X193672313Y-195093328D01*
X193672313Y-195093328D02*
X193529456Y-195164757D01*
X193529456Y-195164757D02*
X193458027Y-195236185D01*
X193458027Y-195236185D02*
X193386599Y-195379042D01*
X193386599Y-195379042D02*
X193386599Y-195736185D01*
X193386599Y-195736185D02*
X193458027Y-195879042D01*
X193458027Y-195879042D02*
X193529456Y-195950471D01*
X193529456Y-195950471D02*
X193672313Y-196021900D01*
X193672313Y-196021900D02*
X193958027Y-196021900D01*
X193958027Y-196021900D02*
X194100885Y-195950471D01*
X194100885Y-195950471D02*
X194172313Y-195879042D01*
X194172313Y-195879042D02*
X194243742Y-195736185D01*
X194886598Y-196450471D02*
X194958027Y-196521900D01*
X194958027Y-196521900D02*
X194886598Y-196593328D01*
X194886598Y-196593328D02*
X194815170Y-196521900D01*
X194815170Y-196521900D02*
X194886598Y-196450471D01*
X194886598Y-196450471D02*
X194886598Y-196593328D01*
X195886599Y-195093328D02*
X196029456Y-195093328D01*
X196029456Y-195093328D02*
X196172313Y-195164757D01*
X196172313Y-195164757D02*
X196243742Y-195236185D01*
X196243742Y-195236185D02*
X196315170Y-195379042D01*
X196315170Y-195379042D02*
X196386599Y-195664757D01*
X196386599Y-195664757D02*
X196386599Y-196021900D01*
X196386599Y-196021900D02*
X196315170Y-196307614D01*
X196315170Y-196307614D02*
X196243742Y-196450471D01*
X196243742Y-196450471D02*
X196172313Y-196521900D01*
X196172313Y-196521900D02*
X196029456Y-196593328D01*
X196029456Y-196593328D02*
X195886599Y-196593328D01*
X195886599Y-196593328D02*
X195743742Y-196521900D01*
X195743742Y-196521900D02*
X195672313Y-196450471D01*
X195672313Y-196450471D02*
X195600884Y-196307614D01*
X195600884Y-196307614D02*
X195529456Y-196021900D01*
X195529456Y-196021900D02*
X195529456Y-195664757D01*
X195529456Y-195664757D02*
X195600884Y-195379042D01*
X195600884Y-195379042D02*
X195672313Y-195236185D01*
X195672313Y-195236185D02*
X195743742Y-195164757D01*
X195743742Y-195164757D02*
X195886599Y-195093328D01*
X197029455Y-196450471D02*
X197100884Y-196521900D01*
X197100884Y-196521900D02*
X197029455Y-196593328D01*
X197029455Y-196593328D02*
X196958027Y-196521900D01*
X196958027Y-196521900D02*
X197029455Y-196450471D01*
X197029455Y-196450471D02*
X197029455Y-196593328D01*
X198029456Y-195093328D02*
X198172313Y-195093328D01*
X198172313Y-195093328D02*
X198315170Y-195164757D01*
X198315170Y-195164757D02*
X198386599Y-195236185D01*
X198386599Y-195236185D02*
X198458027Y-195379042D01*
X198458027Y-195379042D02*
X198529456Y-195664757D01*
X198529456Y-195664757D02*
X198529456Y-196021900D01*
X198529456Y-196021900D02*
X198458027Y-196307614D01*
X198458027Y-196307614D02*
X198386599Y-196450471D01*
X198386599Y-196450471D02*
X198315170Y-196521900D01*
X198315170Y-196521900D02*
X198172313Y-196593328D01*
X198172313Y-196593328D02*
X198029456Y-196593328D01*
X198029456Y-196593328D02*
X197886599Y-196521900D01*
X197886599Y-196521900D02*
X197815170Y-196450471D01*
X197815170Y-196450471D02*
X197743741Y-196307614D01*
X197743741Y-196307614D02*
X197672313Y-196021900D01*
X197672313Y-196021900D02*
X197672313Y-195664757D01*
X197672313Y-195664757D02*
X197743741Y-195379042D01*
X197743741Y-195379042D02*
X197815170Y-195236185D01*
X197815170Y-195236185D02*
X197886599Y-195164757D01*
X197886599Y-195164757D02*
X198029456Y-195093328D01*
D10*
D11*
X177002200Y-191507200D02*
X285002200Y-191507200D01*
D10*
D12*
X264413853Y-193785528D02*
X263913853Y-193071242D01*
X263556710Y-193785528D02*
X263556710Y-192285528D01*
X263556710Y-192285528D02*
X264128139Y-192285528D01*
X264128139Y-192285528D02*
X264270996Y-192356957D01*
X264270996Y-192356957D02*
X264342425Y-192428385D01*
X264342425Y-192428385D02*
X264413853Y-192571242D01*
X264413853Y-192571242D02*
X264413853Y-192785528D01*
X264413853Y-192785528D02*
X264342425Y-192928385D01*
X264342425Y-192928385D02*
X264270996Y-192999814D01*
X264270996Y-192999814D02*
X264128139Y-193071242D01*
X264128139Y-193071242D02*
X263556710Y-193071242D01*
X265628139Y-193714100D02*
X265485282Y-193785528D01*
X265485282Y-193785528D02*
X265199568Y-193785528D01*
X265199568Y-193785528D02*
X265056710Y-193714100D01*
X265056710Y-193714100D02*
X264985282Y-193571242D01*
X264985282Y-193571242D02*
X264985282Y-192999814D01*
X264985282Y-192999814D02*
X265056710Y-192856957D01*
X265056710Y-192856957D02*
X265199568Y-192785528D01*
X265199568Y-192785528D02*
X265485282Y-192785528D01*
X265485282Y-192785528D02*
X265628139Y-192856957D01*
X265628139Y-192856957D02*
X265699568Y-192999814D01*
X265699568Y-192999814D02*
X265699568Y-193142671D01*
X265699568Y-193142671D02*
X264985282Y-193285528D01*
X266199567Y-192785528D02*
X266556710Y-193785528D01*
X266556710Y-193785528D02*
X266913853Y-192785528D01*
X267485281Y-193642671D02*
X267556710Y-193714100D01*
X267556710Y-193714100D02*
X267485281Y-193785528D01*
X267485281Y-193785528D02*
X267413853Y-193714100D01*
X267413853Y-193714100D02*
X267485281Y-193642671D01*
X267485281Y-193642671D02*
X267485281Y-193785528D01*
X267485281Y-192856957D02*
X267556710Y-192928385D01*
X267556710Y-192928385D02*
X267485281Y-192999814D01*
X267485281Y-192999814D02*
X267413853Y-192928385D01*
X267413853Y-192928385D02*
X267485281Y-192856957D01*
X267485281Y-192856957D02*
X267485281Y-192999814D01*
D10*
D11*
X178386598Y-193721900D02*
X178600884Y-193793328D01*
X178600884Y-193793328D02*
X178958026Y-193793328D01*
X178958026Y-193793328D02*
X179100884Y-193721900D01*
X179100884Y-193721900D02*
X179172312Y-193650471D01*
X179172312Y-193650471D02*
X179243741Y-193507614D01*
X179243741Y-193507614D02*
X179243741Y-193364757D01*
X179243741Y-193364757D02*
X179172312Y-193221900D01*
X179172312Y-193221900D02*
X179100884Y-193150471D01*
X179100884Y-193150471D02*
X178958026Y-193079042D01*
X178958026Y-193079042D02*
X178672312Y-193007614D01*
X178672312Y-193007614D02*
X178529455Y-192936185D01*
X178529455Y-192936185D02*
X178458026Y-192864757D01*
X178458026Y-192864757D02*
X178386598Y-192721900D01*
X178386598Y-192721900D02*
X178386598Y-192579042D01*
X178386598Y-192579042D02*
X178458026Y-192436185D01*
X178458026Y-192436185D02*
X178529455Y-192364757D01*
X178529455Y-192364757D02*
X178672312Y-192293328D01*
X178672312Y-192293328D02*
X179029455Y-192293328D01*
X179029455Y-192293328D02*
X179243741Y-192364757D01*
X179886597Y-193793328D02*
X179886597Y-192793328D01*
X179886597Y-192293328D02*
X179815169Y-192364757D01*
X179815169Y-192364757D02*
X179886597Y-192436185D01*
X179886597Y-192436185D02*
X179958026Y-192364757D01*
X179958026Y-192364757D02*
X179886597Y-192293328D01*
X179886597Y-192293328D02*
X179886597Y-192436185D01*
X180458026Y-192793328D02*
X181243741Y-192793328D01*
X181243741Y-192793328D02*
X180458026Y-193793328D01*
X180458026Y-193793328D02*
X181243741Y-193793328D01*
X182386598Y-193721900D02*
X182243741Y-193793328D01*
X182243741Y-193793328D02*
X181958027Y-193793328D01*
X181958027Y-193793328D02*
X181815169Y-193721900D01*
X181815169Y-193721900D02*
X181743741Y-193579042D01*
X181743741Y-193579042D02*
X181743741Y-193007614D01*
X181743741Y-193007614D02*
X181815169Y-192864757D01*
X181815169Y-192864757D02*
X181958027Y-192793328D01*
X181958027Y-192793328D02*
X182243741Y-192793328D01*
X182243741Y-192793328D02*
X182386598Y-192864757D01*
X182386598Y-192864757D02*
X182458027Y-193007614D01*
X182458027Y-193007614D02*
X182458027Y-193150471D01*
X182458027Y-193150471D02*
X181743741Y-193293328D01*
X183100883Y-193650471D02*
X183172312Y-193721900D01*
X183172312Y-193721900D02*
X183100883Y-193793328D01*
X183100883Y-193793328D02*
X183029455Y-193721900D01*
X183029455Y-193721900D02*
X183100883Y-193650471D01*
X183100883Y-193650471D02*
X183100883Y-193793328D01*
X183100883Y-192864757D02*
X183172312Y-192936185D01*
X183172312Y-192936185D02*
X183100883Y-193007614D01*
X183100883Y-193007614D02*
X183029455Y-192936185D01*
X183029455Y-192936185D02*
X183100883Y-192864757D01*
X183100883Y-192864757D02*
X183100883Y-193007614D01*
X184886598Y-193364757D02*
X185600884Y-193364757D01*
X184743741Y-193793328D02*
X185243741Y-192293328D01*
X185243741Y-192293328D02*
X185743741Y-193793328D01*
X186886598Y-192793328D02*
X186886598Y-193793328D01*
X186529455Y-192221900D02*
X186172312Y-193293328D01*
X186172312Y-193293328D02*
X187100883Y-193293328D01*
D10*
D11*
X263458026Y-196593328D02*
X263458026Y-195093328D01*
X264815170Y-196593328D02*
X264815170Y-195093328D01*
X264815170Y-196521900D02*
X264672312Y-196593328D01*
X264672312Y-196593328D02*
X264386598Y-196593328D01*
X264386598Y-196593328D02*
X264243741Y-196521900D01*
X264243741Y-196521900D02*
X264172312Y-196450471D01*
X264172312Y-196450471D02*
X264100884Y-196307614D01*
X264100884Y-196307614D02*
X264100884Y-195879042D01*
X264100884Y-195879042D02*
X264172312Y-195736185D01*
X264172312Y-195736185D02*
X264243741Y-195664757D01*
X264243741Y-195664757D02*
X264386598Y-195593328D01*
X264386598Y-195593328D02*
X264672312Y-195593328D01*
X264672312Y-195593328D02*
X264815170Y-195664757D01*
X265529455Y-196450471D02*
X265600884Y-196521900D01*
X265600884Y-196521900D02*
X265529455Y-196593328D01*
X265529455Y-196593328D02*
X265458027Y-196521900D01*
X265458027Y-196521900D02*
X265529455Y-196450471D01*
X265529455Y-196450471D02*
X265529455Y-196593328D01*
X265529455Y-195664757D02*
X265600884Y-195736185D01*
X265600884Y-195736185D02*
X265529455Y-195807614D01*
X265529455Y-195807614D02*
X265458027Y-195736185D01*
X265458027Y-195736185D02*
X265529455Y-195664757D01*
X265529455Y-195664757D02*
X265529455Y-195807614D01*
X268100884Y-195093328D02*
X267386598Y-195093328D01*
X267386598Y-195093328D02*
X267315170Y-195807614D01*
X267315170Y-195807614D02*
X267386598Y-195736185D01*
X267386598Y-195736185D02*
X267529456Y-195664757D01*
X267529456Y-195664757D02*
X267886598Y-195664757D01*
X267886598Y-195664757D02*
X268029456Y-195736185D01*
X268029456Y-195736185D02*
X268100884Y-195807614D01*
X268100884Y-195807614D02*
X268172313Y-195950471D01*
X268172313Y-195950471D02*
X268172313Y-196307614D01*
X268172313Y-196307614D02*
X268100884Y-196450471D01*
X268100884Y-196450471D02*
X268029456Y-196521900D01*
X268029456Y-196521900D02*
X267886598Y-196593328D01*
X267886598Y-196593328D02*
X267529456Y-196593328D01*
X267529456Y-196593328D02*
X267386598Y-196521900D01*
X267386598Y-196521900D02*
X267315170Y-196450471D01*
X269886598Y-195021900D02*
X268600884Y-196950471D01*
X270458027Y-196593328D02*
X270743741Y-196593328D01*
X270743741Y-196593328D02*
X270886598Y-196521900D01*
X270886598Y-196521900D02*
X270958027Y-196450471D01*
X270958027Y-196450471D02*
X271100884Y-196236185D01*
X271100884Y-196236185D02*
X271172313Y-195950471D01*
X271172313Y-195950471D02*
X271172313Y-195379042D01*
X271172313Y-195379042D02*
X271100884Y-195236185D01*
X271100884Y-195236185D02*
X271029456Y-195164757D01*
X271029456Y-195164757D02*
X270886598Y-195093328D01*
X270886598Y-195093328D02*
X270600884Y-195093328D01*
X270600884Y-195093328D02*
X270458027Y-195164757D01*
X270458027Y-195164757D02*
X270386598Y-195236185D01*
X270386598Y-195236185D02*
X270315170Y-195379042D01*
X270315170Y-195379042D02*
X270315170Y-195736185D01*
X270315170Y-195736185D02*
X270386598Y-195879042D01*
X270386598Y-195879042D02*
X270458027Y-195950471D01*
X270458027Y-195950471D02*
X270600884Y-196021900D01*
X270600884Y-196021900D02*
X270886598Y-196021900D01*
X270886598Y-196021900D02*
X271029456Y-195950471D01*
X271029456Y-195950471D02*
X271100884Y-195879042D01*
X271100884Y-195879042D02*
X271172313Y-195736185D01*
D10*
D11*
X177002200Y-187507200D02*
X285002200Y-187507200D01*
D10*
D13*
X178693928Y-188211638D02*
X179836785Y-188211638D01*
X179015357Y-190211638D02*
X179265357Y-188211638D01*
X180253452Y-190211638D02*
X180420119Y-188878304D01*
X180503452Y-188211638D02*
X180396309Y-188306876D01*
X180396309Y-188306876D02*
X180479643Y-188402114D01*
X180479643Y-188402114D02*
X180586786Y-188306876D01*
X180586786Y-188306876D02*
X180503452Y-188211638D01*
X180503452Y-188211638D02*
X180479643Y-188402114D01*
X181086786Y-188878304D02*
X181848690Y-188878304D01*
X181455833Y-188211638D02*
X181241548Y-189925923D01*
X181241548Y-189925923D02*
X181312976Y-190116400D01*
X181312976Y-190116400D02*
X181491548Y-190211638D01*
X181491548Y-190211638D02*
X181682024Y-190211638D01*
X182634405Y-190211638D02*
X182455833Y-190116400D01*
X182455833Y-190116400D02*
X182384405Y-189925923D01*
X182384405Y-189925923D02*
X182598690Y-188211638D01*
X184170119Y-190116400D02*
X183967738Y-190211638D01*
X183967738Y-190211638D02*
X183586785Y-190211638D01*
X183586785Y-190211638D02*
X183408214Y-190116400D01*
X183408214Y-190116400D02*
X183336785Y-189925923D01*
X183336785Y-189925923D02*
X183432024Y-189164019D01*
X183432024Y-189164019D02*
X183551071Y-188973542D01*
X183551071Y-188973542D02*
X183753452Y-188878304D01*
X183753452Y-188878304D02*
X184134404Y-188878304D01*
X184134404Y-188878304D02*
X184312976Y-188973542D01*
X184312976Y-188973542D02*
X184384404Y-189164019D01*
X184384404Y-189164019D02*
X184360595Y-189354495D01*
X184360595Y-189354495D02*
X183384404Y-189544971D01*
X185134405Y-190021161D02*
X185217738Y-190116400D01*
X185217738Y-190116400D02*
X185110595Y-190211638D01*
X185110595Y-190211638D02*
X185027262Y-190116400D01*
X185027262Y-190116400D02*
X185134405Y-190021161D01*
X185134405Y-190021161D02*
X185110595Y-190211638D01*
X185265357Y-188973542D02*
X185348690Y-189068780D01*
X185348690Y-189068780D02*
X185241548Y-189164019D01*
X185241548Y-189164019D02*
X185158214Y-189068780D01*
X185158214Y-189068780D02*
X185265357Y-188973542D01*
X185265357Y-188973542D02*
X185241548Y-189164019D01*
D10*
D11*
X178958026Y-185607614D02*
X178458026Y-185607614D01*
X178458026Y-186393328D02*
X178458026Y-184893328D01*
X178458026Y-184893328D02*
X179172312Y-184893328D01*
X179743740Y-186393328D02*
X179743740Y-185393328D01*
X179743740Y-184893328D02*
X179672312Y-184964757D01*
X179672312Y-184964757D02*
X179743740Y-185036185D01*
X179743740Y-185036185D02*
X179815169Y-184964757D01*
X179815169Y-184964757D02*
X179743740Y-184893328D01*
X179743740Y-184893328D02*
X179743740Y-185036185D01*
X180672312Y-186393328D02*
X180529455Y-186321900D01*
X180529455Y-186321900D02*
X180458026Y-186179042D01*
X180458026Y-186179042D02*
X180458026Y-184893328D01*
X181815169Y-186321900D02*
X181672312Y-186393328D01*
X181672312Y-186393328D02*
X181386598Y-186393328D01*
X181386598Y-186393328D02*
X181243740Y-186321900D01*
X181243740Y-186321900D02*
X181172312Y-186179042D01*
X181172312Y-186179042D02*
X181172312Y-185607614D01*
X181172312Y-185607614D02*
X181243740Y-185464757D01*
X181243740Y-185464757D02*
X181386598Y-185393328D01*
X181386598Y-185393328D02*
X181672312Y-185393328D01*
X181672312Y-185393328D02*
X181815169Y-185464757D01*
X181815169Y-185464757D02*
X181886598Y-185607614D01*
X181886598Y-185607614D02*
X181886598Y-185750471D01*
X181886598Y-185750471D02*
X181172312Y-185893328D01*
X182529454Y-186250471D02*
X182600883Y-186321900D01*
X182600883Y-186321900D02*
X182529454Y-186393328D01*
X182529454Y-186393328D02*
X182458026Y-186321900D01*
X182458026Y-186321900D02*
X182529454Y-186250471D01*
X182529454Y-186250471D02*
X182529454Y-186393328D01*
X182529454Y-185464757D02*
X182600883Y-185536185D01*
X182600883Y-185536185D02*
X182529454Y-185607614D01*
X182529454Y-185607614D02*
X182458026Y-185536185D01*
X182458026Y-185536185D02*
X182529454Y-185464757D01*
X182529454Y-185464757D02*
X182529454Y-185607614D01*
X184386597Y-186393328D02*
X184386597Y-184893328D01*
X184529455Y-185821900D02*
X184958026Y-186393328D01*
X184958026Y-185393328D02*
X184386597Y-185964757D01*
X186172312Y-186321900D02*
X186029455Y-186393328D01*
X186029455Y-186393328D02*
X185743741Y-186393328D01*
X185743741Y-186393328D02*
X185600883Y-186321900D01*
X185600883Y-186321900D02*
X185529455Y-186179042D01*
X185529455Y-186179042D02*
X185529455Y-185607614D01*
X185529455Y-185607614D02*
X185600883Y-185464757D01*
X185600883Y-185464757D02*
X185743741Y-185393328D01*
X185743741Y-185393328D02*
X186029455Y-185393328D01*
X186029455Y-185393328D02*
X186172312Y-185464757D01*
X186172312Y-185464757D02*
X186243741Y-185607614D01*
X186243741Y-185607614D02*
X186243741Y-185750471D01*
X186243741Y-185750471D02*
X185529455Y-185893328D01*
X186743740Y-185393328D02*
X187100883Y-186393328D01*
X187458026Y-185393328D02*
X187100883Y-186393328D01*
X187100883Y-186393328D02*
X186958026Y-186750471D01*
X186958026Y-186750471D02*
X186886597Y-186821900D01*
X186886597Y-186821900D02*
X186743740Y-186893328D01*
X188029454Y-185393328D02*
X188029454Y-186393328D01*
X188029454Y-185536185D02*
X188100883Y-185464757D01*
X188100883Y-185464757D02*
X188243740Y-185393328D01*
X188243740Y-185393328D02*
X188458026Y-185393328D01*
X188458026Y-185393328D02*
X188600883Y-185464757D01*
X188600883Y-185464757D02*
X188672312Y-185607614D01*
X188672312Y-185607614D02*
X188672312Y-186393328D01*
X189958026Y-186321900D02*
X189815169Y-186393328D01*
X189815169Y-186393328D02*
X189529455Y-186393328D01*
X189529455Y-186393328D02*
X189386597Y-186321900D01*
X189386597Y-186321900D02*
X189315169Y-186179042D01*
X189315169Y-186179042D02*
X189315169Y-185607614D01*
X189315169Y-185607614D02*
X189386597Y-185464757D01*
X189386597Y-185464757D02*
X189529455Y-185393328D01*
X189529455Y-185393328D02*
X189815169Y-185393328D01*
X189815169Y-185393328D02*
X189958026Y-185464757D01*
X189958026Y-185464757D02*
X190029455Y-185607614D01*
X190029455Y-185607614D02*
X190029455Y-185750471D01*
X190029455Y-185750471D02*
X189315169Y-185893328D01*
X190672311Y-186393328D02*
X190672311Y-185393328D01*
X190672311Y-185679042D02*
X190743740Y-185536185D01*
X190743740Y-185536185D02*
X190815169Y-185464757D01*
X190815169Y-185464757D02*
X190958026Y-185393328D01*
X190958026Y-185393328D02*
X191100883Y-185393328D01*
X192243740Y-185393328D02*
X192243740Y-186607614D01*
X192243740Y-186607614D02*
X192172311Y-186750471D01*
X192172311Y-186750471D02*
X192100882Y-186821900D01*
X192100882Y-186821900D02*
X191958025Y-186893328D01*
X191958025Y-186893328D02*
X191743740Y-186893328D01*
X191743740Y-186893328D02*
X191600882Y-186821900D01*
X192243740Y-186321900D02*
X192100882Y-186393328D01*
X192100882Y-186393328D02*
X191815168Y-186393328D01*
X191815168Y-186393328D02*
X191672311Y-186321900D01*
X191672311Y-186321900D02*
X191600882Y-186250471D01*
X191600882Y-186250471D02*
X191529454Y-186107614D01*
X191529454Y-186107614D02*
X191529454Y-185679042D01*
X191529454Y-185679042D02*
X191600882Y-185536185D01*
X191600882Y-185536185D02*
X191672311Y-185464757D01*
X191672311Y-185464757D02*
X191815168Y-185393328D01*
X191815168Y-185393328D02*
X192100882Y-185393328D01*
X192100882Y-185393328D02*
X192243740Y-185464757D01*
X192815168Y-185393328D02*
X193172311Y-186393328D01*
X193529454Y-185393328D02*
X193172311Y-186393328D01*
X193172311Y-186393328D02*
X193029454Y-186750471D01*
X193029454Y-186750471D02*
X192958025Y-186821900D01*
X192958025Y-186821900D02*
X192815168Y-186893328D01*
X193743740Y-186536185D02*
X194886597Y-186536185D01*
X195172311Y-186321900D02*
X195315168Y-186393328D01*
X195315168Y-186393328D02*
X195600882Y-186393328D01*
X195600882Y-186393328D02*
X195743739Y-186321900D01*
X195743739Y-186321900D02*
X195815168Y-186179042D01*
X195815168Y-186179042D02*
X195815168Y-186107614D01*
X195815168Y-186107614D02*
X195743739Y-185964757D01*
X195743739Y-185964757D02*
X195600882Y-185893328D01*
X195600882Y-185893328D02*
X195386597Y-185893328D01*
X195386597Y-185893328D02*
X195243739Y-185821900D01*
X195243739Y-185821900D02*
X195172311Y-185679042D01*
X195172311Y-185679042D02*
X195172311Y-185607614D01*
X195172311Y-185607614D02*
X195243739Y-185464757D01*
X195243739Y-185464757D02*
X195386597Y-185393328D01*
X195386597Y-185393328D02*
X195600882Y-185393328D01*
X195600882Y-185393328D02*
X195743739Y-185464757D01*
X197100883Y-186321900D02*
X196958025Y-186393328D01*
X196958025Y-186393328D02*
X196672311Y-186393328D01*
X196672311Y-186393328D02*
X196529454Y-186321900D01*
X196529454Y-186321900D02*
X196458025Y-186250471D01*
X196458025Y-186250471D02*
X196386597Y-186107614D01*
X196386597Y-186107614D02*
X196386597Y-185679042D01*
X196386597Y-185679042D02*
X196458025Y-185536185D01*
X196458025Y-185536185D02*
X196529454Y-185464757D01*
X196529454Y-185464757D02*
X196672311Y-185393328D01*
X196672311Y-185393328D02*
X196958025Y-185393328D01*
X196958025Y-185393328D02*
X197100883Y-185464757D01*
X197743739Y-186393328D02*
X197743739Y-184893328D01*
X198386597Y-186393328D02*
X198386597Y-185607614D01*
X198386597Y-185607614D02*
X198315168Y-185464757D01*
X198315168Y-185464757D02*
X198172311Y-185393328D01*
X198172311Y-185393328D02*
X197958025Y-185393328D01*
X197958025Y-185393328D02*
X197815168Y-185464757D01*
X197815168Y-185464757D02*
X197743739Y-185536185D01*
X199672311Y-186321900D02*
X199529454Y-186393328D01*
X199529454Y-186393328D02*
X199243740Y-186393328D01*
X199243740Y-186393328D02*
X199100882Y-186321900D01*
X199100882Y-186321900D02*
X199029454Y-186179042D01*
X199029454Y-186179042D02*
X199029454Y-185607614D01*
X199029454Y-185607614D02*
X199100882Y-185464757D01*
X199100882Y-185464757D02*
X199243740Y-185393328D01*
X199243740Y-185393328D02*
X199529454Y-185393328D01*
X199529454Y-185393328D02*
X199672311Y-185464757D01*
X199672311Y-185464757D02*
X199743740Y-185607614D01*
X199743740Y-185607614D02*
X199743740Y-185750471D01*
X199743740Y-185750471D02*
X199029454Y-185893328D01*
X200386596Y-186393328D02*
X200386596Y-185393328D01*
X200386596Y-185536185D02*
X200458025Y-185464757D01*
X200458025Y-185464757D02*
X200600882Y-185393328D01*
X200600882Y-185393328D02*
X200815168Y-185393328D01*
X200815168Y-185393328D02*
X200958025Y-185464757D01*
X200958025Y-185464757D02*
X201029454Y-185607614D01*
X201029454Y-185607614D02*
X201029454Y-186393328D01*
X201029454Y-185607614D02*
X201100882Y-185464757D01*
X201100882Y-185464757D02*
X201243739Y-185393328D01*
X201243739Y-185393328D02*
X201458025Y-185393328D01*
X201458025Y-185393328D02*
X201600882Y-185464757D01*
X201600882Y-185464757D02*
X201672311Y-185607614D01*
X201672311Y-185607614D02*
X201672311Y-186393328D01*
X202386596Y-186250471D02*
X202458025Y-186321900D01*
X202458025Y-186321900D02*
X202386596Y-186393328D01*
X202386596Y-186393328D02*
X202315168Y-186321900D01*
X202315168Y-186321900D02*
X202386596Y-186250471D01*
X202386596Y-186250471D02*
X202386596Y-186393328D01*
X203100882Y-186393328D02*
X203100882Y-184893328D01*
X203243740Y-185821900D02*
X203672311Y-186393328D01*
X203672311Y-185393328D02*
X203100882Y-185964757D01*
X204315168Y-186393328D02*
X204315168Y-185393328D01*
X204315168Y-184893328D02*
X204243740Y-184964757D01*
X204243740Y-184964757D02*
X204315168Y-185036185D01*
X204315168Y-185036185D02*
X204386597Y-184964757D01*
X204386597Y-184964757D02*
X204315168Y-184893328D01*
X204315168Y-184893328D02*
X204315168Y-185036185D01*
X205672312Y-186321900D02*
X205529454Y-186393328D01*
X205529454Y-186393328D02*
X205243740Y-186393328D01*
X205243740Y-186393328D02*
X205100883Y-186321900D01*
X205100883Y-186321900D02*
X205029454Y-186250471D01*
X205029454Y-186250471D02*
X204958026Y-186107614D01*
X204958026Y-186107614D02*
X204958026Y-185679042D01*
X204958026Y-185679042D02*
X205029454Y-185536185D01*
X205029454Y-185536185D02*
X205100883Y-185464757D01*
X205100883Y-185464757D02*
X205243740Y-185393328D01*
X205243740Y-185393328D02*
X205529454Y-185393328D01*
X205529454Y-185393328D02*
X205672312Y-185464757D01*
X206958026Y-186393328D02*
X206958026Y-185607614D01*
X206958026Y-185607614D02*
X206886597Y-185464757D01*
X206886597Y-185464757D02*
X206743740Y-185393328D01*
X206743740Y-185393328D02*
X206458026Y-185393328D01*
X206458026Y-185393328D02*
X206315168Y-185464757D01*
X206958026Y-186321900D02*
X206815168Y-186393328D01*
X206815168Y-186393328D02*
X206458026Y-186393328D01*
X206458026Y-186393328D02*
X206315168Y-186321900D01*
X206315168Y-186321900D02*
X206243740Y-186179042D01*
X206243740Y-186179042D02*
X206243740Y-186036185D01*
X206243740Y-186036185D02*
X206315168Y-185893328D01*
X206315168Y-185893328D02*
X206458026Y-185821900D01*
X206458026Y-185821900D02*
X206815168Y-185821900D01*
X206815168Y-185821900D02*
X206958026Y-185750471D01*
X208315169Y-186393328D02*
X208315169Y-184893328D01*
X208315169Y-186321900D02*
X208172311Y-186393328D01*
X208172311Y-186393328D02*
X207886597Y-186393328D01*
X207886597Y-186393328D02*
X207743740Y-186321900D01*
X207743740Y-186321900D02*
X207672311Y-186250471D01*
X207672311Y-186250471D02*
X207600883Y-186107614D01*
X207600883Y-186107614D02*
X207600883Y-185679042D01*
X207600883Y-185679042D02*
X207672311Y-185536185D01*
X207672311Y-185536185D02*
X207743740Y-185464757D01*
X207743740Y-185464757D02*
X207886597Y-185393328D01*
X207886597Y-185393328D02*
X208172311Y-185393328D01*
X208172311Y-185393328D02*
X208315169Y-185464757D01*
X208672312Y-186536185D02*
X209815169Y-186536185D01*
X210172311Y-185393328D02*
X210172311Y-186893328D01*
X210172311Y-185464757D02*
X210315169Y-185393328D01*
X210315169Y-185393328D02*
X210600883Y-185393328D01*
X210600883Y-185393328D02*
X210743740Y-185464757D01*
X210743740Y-185464757D02*
X210815169Y-185536185D01*
X210815169Y-185536185D02*
X210886597Y-185679042D01*
X210886597Y-185679042D02*
X210886597Y-186107614D01*
X210886597Y-186107614D02*
X210815169Y-186250471D01*
X210815169Y-186250471D02*
X210743740Y-186321900D01*
X210743740Y-186321900D02*
X210600883Y-186393328D01*
X210600883Y-186393328D02*
X210315169Y-186393328D01*
X210315169Y-186393328D02*
X210172311Y-186321900D01*
X212172312Y-186321900D02*
X212029454Y-186393328D01*
X212029454Y-186393328D02*
X211743740Y-186393328D01*
X211743740Y-186393328D02*
X211600883Y-186321900D01*
X211600883Y-186321900D02*
X211529454Y-186250471D01*
X211529454Y-186250471D02*
X211458026Y-186107614D01*
X211458026Y-186107614D02*
X211458026Y-185679042D01*
X211458026Y-185679042D02*
X211529454Y-185536185D01*
X211529454Y-185536185D02*
X211600883Y-185464757D01*
X211600883Y-185464757D02*
X211743740Y-185393328D01*
X211743740Y-185393328D02*
X212029454Y-185393328D01*
X212029454Y-185393328D02*
X212172312Y-185464757D01*
X212815168Y-186393328D02*
X212815168Y-184893328D01*
X212815168Y-185464757D02*
X212958026Y-185393328D01*
X212958026Y-185393328D02*
X213243740Y-185393328D01*
X213243740Y-185393328D02*
X213386597Y-185464757D01*
X213386597Y-185464757D02*
X213458026Y-185536185D01*
X213458026Y-185536185D02*
X213529454Y-185679042D01*
X213529454Y-185679042D02*
X213529454Y-186107614D01*
X213529454Y-186107614D02*
X213458026Y-186250471D01*
X213458026Y-186250471D02*
X213386597Y-186321900D01*
X213386597Y-186321900D02*
X213243740Y-186393328D01*
X213243740Y-186393328D02*
X212958026Y-186393328D01*
X212958026Y-186393328D02*
X212815168Y-186321900D01*
D10*
D11*
X177002200Y-181507200D02*
X285002200Y-181507200D01*
D10*
D11*
X178386598Y-183621900D02*
X178600884Y-183693328D01*
X178600884Y-183693328D02*
X178958026Y-183693328D01*
X178958026Y-183693328D02*
X179100884Y-183621900D01*
X179100884Y-183621900D02*
X179172312Y-183550471D01*
X179172312Y-183550471D02*
X179243741Y-183407614D01*
X179243741Y-183407614D02*
X179243741Y-183264757D01*
X179243741Y-183264757D02*
X179172312Y-183121900D01*
X179172312Y-183121900D02*
X179100884Y-183050471D01*
X179100884Y-183050471D02*
X178958026Y-182979042D01*
X178958026Y-182979042D02*
X178672312Y-182907614D01*
X178672312Y-182907614D02*
X178529455Y-182836185D01*
X178529455Y-182836185D02*
X178458026Y-182764757D01*
X178458026Y-182764757D02*
X178386598Y-182621900D01*
X178386598Y-182621900D02*
X178386598Y-182479042D01*
X178386598Y-182479042D02*
X178458026Y-182336185D01*
X178458026Y-182336185D02*
X178529455Y-182264757D01*
X178529455Y-182264757D02*
X178672312Y-182193328D01*
X178672312Y-182193328D02*
X179029455Y-182193328D01*
X179029455Y-182193328D02*
X179243741Y-182264757D01*
X179886597Y-183693328D02*
X179886597Y-182193328D01*
X180529455Y-183693328D02*
X180529455Y-182907614D01*
X180529455Y-182907614D02*
X180458026Y-182764757D01*
X180458026Y-182764757D02*
X180315169Y-182693328D01*
X180315169Y-182693328D02*
X180100883Y-182693328D01*
X180100883Y-182693328D02*
X179958026Y-182764757D01*
X179958026Y-182764757D02*
X179886597Y-182836185D01*
X181815169Y-183621900D02*
X181672312Y-183693328D01*
X181672312Y-183693328D02*
X181386598Y-183693328D01*
X181386598Y-183693328D02*
X181243740Y-183621900D01*
X181243740Y-183621900D02*
X181172312Y-183479042D01*
X181172312Y-183479042D02*
X181172312Y-182907614D01*
X181172312Y-182907614D02*
X181243740Y-182764757D01*
X181243740Y-182764757D02*
X181386598Y-182693328D01*
X181386598Y-182693328D02*
X181672312Y-182693328D01*
X181672312Y-182693328D02*
X181815169Y-182764757D01*
X181815169Y-182764757D02*
X181886598Y-182907614D01*
X181886598Y-182907614D02*
X181886598Y-183050471D01*
X181886598Y-183050471D02*
X181172312Y-183193328D01*
X183100883Y-183621900D02*
X182958026Y-183693328D01*
X182958026Y-183693328D02*
X182672312Y-183693328D01*
X182672312Y-183693328D02*
X182529454Y-183621900D01*
X182529454Y-183621900D02*
X182458026Y-183479042D01*
X182458026Y-183479042D02*
X182458026Y-182907614D01*
X182458026Y-182907614D02*
X182529454Y-182764757D01*
X182529454Y-182764757D02*
X182672312Y-182693328D01*
X182672312Y-182693328D02*
X182958026Y-182693328D01*
X182958026Y-182693328D02*
X183100883Y-182764757D01*
X183100883Y-182764757D02*
X183172312Y-182907614D01*
X183172312Y-182907614D02*
X183172312Y-183050471D01*
X183172312Y-183050471D02*
X182458026Y-183193328D01*
X183600883Y-182693328D02*
X184172311Y-182693328D01*
X183815168Y-182193328D02*
X183815168Y-183479042D01*
X183815168Y-183479042D02*
X183886597Y-183621900D01*
X183886597Y-183621900D02*
X184029454Y-183693328D01*
X184029454Y-183693328D02*
X184172311Y-183693328D01*
X184672311Y-183550471D02*
X184743740Y-183621900D01*
X184743740Y-183621900D02*
X184672311Y-183693328D01*
X184672311Y-183693328D02*
X184600883Y-183621900D01*
X184600883Y-183621900D02*
X184672311Y-183550471D01*
X184672311Y-183550471D02*
X184672311Y-183693328D01*
X184672311Y-182764757D02*
X184743740Y-182836185D01*
X184743740Y-182836185D02*
X184672311Y-182907614D01*
X184672311Y-182907614D02*
X184600883Y-182836185D01*
X184600883Y-182836185D02*
X184672311Y-182764757D01*
X184672311Y-182764757D02*
X184672311Y-182907614D01*
D10*
D11*
X197002200Y-191507200D02*
X197002200Y-194507200D01*
D10*
D11*
X261002200Y-191507200D02*
X261002200Y-198007200D01*
X370334819Y-23094094D02*
X369334819Y-23094094D01*
X369334819Y-23094094D02*
X369334819Y-22855999D01*
X369334819Y-22855999D02*
X369382438Y-22713142D01*
X369382438Y-22713142D02*
X369477676Y-22617904D01*
X369477676Y-22617904D02*
X369572914Y-22570285D01*
X369572914Y-22570285D02*
X369763390Y-22522666D01*
X369763390Y-22522666D02*
X369906247Y-22522666D01*
X369906247Y-22522666D02*
X370096723Y-22570285D01*
X370096723Y-22570285D02*
X370191961Y-22617904D01*
X370191961Y-22617904D02*
X370287200Y-22713142D01*
X370287200Y-22713142D02*
X370334819Y-22855999D01*
X370334819Y-22855999D02*
X370334819Y-23094094D01*
X370334819Y-21570285D02*
X370334819Y-22141713D01*
X370334819Y-21855999D02*
X369334819Y-21855999D01*
X369334819Y-21855999D02*
X369477676Y-21951237D01*
X369477676Y-21951237D02*
X369572914Y-22046475D01*
X369572914Y-22046475D02*
X369620533Y-22141713D01*
X370654819Y-26427904D02*
X369654819Y-26427904D01*
X370654819Y-25856476D02*
X370083390Y-26285047D01*
X369654819Y-25856476D02*
X370226247Y-26427904D01*
X324666666Y-26624819D02*
X324666666Y-27339104D01*
X324666666Y-27339104D02*
X324619047Y-27481961D01*
X324619047Y-27481961D02*
X324523809Y-27577200D01*
X324523809Y-27577200D02*
X324380952Y-27624819D01*
X324380952Y-27624819D02*
X324285714Y-27624819D01*
X325047619Y-26624819D02*
X325666666Y-26624819D01*
X325666666Y-26624819D02*
X325333333Y-27005771D01*
X325333333Y-27005771D02*
X325476190Y-27005771D01*
X325476190Y-27005771D02*
X325571428Y-27053390D01*
X325571428Y-27053390D02*
X325619047Y-27101009D01*
X325619047Y-27101009D02*
X325666666Y-27196247D01*
X325666666Y-27196247D02*
X325666666Y-27434342D01*
X325666666Y-27434342D02*
X325619047Y-27529580D01*
X325619047Y-27529580D02*
X325571428Y-27577200D01*
X325571428Y-27577200D02*
X325476190Y-27624819D01*
X325476190Y-27624819D02*
X325190476Y-27624819D01*
X325190476Y-27624819D02*
X325095238Y-27577200D01*
X325095238Y-27577200D02*
X325047619Y-27529580D01*
X565284819Y18691666D02*
X565999104Y18691666D01*
X565999104Y18691666D02*
X566141961Y18644047D01*
X566141961Y18644047D02*
X566237200Y18548809D01*
X566237200Y18548809D02*
X566284819Y18405952D01*
X566284819Y18405952D02*
X566284819Y18310714D01*
X566284819Y19691666D02*
X566284819Y19120238D01*
X566284819Y19405952D02*
X565284819Y19405952D01*
X565284819Y19405952D02*
X565427676Y19310714D01*
X565427676Y19310714D02*
X565522914Y19215476D01*
X565522914Y19215476D02*
X565570533Y19120238D01*
D10*
X275058455Y-266842530D02*
X276058455Y-266842530D01*
X275058455Y-267413958D02*
X275629884Y-266985387D01*
X276058455Y-267413958D02*
X275487027Y-266842530D01*
X275629884Y-267985387D02*
X275677503Y-267890149D01*
X275677503Y-267890149D02*
X275725122Y-267842530D01*
X275725122Y-267842530D02*
X275820360Y-267794911D01*
X275820360Y-267794911D02*
X275867979Y-267794911D01*
X275867979Y-267794911D02*
X275963217Y-267842530D01*
X275963217Y-267842530D02*
X276010836Y-267890149D01*
X276010836Y-267890149D02*
X276058455Y-267985387D01*
X276058455Y-267985387D02*
X276058455Y-268175863D01*
X276058455Y-268175863D02*
X276010836Y-268271101D01*
X276010836Y-268271101D02*
X275963217Y-268318720D01*
X275963217Y-268318720D02*
X275867979Y-268366339D01*
X275867979Y-268366339D02*
X275820360Y-268366339D01*
X275820360Y-268366339D02*
X275725122Y-268318720D01*
X275725122Y-268318720D02*
X275677503Y-268271101D01*
X275677503Y-268271101D02*
X275629884Y-268175863D01*
X275629884Y-268175863D02*
X275629884Y-267985387D01*
X275629884Y-267985387D02*
X275582265Y-267890149D01*
X275582265Y-267890149D02*
X275534646Y-267842530D01*
X275534646Y-267842530D02*
X275439408Y-267794911D01*
X275439408Y-267794911D02*
X275248932Y-267794911D01*
X275248932Y-267794911D02*
X275153694Y-267842530D01*
X275153694Y-267842530D02*
X275106075Y-267890149D01*
X275106075Y-267890149D02*
X275058455Y-267985387D01*
X275058455Y-267985387D02*
X275058455Y-268175863D01*
X275058455Y-268175863D02*
X275106075Y-268271101D01*
X275106075Y-268271101D02*
X275153694Y-268318720D01*
X275153694Y-268318720D02*
X275248932Y-268366339D01*
X275248932Y-268366339D02*
X275439408Y-268366339D01*
X275439408Y-268366339D02*
X275534646Y-268318720D01*
X275534646Y-268318720D02*
X275582265Y-268271101D01*
X275582265Y-268271101D02*
X275629884Y-268175863D01*
X358539580Y-8217905D02*
X359539580Y-8217905D01*
X358539580Y-8789333D02*
X359111009Y-8360762D01*
X359539580Y-8789333D02*
X358968152Y-8217905D01*
X358539580Y-9741714D02*
X358539580Y-9170286D01*
X358539580Y-9456000D02*
X359539580Y-9456000D01*
X359539580Y-9456000D02*
X359396723Y-9360762D01*
X359396723Y-9360762D02*
X359301485Y-9265524D01*
X359301485Y-9265524D02*
X359253866Y-9170286D01*
D11*
X90834819Y-107782094D02*
X89834819Y-107782094D01*
X89834819Y-107782094D02*
X89834819Y-107543999D01*
X89834819Y-107543999D02*
X89882438Y-107401142D01*
X89882438Y-107401142D02*
X89977676Y-107305904D01*
X89977676Y-107305904D02*
X90072914Y-107258285D01*
X90072914Y-107258285D02*
X90263390Y-107210666D01*
X90263390Y-107210666D02*
X90406247Y-107210666D01*
X90406247Y-107210666D02*
X90596723Y-107258285D01*
X90596723Y-107258285D02*
X90691961Y-107305904D01*
X90691961Y-107305904D02*
X90787200Y-107401142D01*
X90787200Y-107401142D02*
X90834819Y-107543999D01*
X90834819Y-107543999D02*
X90834819Y-107782094D01*
X89834819Y-106305904D02*
X89834819Y-106782094D01*
X89834819Y-106782094D02*
X90311009Y-106829713D01*
X90311009Y-106829713D02*
X90263390Y-106782094D01*
X90263390Y-106782094D02*
X90215771Y-106686856D01*
X90215771Y-106686856D02*
X90215771Y-106448761D01*
X90215771Y-106448761D02*
X90263390Y-106353523D01*
X90263390Y-106353523D02*
X90311009Y-106305904D01*
X90311009Y-106305904D02*
X90406247Y-106258285D01*
X90406247Y-106258285D02*
X90644342Y-106258285D01*
X90644342Y-106258285D02*
X90739580Y-106305904D01*
X90739580Y-106305904D02*
X90787200Y-106353523D01*
X90787200Y-106353523D02*
X90834819Y-106448761D01*
X90834819Y-106448761D02*
X90834819Y-106686856D01*
X90834819Y-106686856D02*
X90787200Y-106782094D01*
X90787200Y-106782094D02*
X90739580Y-106829713D01*
X91154819Y-111115904D02*
X90154819Y-111115904D01*
X91154819Y-110544476D02*
X90583390Y-110973047D01*
X90154819Y-110544476D02*
X90726247Y-111115904D01*
X334333333Y-125954819D02*
X334333333Y-126669104D01*
X334333333Y-126669104D02*
X334285714Y-126811961D01*
X334285714Y-126811961D02*
X334190476Y-126907200D01*
X334190476Y-126907200D02*
X334047619Y-126954819D01*
X334047619Y-126954819D02*
X333952381Y-126954819D01*
X335238095Y-126288152D02*
X335238095Y-126954819D01*
X334809524Y-126288152D02*
X334809524Y-126811961D01*
X334809524Y-126811961D02*
X334857143Y-126907200D01*
X334857143Y-126907200D02*
X334952381Y-126954819D01*
X334952381Y-126954819D02*
X335095238Y-126954819D01*
X335095238Y-126954819D02*
X335190476Y-126907200D01*
X335190476Y-126907200D02*
X335238095Y-126859580D01*
X335714286Y-126954819D02*
X335714286Y-126288152D01*
X335714286Y-126383390D02*
X335761905Y-126335771D01*
X335761905Y-126335771D02*
X335857143Y-126288152D01*
X335857143Y-126288152D02*
X336000000Y-126288152D01*
X336000000Y-126288152D02*
X336095238Y-126335771D01*
X336095238Y-126335771D02*
X336142857Y-126431009D01*
X336142857Y-126431009D02*
X336142857Y-126954819D01*
X336142857Y-126431009D02*
X336190476Y-126335771D01*
X336190476Y-126335771D02*
X336285714Y-126288152D01*
X336285714Y-126288152D02*
X336428571Y-126288152D01*
X336428571Y-126288152D02*
X336523810Y-126335771D01*
X336523810Y-126335771D02*
X336571429Y-126431009D01*
X336571429Y-126431009D02*
X336571429Y-126954819D01*
X337047619Y-126288152D02*
X337047619Y-127288152D01*
X337047619Y-126335771D02*
X337142857Y-126288152D01*
X337142857Y-126288152D02*
X337333333Y-126288152D01*
X337333333Y-126288152D02*
X337428571Y-126335771D01*
X337428571Y-126335771D02*
X337476190Y-126383390D01*
X337476190Y-126383390D02*
X337523809Y-126478628D01*
X337523809Y-126478628D02*
X337523809Y-126764342D01*
X337523809Y-126764342D02*
X337476190Y-126859580D01*
X337476190Y-126859580D02*
X337428571Y-126907200D01*
X337428571Y-126907200D02*
X337333333Y-126954819D01*
X337333333Y-126954819D02*
X337142857Y-126954819D01*
X337142857Y-126954819D02*
X337047619Y-126907200D01*
X338333333Y-126907200D02*
X338238095Y-126954819D01*
X338238095Y-126954819D02*
X338047619Y-126954819D01*
X338047619Y-126954819D02*
X337952381Y-126907200D01*
X337952381Y-126907200D02*
X337904762Y-126811961D01*
X337904762Y-126811961D02*
X337904762Y-126431009D01*
X337904762Y-126431009D02*
X337952381Y-126335771D01*
X337952381Y-126335771D02*
X338047619Y-126288152D01*
X338047619Y-126288152D02*
X338238095Y-126288152D01*
X338238095Y-126288152D02*
X338333333Y-126335771D01*
X338333333Y-126335771D02*
X338380952Y-126431009D01*
X338380952Y-126431009D02*
X338380952Y-126526247D01*
X338380952Y-126526247D02*
X337904762Y-126621485D01*
X338809524Y-126954819D02*
X338809524Y-126288152D01*
X338809524Y-126478628D02*
X338857143Y-126383390D01*
X338857143Y-126383390D02*
X338904762Y-126335771D01*
X338904762Y-126335771D02*
X339000000Y-126288152D01*
X339000000Y-126288152D02*
X339095238Y-126288152D01*
D10*
X525558455Y-7342530D02*
X526558455Y-7342530D01*
X525558455Y-7913958D02*
X526129884Y-7485387D01*
X526558455Y-7913958D02*
X525987027Y-7342530D01*
X526225122Y-8771101D02*
X525558455Y-8771101D01*
X526606075Y-8533006D02*
X525891789Y-8294911D01*
X525891789Y-8294911D02*
X525891789Y-8913958D01*
D11*
X392364819Y-234377333D02*
X393079104Y-234377333D01*
X393079104Y-234377333D02*
X393221961Y-234424952D01*
X393221961Y-234424952D02*
X393317200Y-234520190D01*
X393317200Y-234520190D02*
X393364819Y-234663047D01*
X393364819Y-234663047D02*
X393364819Y-234758285D01*
X392364819Y-233472571D02*
X392364819Y-233663047D01*
X392364819Y-233663047D02*
X392412438Y-233758285D01*
X392412438Y-233758285D02*
X392460057Y-233805904D01*
X392460057Y-233805904D02*
X392602914Y-233901142D01*
X392602914Y-233901142D02*
X392793390Y-233948761D01*
X392793390Y-233948761D02*
X393174342Y-233948761D01*
X393174342Y-233948761D02*
X393269580Y-233901142D01*
X393269580Y-233901142D02*
X393317200Y-233853523D01*
X393317200Y-233853523D02*
X393364819Y-233758285D01*
X393364819Y-233758285D02*
X393364819Y-233567809D01*
X393364819Y-233567809D02*
X393317200Y-233472571D01*
X393317200Y-233472571D02*
X393269580Y-233424952D01*
X393269580Y-233424952D02*
X393174342Y-233377333D01*
X393174342Y-233377333D02*
X392936247Y-233377333D01*
X392936247Y-233377333D02*
X392841009Y-233424952D01*
X392841009Y-233424952D02*
X392793390Y-233472571D01*
X392793390Y-233472571D02*
X392745771Y-233567809D01*
X392745771Y-233567809D02*
X392745771Y-233758285D01*
X392745771Y-233758285D02*
X392793390Y-233853523D01*
X392793390Y-233853523D02*
X392841009Y-233901142D01*
X392841009Y-233901142D02*
X392936247Y-233948761D01*
X415833333Y-26954819D02*
X415833333Y-27669104D01*
X415833333Y-27669104D02*
X415785714Y-27811961D01*
X415785714Y-27811961D02*
X415690476Y-27907200D01*
X415690476Y-27907200D02*
X415547619Y-27954819D01*
X415547619Y-27954819D02*
X415452381Y-27954819D01*
X416738095Y-27288152D02*
X416738095Y-27954819D01*
X416309524Y-27288152D02*
X416309524Y-27811961D01*
X416309524Y-27811961D02*
X416357143Y-27907200D01*
X416357143Y-27907200D02*
X416452381Y-27954819D01*
X416452381Y-27954819D02*
X416595238Y-27954819D01*
X416595238Y-27954819D02*
X416690476Y-27907200D01*
X416690476Y-27907200D02*
X416738095Y-27859580D01*
X417214286Y-27954819D02*
X417214286Y-27288152D01*
X417214286Y-27383390D02*
X417261905Y-27335771D01*
X417261905Y-27335771D02*
X417357143Y-27288152D01*
X417357143Y-27288152D02*
X417500000Y-27288152D01*
X417500000Y-27288152D02*
X417595238Y-27335771D01*
X417595238Y-27335771D02*
X417642857Y-27431009D01*
X417642857Y-27431009D02*
X417642857Y-27954819D01*
X417642857Y-27431009D02*
X417690476Y-27335771D01*
X417690476Y-27335771D02*
X417785714Y-27288152D01*
X417785714Y-27288152D02*
X417928571Y-27288152D01*
X417928571Y-27288152D02*
X418023810Y-27335771D01*
X418023810Y-27335771D02*
X418071429Y-27431009D01*
X418071429Y-27431009D02*
X418071429Y-27954819D01*
X418547619Y-27288152D02*
X418547619Y-28288152D01*
X418547619Y-27335771D02*
X418642857Y-27288152D01*
X418642857Y-27288152D02*
X418833333Y-27288152D01*
X418833333Y-27288152D02*
X418928571Y-27335771D01*
X418928571Y-27335771D02*
X418976190Y-27383390D01*
X418976190Y-27383390D02*
X419023809Y-27478628D01*
X419023809Y-27478628D02*
X419023809Y-27764342D01*
X419023809Y-27764342D02*
X418976190Y-27859580D01*
X418976190Y-27859580D02*
X418928571Y-27907200D01*
X418928571Y-27907200D02*
X418833333Y-27954819D01*
X418833333Y-27954819D02*
X418642857Y-27954819D01*
X418642857Y-27954819D02*
X418547619Y-27907200D01*
X419833333Y-27907200D02*
X419738095Y-27954819D01*
X419738095Y-27954819D02*
X419547619Y-27954819D01*
X419547619Y-27954819D02*
X419452381Y-27907200D01*
X419452381Y-27907200D02*
X419404762Y-27811961D01*
X419404762Y-27811961D02*
X419404762Y-27431009D01*
X419404762Y-27431009D02*
X419452381Y-27335771D01*
X419452381Y-27335771D02*
X419547619Y-27288152D01*
X419547619Y-27288152D02*
X419738095Y-27288152D01*
X419738095Y-27288152D02*
X419833333Y-27335771D01*
X419833333Y-27335771D02*
X419880952Y-27431009D01*
X419880952Y-27431009D02*
X419880952Y-27526247D01*
X419880952Y-27526247D02*
X419404762Y-27621485D01*
X420309524Y-27954819D02*
X420309524Y-27288152D01*
X420309524Y-27478628D02*
X420357143Y-27383390D01*
X420357143Y-27383390D02*
X420404762Y-27335771D01*
X420404762Y-27335771D02*
X420500000Y-27288152D01*
X420500000Y-27288152D02*
X420595238Y-27288152D01*
X224784819Y-60377333D02*
X225499104Y-60377333D01*
X225499104Y-60377333D02*
X225641961Y-60424952D01*
X225641961Y-60424952D02*
X225737200Y-60520190D01*
X225737200Y-60520190D02*
X225784819Y-60663047D01*
X225784819Y-60663047D02*
X225784819Y-60758285D01*
X224880057Y-59948761D02*
X224832438Y-59901142D01*
X224832438Y-59901142D02*
X224784819Y-59805904D01*
X224784819Y-59805904D02*
X224784819Y-59567809D01*
X224784819Y-59567809D02*
X224832438Y-59472571D01*
X224832438Y-59472571D02*
X224880057Y-59424952D01*
X224880057Y-59424952D02*
X224975295Y-59377333D01*
X224975295Y-59377333D02*
X225070533Y-59377333D01*
X225070533Y-59377333D02*
X225213390Y-59424952D01*
X225213390Y-59424952D02*
X225784819Y-59996380D01*
X225784819Y-59996380D02*
X225784819Y-59377333D01*
X471833333Y-27479819D02*
X471833333Y-28194104D01*
X471833333Y-28194104D02*
X471785714Y-28336961D01*
X471785714Y-28336961D02*
X471690476Y-28432200D01*
X471690476Y-28432200D02*
X471547619Y-28479819D01*
X471547619Y-28479819D02*
X471452381Y-28479819D01*
X472738095Y-27813152D02*
X472738095Y-28479819D01*
X472309524Y-27813152D02*
X472309524Y-28336961D01*
X472309524Y-28336961D02*
X472357143Y-28432200D01*
X472357143Y-28432200D02*
X472452381Y-28479819D01*
X472452381Y-28479819D02*
X472595238Y-28479819D01*
X472595238Y-28479819D02*
X472690476Y-28432200D01*
X472690476Y-28432200D02*
X472738095Y-28384580D01*
X473214286Y-28479819D02*
X473214286Y-27813152D01*
X473214286Y-27908390D02*
X473261905Y-27860771D01*
X473261905Y-27860771D02*
X473357143Y-27813152D01*
X473357143Y-27813152D02*
X473500000Y-27813152D01*
X473500000Y-27813152D02*
X473595238Y-27860771D01*
X473595238Y-27860771D02*
X473642857Y-27956009D01*
X473642857Y-27956009D02*
X473642857Y-28479819D01*
X473642857Y-27956009D02*
X473690476Y-27860771D01*
X473690476Y-27860771D02*
X473785714Y-27813152D01*
X473785714Y-27813152D02*
X473928571Y-27813152D01*
X473928571Y-27813152D02*
X474023810Y-27860771D01*
X474023810Y-27860771D02*
X474071429Y-27956009D01*
X474071429Y-27956009D02*
X474071429Y-28479819D01*
X474547619Y-27813152D02*
X474547619Y-28813152D01*
X474547619Y-27860771D02*
X474642857Y-27813152D01*
X474642857Y-27813152D02*
X474833333Y-27813152D01*
X474833333Y-27813152D02*
X474928571Y-27860771D01*
X474928571Y-27860771D02*
X474976190Y-27908390D01*
X474976190Y-27908390D02*
X475023809Y-28003628D01*
X475023809Y-28003628D02*
X475023809Y-28289342D01*
X475023809Y-28289342D02*
X474976190Y-28384580D01*
X474976190Y-28384580D02*
X474928571Y-28432200D01*
X474928571Y-28432200D02*
X474833333Y-28479819D01*
X474833333Y-28479819D02*
X474642857Y-28479819D01*
X474642857Y-28479819D02*
X474547619Y-28432200D01*
X475833333Y-28432200D02*
X475738095Y-28479819D01*
X475738095Y-28479819D02*
X475547619Y-28479819D01*
X475547619Y-28479819D02*
X475452381Y-28432200D01*
X475452381Y-28432200D02*
X475404762Y-28336961D01*
X475404762Y-28336961D02*
X475404762Y-27956009D01*
X475404762Y-27956009D02*
X475452381Y-27860771D01*
X475452381Y-27860771D02*
X475547619Y-27813152D01*
X475547619Y-27813152D02*
X475738095Y-27813152D01*
X475738095Y-27813152D02*
X475833333Y-27860771D01*
X475833333Y-27860771D02*
X475880952Y-27956009D01*
X475880952Y-27956009D02*
X475880952Y-28051247D01*
X475880952Y-28051247D02*
X475404762Y-28146485D01*
X476309524Y-28479819D02*
X476309524Y-27813152D01*
X476309524Y-28003628D02*
X476357143Y-27908390D01*
X476357143Y-27908390D02*
X476404762Y-27860771D01*
X476404762Y-27860771D02*
X476500000Y-27813152D01*
X476500000Y-27813152D02*
X476595238Y-27813152D01*
X194333333Y-110023819D02*
X194333333Y-110738104D01*
X194333333Y-110738104D02*
X194285714Y-110880961D01*
X194285714Y-110880961D02*
X194190476Y-110976200D01*
X194190476Y-110976200D02*
X194047619Y-111023819D01*
X194047619Y-111023819D02*
X193952381Y-111023819D01*
X195238095Y-110357152D02*
X195238095Y-111023819D01*
X194809524Y-110357152D02*
X194809524Y-110880961D01*
X194809524Y-110880961D02*
X194857143Y-110976200D01*
X194857143Y-110976200D02*
X194952381Y-111023819D01*
X194952381Y-111023819D02*
X195095238Y-111023819D01*
X195095238Y-111023819D02*
X195190476Y-110976200D01*
X195190476Y-110976200D02*
X195238095Y-110928580D01*
X195714286Y-111023819D02*
X195714286Y-110357152D01*
X195714286Y-110452390D02*
X195761905Y-110404771D01*
X195761905Y-110404771D02*
X195857143Y-110357152D01*
X195857143Y-110357152D02*
X196000000Y-110357152D01*
X196000000Y-110357152D02*
X196095238Y-110404771D01*
X196095238Y-110404771D02*
X196142857Y-110500009D01*
X196142857Y-110500009D02*
X196142857Y-111023819D01*
X196142857Y-110500009D02*
X196190476Y-110404771D01*
X196190476Y-110404771D02*
X196285714Y-110357152D01*
X196285714Y-110357152D02*
X196428571Y-110357152D01*
X196428571Y-110357152D02*
X196523810Y-110404771D01*
X196523810Y-110404771D02*
X196571429Y-110500009D01*
X196571429Y-110500009D02*
X196571429Y-111023819D01*
X197047619Y-110357152D02*
X197047619Y-111357152D01*
X197047619Y-110404771D02*
X197142857Y-110357152D01*
X197142857Y-110357152D02*
X197333333Y-110357152D01*
X197333333Y-110357152D02*
X197428571Y-110404771D01*
X197428571Y-110404771D02*
X197476190Y-110452390D01*
X197476190Y-110452390D02*
X197523809Y-110547628D01*
X197523809Y-110547628D02*
X197523809Y-110833342D01*
X197523809Y-110833342D02*
X197476190Y-110928580D01*
X197476190Y-110928580D02*
X197428571Y-110976200D01*
X197428571Y-110976200D02*
X197333333Y-111023819D01*
X197333333Y-111023819D02*
X197142857Y-111023819D01*
X197142857Y-111023819D02*
X197047619Y-110976200D01*
X198333333Y-110976200D02*
X198238095Y-111023819D01*
X198238095Y-111023819D02*
X198047619Y-111023819D01*
X198047619Y-111023819D02*
X197952381Y-110976200D01*
X197952381Y-110976200D02*
X197904762Y-110880961D01*
X197904762Y-110880961D02*
X197904762Y-110500009D01*
X197904762Y-110500009D02*
X197952381Y-110404771D01*
X197952381Y-110404771D02*
X198047619Y-110357152D01*
X198047619Y-110357152D02*
X198238095Y-110357152D01*
X198238095Y-110357152D02*
X198333333Y-110404771D01*
X198333333Y-110404771D02*
X198380952Y-110500009D01*
X198380952Y-110500009D02*
X198380952Y-110595247D01*
X198380952Y-110595247D02*
X197904762Y-110690485D01*
X198809524Y-111023819D02*
X198809524Y-110357152D01*
X198809524Y-110547628D02*
X198857143Y-110452390D01*
X198857143Y-110452390D02*
X198904762Y-110404771D01*
X198904762Y-110404771D02*
X199000000Y-110357152D01*
X199000000Y-110357152D02*
X199095238Y-110357152D01*
X481334819Y-23048094D02*
X480334819Y-23048094D01*
X480334819Y-23048094D02*
X480334819Y-22809999D01*
X480334819Y-22809999D02*
X480382438Y-22667142D01*
X480382438Y-22667142D02*
X480477676Y-22571904D01*
X480477676Y-22571904D02*
X480572914Y-22524285D01*
X480572914Y-22524285D02*
X480763390Y-22476666D01*
X480763390Y-22476666D02*
X480906247Y-22476666D01*
X480906247Y-22476666D02*
X481096723Y-22524285D01*
X481096723Y-22524285D02*
X481191961Y-22571904D01*
X481191961Y-22571904D02*
X481287200Y-22667142D01*
X481287200Y-22667142D02*
X481334819Y-22809999D01*
X481334819Y-22809999D02*
X481334819Y-23048094D01*
X480334819Y-22143332D02*
X480334819Y-21524285D01*
X480334819Y-21524285D02*
X480715771Y-21857618D01*
X480715771Y-21857618D02*
X480715771Y-21714761D01*
X480715771Y-21714761D02*
X480763390Y-21619523D01*
X480763390Y-21619523D02*
X480811009Y-21571904D01*
X480811009Y-21571904D02*
X480906247Y-21524285D01*
X480906247Y-21524285D02*
X481144342Y-21524285D01*
X481144342Y-21524285D02*
X481239580Y-21571904D01*
X481239580Y-21571904D02*
X481287200Y-21619523D01*
X481287200Y-21619523D02*
X481334819Y-21714761D01*
X481334819Y-21714761D02*
X481334819Y-22000475D01*
X481334819Y-22000475D02*
X481287200Y-22095713D01*
X481287200Y-22095713D02*
X481239580Y-22143332D01*
X481654819Y-26381904D02*
X480654819Y-26381904D01*
X481654819Y-25810476D02*
X481083390Y-26239047D01*
X480654819Y-25810476D02*
X481226247Y-26381904D01*
X370834819Y-282194094D02*
X369834819Y-282194094D01*
X369834819Y-282194094D02*
X369834819Y-281955999D01*
X369834819Y-281955999D02*
X369882438Y-281813142D01*
X369882438Y-281813142D02*
X369977676Y-281717904D01*
X369977676Y-281717904D02*
X370072914Y-281670285D01*
X370072914Y-281670285D02*
X370263390Y-281622666D01*
X370263390Y-281622666D02*
X370406247Y-281622666D01*
X370406247Y-281622666D02*
X370596723Y-281670285D01*
X370596723Y-281670285D02*
X370691961Y-281717904D01*
X370691961Y-281717904D02*
X370787200Y-281813142D01*
X370787200Y-281813142D02*
X370834819Y-281955999D01*
X370834819Y-281955999D02*
X370834819Y-282194094D01*
X370834819Y-281146475D02*
X370834819Y-280955999D01*
X370834819Y-280955999D02*
X370787200Y-280860761D01*
X370787200Y-280860761D02*
X370739580Y-280813142D01*
X370739580Y-280813142D02*
X370596723Y-280717904D01*
X370596723Y-280717904D02*
X370406247Y-280670285D01*
X370406247Y-280670285D02*
X370025295Y-280670285D01*
X370025295Y-280670285D02*
X369930057Y-280717904D01*
X369930057Y-280717904D02*
X369882438Y-280765523D01*
X369882438Y-280765523D02*
X369834819Y-280860761D01*
X369834819Y-280860761D02*
X369834819Y-281051237D01*
X369834819Y-281051237D02*
X369882438Y-281146475D01*
X369882438Y-281146475D02*
X369930057Y-281194094D01*
X369930057Y-281194094D02*
X370025295Y-281241713D01*
X370025295Y-281241713D02*
X370263390Y-281241713D01*
X370263390Y-281241713D02*
X370358628Y-281194094D01*
X370358628Y-281194094D02*
X370406247Y-281146475D01*
X370406247Y-281146475D02*
X370453866Y-281051237D01*
X370453866Y-281051237D02*
X370453866Y-280860761D01*
X370453866Y-280860761D02*
X370406247Y-280765523D01*
X370406247Y-280765523D02*
X370358628Y-280717904D01*
X370358628Y-280717904D02*
X370263390Y-280670285D01*
X371154819Y-285527904D02*
X370154819Y-285527904D01*
X371154819Y-284956476D02*
X370583390Y-285385047D01*
X370154819Y-284956476D02*
X370726247Y-285527904D01*
X361834819Y-198214285D02*
X360834819Y-198214285D01*
X360834819Y-198214285D02*
X360834819Y-197976190D01*
X360834819Y-197976190D02*
X360882438Y-197833333D01*
X360882438Y-197833333D02*
X360977676Y-197738095D01*
X360977676Y-197738095D02*
X361072914Y-197690476D01*
X361072914Y-197690476D02*
X361263390Y-197642857D01*
X361263390Y-197642857D02*
X361406247Y-197642857D01*
X361406247Y-197642857D02*
X361596723Y-197690476D01*
X361596723Y-197690476D02*
X361691961Y-197738095D01*
X361691961Y-197738095D02*
X361787200Y-197833333D01*
X361787200Y-197833333D02*
X361834819Y-197976190D01*
X361834819Y-197976190D02*
X361834819Y-198214285D01*
X361834819Y-196690476D02*
X361834819Y-197261904D01*
X361834819Y-196976190D02*
X360834819Y-196976190D01*
X360834819Y-196976190D02*
X360977676Y-197071428D01*
X360977676Y-197071428D02*
X361072914Y-197166666D01*
X361072914Y-197166666D02*
X361120533Y-197261904D01*
X360834819Y-196071428D02*
X360834819Y-195976190D01*
X360834819Y-195976190D02*
X360882438Y-195880952D01*
X360882438Y-195880952D02*
X360930057Y-195833333D01*
X360930057Y-195833333D02*
X361025295Y-195785714D01*
X361025295Y-195785714D02*
X361215771Y-195738095D01*
X361215771Y-195738095D02*
X361453866Y-195738095D01*
X361453866Y-195738095D02*
X361644342Y-195785714D01*
X361644342Y-195785714D02*
X361739580Y-195833333D01*
X361739580Y-195833333D02*
X361787200Y-195880952D01*
X361787200Y-195880952D02*
X361834819Y-195976190D01*
X361834819Y-195976190D02*
X361834819Y-196071428D01*
X361834819Y-196071428D02*
X361787200Y-196166666D01*
X361787200Y-196166666D02*
X361739580Y-196214285D01*
X361739580Y-196214285D02*
X361644342Y-196261904D01*
X361644342Y-196261904D02*
X361453866Y-196309523D01*
X361453866Y-196309523D02*
X361215771Y-196309523D01*
X361215771Y-196309523D02*
X361025295Y-196261904D01*
X361025295Y-196261904D02*
X360930057Y-196214285D01*
X360930057Y-196214285D02*
X360882438Y-196166666D01*
X360882438Y-196166666D02*
X360834819Y-196071428D01*
X362154819Y-201071904D02*
X361154819Y-201071904D01*
X362154819Y-200500476D02*
X361583390Y-200929047D01*
X361154819Y-200500476D02*
X361726247Y-201071904D01*
X425334819Y-23238094D02*
X424334819Y-23238094D01*
X424334819Y-23238094D02*
X424334819Y-22999999D01*
X424334819Y-22999999D02*
X424382438Y-22857142D01*
X424382438Y-22857142D02*
X424477676Y-22761904D01*
X424477676Y-22761904D02*
X424572914Y-22714285D01*
X424572914Y-22714285D02*
X424763390Y-22666666D01*
X424763390Y-22666666D02*
X424906247Y-22666666D01*
X424906247Y-22666666D02*
X425096723Y-22714285D01*
X425096723Y-22714285D02*
X425191961Y-22761904D01*
X425191961Y-22761904D02*
X425287200Y-22857142D01*
X425287200Y-22857142D02*
X425334819Y-22999999D01*
X425334819Y-22999999D02*
X425334819Y-23238094D01*
X424430057Y-22285713D02*
X424382438Y-22238094D01*
X424382438Y-22238094D02*
X424334819Y-22142856D01*
X424334819Y-22142856D02*
X424334819Y-21904761D01*
X424334819Y-21904761D02*
X424382438Y-21809523D01*
X424382438Y-21809523D02*
X424430057Y-21761904D01*
X424430057Y-21761904D02*
X424525295Y-21714285D01*
X424525295Y-21714285D02*
X424620533Y-21714285D01*
X424620533Y-21714285D02*
X424763390Y-21761904D01*
X424763390Y-21761904D02*
X425334819Y-22333332D01*
X425334819Y-22333332D02*
X425334819Y-21714285D01*
X425654819Y-26571904D02*
X424654819Y-26571904D01*
X425654819Y-26000476D02*
X425083390Y-26429047D01*
X424654819Y-26000476D02*
X425226247Y-26571904D01*
X330666666Y-26624819D02*
X330666666Y-27339104D01*
X330666666Y-27339104D02*
X330619047Y-27481961D01*
X330619047Y-27481961D02*
X330523809Y-27577200D01*
X330523809Y-27577200D02*
X330380952Y-27624819D01*
X330380952Y-27624819D02*
X330285714Y-27624819D01*
X331047619Y-26624819D02*
X331666666Y-26624819D01*
X331666666Y-26624819D02*
X331333333Y-27005771D01*
X331333333Y-27005771D02*
X331476190Y-27005771D01*
X331476190Y-27005771D02*
X331571428Y-27053390D01*
X331571428Y-27053390D02*
X331619047Y-27101009D01*
X331619047Y-27101009D02*
X331666666Y-27196247D01*
X331666666Y-27196247D02*
X331666666Y-27434342D01*
X331666666Y-27434342D02*
X331619047Y-27529580D01*
X331619047Y-27529580D02*
X331571428Y-27577200D01*
X331571428Y-27577200D02*
X331476190Y-27624819D01*
X331476190Y-27624819D02*
X331190476Y-27624819D01*
X331190476Y-27624819D02*
X331095238Y-27577200D01*
X331095238Y-27577200D02*
X331047619Y-27529580D01*
X328624819Y-214833333D02*
X329339104Y-214833333D01*
X329339104Y-214833333D02*
X329481961Y-214880952D01*
X329481961Y-214880952D02*
X329577200Y-214976190D01*
X329577200Y-214976190D02*
X329624819Y-215119047D01*
X329624819Y-215119047D02*
X329624819Y-215214285D01*
X328624819Y-214452380D02*
X328624819Y-213785714D01*
X328624819Y-213785714D02*
X329624819Y-214214285D01*
D10*
X470106080Y-7840030D02*
X471106080Y-7840030D01*
X470106080Y-8411458D02*
X470677509Y-7982887D01*
X471106080Y-8411458D02*
X470534652Y-7840030D01*
X471106080Y-8744792D02*
X471106080Y-9363839D01*
X471106080Y-9363839D02*
X470725128Y-9030506D01*
X470725128Y-9030506D02*
X470725128Y-9173363D01*
X470725128Y-9173363D02*
X470677509Y-9268601D01*
X470677509Y-9268601D02*
X470629890Y-9316220D01*
X470629890Y-9316220D02*
X470534652Y-9363839D01*
X470534652Y-9363839D02*
X470296557Y-9363839D01*
X470296557Y-9363839D02*
X470201319Y-9316220D01*
X470201319Y-9316220D02*
X470153700Y-9268601D01*
X470153700Y-9268601D02*
X470106080Y-9173363D01*
X470106080Y-9173363D02*
X470106080Y-8887649D01*
X470106080Y-8887649D02*
X470153700Y-8792411D01*
X470153700Y-8792411D02*
X470201319Y-8744792D01*
D11*
X138269833Y-110523819D02*
X138269833Y-111238104D01*
X138269833Y-111238104D02*
X138222214Y-111380961D01*
X138222214Y-111380961D02*
X138126976Y-111476200D01*
X138126976Y-111476200D02*
X137984119Y-111523819D01*
X137984119Y-111523819D02*
X137888881Y-111523819D01*
X139174595Y-110857152D02*
X139174595Y-111523819D01*
X138746024Y-110857152D02*
X138746024Y-111380961D01*
X138746024Y-111380961D02*
X138793643Y-111476200D01*
X138793643Y-111476200D02*
X138888881Y-111523819D01*
X138888881Y-111523819D02*
X139031738Y-111523819D01*
X139031738Y-111523819D02*
X139126976Y-111476200D01*
X139126976Y-111476200D02*
X139174595Y-111428580D01*
X139650786Y-111523819D02*
X139650786Y-110857152D01*
X139650786Y-110952390D02*
X139698405Y-110904771D01*
X139698405Y-110904771D02*
X139793643Y-110857152D01*
X139793643Y-110857152D02*
X139936500Y-110857152D01*
X139936500Y-110857152D02*
X140031738Y-110904771D01*
X140031738Y-110904771D02*
X140079357Y-111000009D01*
X140079357Y-111000009D02*
X140079357Y-111523819D01*
X140079357Y-111000009D02*
X140126976Y-110904771D01*
X140126976Y-110904771D02*
X140222214Y-110857152D01*
X140222214Y-110857152D02*
X140365071Y-110857152D01*
X140365071Y-110857152D02*
X140460310Y-110904771D01*
X140460310Y-110904771D02*
X140507929Y-111000009D01*
X140507929Y-111000009D02*
X140507929Y-111523819D01*
X140984119Y-110857152D02*
X140984119Y-111857152D01*
X140984119Y-110904771D02*
X141079357Y-110857152D01*
X141079357Y-110857152D02*
X141269833Y-110857152D01*
X141269833Y-110857152D02*
X141365071Y-110904771D01*
X141365071Y-110904771D02*
X141412690Y-110952390D01*
X141412690Y-110952390D02*
X141460309Y-111047628D01*
X141460309Y-111047628D02*
X141460309Y-111333342D01*
X141460309Y-111333342D02*
X141412690Y-111428580D01*
X141412690Y-111428580D02*
X141365071Y-111476200D01*
X141365071Y-111476200D02*
X141269833Y-111523819D01*
X141269833Y-111523819D02*
X141079357Y-111523819D01*
X141079357Y-111523819D02*
X140984119Y-111476200D01*
X142269833Y-111476200D02*
X142174595Y-111523819D01*
X142174595Y-111523819D02*
X141984119Y-111523819D01*
X141984119Y-111523819D02*
X141888881Y-111476200D01*
X141888881Y-111476200D02*
X141841262Y-111380961D01*
X141841262Y-111380961D02*
X141841262Y-111000009D01*
X141841262Y-111000009D02*
X141888881Y-110904771D01*
X141888881Y-110904771D02*
X141984119Y-110857152D01*
X141984119Y-110857152D02*
X142174595Y-110857152D01*
X142174595Y-110857152D02*
X142269833Y-110904771D01*
X142269833Y-110904771D02*
X142317452Y-111000009D01*
X142317452Y-111000009D02*
X142317452Y-111095247D01*
X142317452Y-111095247D02*
X141841262Y-111190485D01*
X142746024Y-111523819D02*
X142746024Y-110857152D01*
X142746024Y-111047628D02*
X142793643Y-110952390D01*
X142793643Y-110952390D02*
X142841262Y-110904771D01*
X142841262Y-110904771D02*
X142936500Y-110857152D01*
X142936500Y-110857152D02*
X143031738Y-110857152D01*
D10*
X353542580Y-113785714D02*
X354542580Y-113785714D01*
X353542580Y-114357142D02*
X354114009Y-113928571D01*
X354542580Y-114357142D02*
X353971152Y-113785714D01*
X353542580Y-115309523D02*
X353542580Y-114738095D01*
X353542580Y-115023809D02*
X354542580Y-115023809D01*
X354542580Y-115023809D02*
X354399723Y-114928571D01*
X354399723Y-114928571D02*
X354304485Y-114833333D01*
X354304485Y-114833333D02*
X354256866Y-114738095D01*
X353542580Y-116261904D02*
X353542580Y-115690476D01*
X353542580Y-115976190D02*
X354542580Y-115976190D01*
X354542580Y-115976190D02*
X354399723Y-115880952D01*
X354399723Y-115880952D02*
X354304485Y-115785714D01*
X354304485Y-115785714D02*
X354256866Y-115690476D01*
D11*
X361833333Y-285435819D02*
X361833333Y-286150104D01*
X361833333Y-286150104D02*
X361785714Y-286292961D01*
X361785714Y-286292961D02*
X361690476Y-286388200D01*
X361690476Y-286388200D02*
X361547619Y-286435819D01*
X361547619Y-286435819D02*
X361452381Y-286435819D01*
X362738095Y-285769152D02*
X362738095Y-286435819D01*
X362309524Y-285769152D02*
X362309524Y-286292961D01*
X362309524Y-286292961D02*
X362357143Y-286388200D01*
X362357143Y-286388200D02*
X362452381Y-286435819D01*
X362452381Y-286435819D02*
X362595238Y-286435819D01*
X362595238Y-286435819D02*
X362690476Y-286388200D01*
X362690476Y-286388200D02*
X362738095Y-286340580D01*
X363214286Y-286435819D02*
X363214286Y-285769152D01*
X363214286Y-285864390D02*
X363261905Y-285816771D01*
X363261905Y-285816771D02*
X363357143Y-285769152D01*
X363357143Y-285769152D02*
X363500000Y-285769152D01*
X363500000Y-285769152D02*
X363595238Y-285816771D01*
X363595238Y-285816771D02*
X363642857Y-285912009D01*
X363642857Y-285912009D02*
X363642857Y-286435819D01*
X363642857Y-285912009D02*
X363690476Y-285816771D01*
X363690476Y-285816771D02*
X363785714Y-285769152D01*
X363785714Y-285769152D02*
X363928571Y-285769152D01*
X363928571Y-285769152D02*
X364023810Y-285816771D01*
X364023810Y-285816771D02*
X364071429Y-285912009D01*
X364071429Y-285912009D02*
X364071429Y-286435819D01*
X364547619Y-285769152D02*
X364547619Y-286769152D01*
X364547619Y-285816771D02*
X364642857Y-285769152D01*
X364642857Y-285769152D02*
X364833333Y-285769152D01*
X364833333Y-285769152D02*
X364928571Y-285816771D01*
X364928571Y-285816771D02*
X364976190Y-285864390D01*
X364976190Y-285864390D02*
X365023809Y-285959628D01*
X365023809Y-285959628D02*
X365023809Y-286245342D01*
X365023809Y-286245342D02*
X364976190Y-286340580D01*
X364976190Y-286340580D02*
X364928571Y-286388200D01*
X364928571Y-286388200D02*
X364833333Y-286435819D01*
X364833333Y-286435819D02*
X364642857Y-286435819D01*
X364642857Y-286435819D02*
X364547619Y-286388200D01*
X365833333Y-286388200D02*
X365738095Y-286435819D01*
X365738095Y-286435819D02*
X365547619Y-286435819D01*
X365547619Y-286435819D02*
X365452381Y-286388200D01*
X365452381Y-286388200D02*
X365404762Y-286292961D01*
X365404762Y-286292961D02*
X365404762Y-285912009D01*
X365404762Y-285912009D02*
X365452381Y-285816771D01*
X365452381Y-285816771D02*
X365547619Y-285769152D01*
X365547619Y-285769152D02*
X365738095Y-285769152D01*
X365738095Y-285769152D02*
X365833333Y-285816771D01*
X365833333Y-285816771D02*
X365880952Y-285912009D01*
X365880952Y-285912009D02*
X365880952Y-286007247D01*
X365880952Y-286007247D02*
X365404762Y-286102485D01*
X366309524Y-286435819D02*
X366309524Y-285769152D01*
X366309524Y-285959628D02*
X366357143Y-285864390D01*
X366357143Y-285864390D02*
X366404762Y-285816771D01*
X366404762Y-285816771D02*
X366500000Y-285769152D01*
X366500000Y-285769152D02*
X366595238Y-285769152D01*
X147834819Y-106782094D02*
X146834819Y-106782094D01*
X146834819Y-106782094D02*
X146834819Y-106543999D01*
X146834819Y-106543999D02*
X146882438Y-106401142D01*
X146882438Y-106401142D02*
X146977676Y-106305904D01*
X146977676Y-106305904D02*
X147072914Y-106258285D01*
X147072914Y-106258285D02*
X147263390Y-106210666D01*
X147263390Y-106210666D02*
X147406247Y-106210666D01*
X147406247Y-106210666D02*
X147596723Y-106258285D01*
X147596723Y-106258285D02*
X147691961Y-106305904D01*
X147691961Y-106305904D02*
X147787200Y-106401142D01*
X147787200Y-106401142D02*
X147834819Y-106543999D01*
X147834819Y-106543999D02*
X147834819Y-106782094D01*
X146834819Y-105353523D02*
X146834819Y-105543999D01*
X146834819Y-105543999D02*
X146882438Y-105639237D01*
X146882438Y-105639237D02*
X146930057Y-105686856D01*
X146930057Y-105686856D02*
X147072914Y-105782094D01*
X147072914Y-105782094D02*
X147263390Y-105829713D01*
X147263390Y-105829713D02*
X147644342Y-105829713D01*
X147644342Y-105829713D02*
X147739580Y-105782094D01*
X147739580Y-105782094D02*
X147787200Y-105734475D01*
X147787200Y-105734475D02*
X147834819Y-105639237D01*
X147834819Y-105639237D02*
X147834819Y-105448761D01*
X147834819Y-105448761D02*
X147787200Y-105353523D01*
X147787200Y-105353523D02*
X147739580Y-105305904D01*
X147739580Y-105305904D02*
X147644342Y-105258285D01*
X147644342Y-105258285D02*
X147406247Y-105258285D01*
X147406247Y-105258285D02*
X147311009Y-105305904D01*
X147311009Y-105305904D02*
X147263390Y-105353523D01*
X147263390Y-105353523D02*
X147215771Y-105448761D01*
X147215771Y-105448761D02*
X147215771Y-105639237D01*
X147215771Y-105639237D02*
X147263390Y-105734475D01*
X147263390Y-105734475D02*
X147311009Y-105782094D01*
X147311009Y-105782094D02*
X147406247Y-105829713D01*
X148154819Y-110115904D02*
X147154819Y-110115904D01*
X148154819Y-109544476D02*
X147583390Y-109973047D01*
X147154819Y-109544476D02*
X147726247Y-110115904D01*
X335833333Y-194979819D02*
X335833333Y-195694104D01*
X335833333Y-195694104D02*
X335785714Y-195836961D01*
X335785714Y-195836961D02*
X335690476Y-195932200D01*
X335690476Y-195932200D02*
X335547619Y-195979819D01*
X335547619Y-195979819D02*
X335452381Y-195979819D01*
X336738095Y-195313152D02*
X336738095Y-195979819D01*
X336309524Y-195313152D02*
X336309524Y-195836961D01*
X336309524Y-195836961D02*
X336357143Y-195932200D01*
X336357143Y-195932200D02*
X336452381Y-195979819D01*
X336452381Y-195979819D02*
X336595238Y-195979819D01*
X336595238Y-195979819D02*
X336690476Y-195932200D01*
X336690476Y-195932200D02*
X336738095Y-195884580D01*
X337214286Y-195979819D02*
X337214286Y-195313152D01*
X337214286Y-195408390D02*
X337261905Y-195360771D01*
X337261905Y-195360771D02*
X337357143Y-195313152D01*
X337357143Y-195313152D02*
X337500000Y-195313152D01*
X337500000Y-195313152D02*
X337595238Y-195360771D01*
X337595238Y-195360771D02*
X337642857Y-195456009D01*
X337642857Y-195456009D02*
X337642857Y-195979819D01*
X337642857Y-195456009D02*
X337690476Y-195360771D01*
X337690476Y-195360771D02*
X337785714Y-195313152D01*
X337785714Y-195313152D02*
X337928571Y-195313152D01*
X337928571Y-195313152D02*
X338023810Y-195360771D01*
X338023810Y-195360771D02*
X338071429Y-195456009D01*
X338071429Y-195456009D02*
X338071429Y-195979819D01*
X338547619Y-195313152D02*
X338547619Y-196313152D01*
X338547619Y-195360771D02*
X338642857Y-195313152D01*
X338642857Y-195313152D02*
X338833333Y-195313152D01*
X338833333Y-195313152D02*
X338928571Y-195360771D01*
X338928571Y-195360771D02*
X338976190Y-195408390D01*
X338976190Y-195408390D02*
X339023809Y-195503628D01*
X339023809Y-195503628D02*
X339023809Y-195789342D01*
X339023809Y-195789342D02*
X338976190Y-195884580D01*
X338976190Y-195884580D02*
X338928571Y-195932200D01*
X338928571Y-195932200D02*
X338833333Y-195979819D01*
X338833333Y-195979819D02*
X338642857Y-195979819D01*
X338642857Y-195979819D02*
X338547619Y-195932200D01*
X339833333Y-195932200D02*
X339738095Y-195979819D01*
X339738095Y-195979819D02*
X339547619Y-195979819D01*
X339547619Y-195979819D02*
X339452381Y-195932200D01*
X339452381Y-195932200D02*
X339404762Y-195836961D01*
X339404762Y-195836961D02*
X339404762Y-195456009D01*
X339404762Y-195456009D02*
X339452381Y-195360771D01*
X339452381Y-195360771D02*
X339547619Y-195313152D01*
X339547619Y-195313152D02*
X339738095Y-195313152D01*
X339738095Y-195313152D02*
X339833333Y-195360771D01*
X339833333Y-195360771D02*
X339880952Y-195456009D01*
X339880952Y-195456009D02*
X339880952Y-195551247D01*
X339880952Y-195551247D02*
X339404762Y-195646485D01*
X340309524Y-195979819D02*
X340309524Y-195313152D01*
X340309524Y-195503628D02*
X340357143Y-195408390D01*
X340357143Y-195408390D02*
X340404762Y-195360771D01*
X340404762Y-195360771D02*
X340500000Y-195313152D01*
X340500000Y-195313152D02*
X340595238Y-195313152D01*
D10*
X353042580Y-182285714D02*
X354042580Y-182285714D01*
X353042580Y-182857142D02*
X353614009Y-182428571D01*
X354042580Y-182857142D02*
X353471152Y-182285714D01*
X353042580Y-183809523D02*
X353042580Y-183238095D01*
X353042580Y-183523809D02*
X354042580Y-183523809D01*
X354042580Y-183523809D02*
X353899723Y-183428571D01*
X353899723Y-183428571D02*
X353804485Y-183333333D01*
X353804485Y-183333333D02*
X353756866Y-183238095D01*
X354042580Y-184428571D02*
X354042580Y-184523809D01*
X354042580Y-184523809D02*
X353994961Y-184619047D01*
X353994961Y-184619047D02*
X353947342Y-184666666D01*
X353947342Y-184666666D02*
X353852104Y-184714285D01*
X353852104Y-184714285D02*
X353661628Y-184761904D01*
X353661628Y-184761904D02*
X353423533Y-184761904D01*
X353423533Y-184761904D02*
X353233057Y-184714285D01*
X353233057Y-184714285D02*
X353137819Y-184666666D01*
X353137819Y-184666666D02*
X353090200Y-184619047D01*
X353090200Y-184619047D02*
X353042580Y-184523809D01*
X353042580Y-184523809D02*
X353042580Y-184428571D01*
X353042580Y-184428571D02*
X353090200Y-184333333D01*
X353090200Y-184333333D02*
X353137819Y-184285714D01*
X353137819Y-184285714D02*
X353233057Y-184238095D01*
X353233057Y-184238095D02*
X353423533Y-184190476D01*
X353423533Y-184190476D02*
X353661628Y-184190476D01*
X353661628Y-184190476D02*
X353852104Y-184238095D01*
X353852104Y-184238095D02*
X353947342Y-184285714D01*
X353947342Y-184285714D02*
X353994961Y-184333333D01*
X353994961Y-184333333D02*
X354042580Y-184428571D01*
D11*
X374864819Y-79333333D02*
X375579104Y-79333333D01*
X375579104Y-79333333D02*
X375721961Y-79380952D01*
X375721961Y-79380952D02*
X375817200Y-79476190D01*
X375817200Y-79476190D02*
X375864819Y-79619047D01*
X375864819Y-79619047D02*
X375864819Y-79714285D01*
X375293390Y-78714285D02*
X375245771Y-78809523D01*
X375245771Y-78809523D02*
X375198152Y-78857142D01*
X375198152Y-78857142D02*
X375102914Y-78904761D01*
X375102914Y-78904761D02*
X375055295Y-78904761D01*
X375055295Y-78904761D02*
X374960057Y-78857142D01*
X374960057Y-78857142D02*
X374912438Y-78809523D01*
X374912438Y-78809523D02*
X374864819Y-78714285D01*
X374864819Y-78714285D02*
X374864819Y-78523809D01*
X374864819Y-78523809D02*
X374912438Y-78428571D01*
X374912438Y-78428571D02*
X374960057Y-78380952D01*
X374960057Y-78380952D02*
X375055295Y-78333333D01*
X375055295Y-78333333D02*
X375102914Y-78333333D01*
X375102914Y-78333333D02*
X375198152Y-78380952D01*
X375198152Y-78380952D02*
X375245771Y-78428571D01*
X375245771Y-78428571D02*
X375293390Y-78523809D01*
X375293390Y-78523809D02*
X375293390Y-78714285D01*
X375293390Y-78714285D02*
X375341009Y-78809523D01*
X375341009Y-78809523D02*
X375388628Y-78857142D01*
X375388628Y-78857142D02*
X375483866Y-78904761D01*
X375483866Y-78904761D02*
X375674342Y-78904761D01*
X375674342Y-78904761D02*
X375769580Y-78857142D01*
X375769580Y-78857142D02*
X375817200Y-78809523D01*
X375817200Y-78809523D02*
X375864819Y-78714285D01*
X375864819Y-78714285D02*
X375864819Y-78523809D01*
X375864819Y-78523809D02*
X375817200Y-78428571D01*
X375817200Y-78428571D02*
X375769580Y-78380952D01*
X375769580Y-78380952D02*
X375674342Y-78333333D01*
X375674342Y-78333333D02*
X375483866Y-78333333D01*
X375483866Y-78333333D02*
X375388628Y-78380952D01*
X375388628Y-78380952D02*
X375341009Y-78428571D01*
X375341009Y-78428571D02*
X375293390Y-78523809D01*
X219666666Y-284868819D02*
X219666666Y-285583104D01*
X219666666Y-285583104D02*
X219619047Y-285725961D01*
X219619047Y-285725961D02*
X219523809Y-285821200D01*
X219523809Y-285821200D02*
X219380952Y-285868819D01*
X219380952Y-285868819D02*
X219285714Y-285868819D01*
X220619047Y-284868819D02*
X220142857Y-284868819D01*
X220142857Y-284868819D02*
X220095238Y-285345009D01*
X220095238Y-285345009D02*
X220142857Y-285297390D01*
X220142857Y-285297390D02*
X220238095Y-285249771D01*
X220238095Y-285249771D02*
X220476190Y-285249771D01*
X220476190Y-285249771D02*
X220571428Y-285297390D01*
X220571428Y-285297390D02*
X220619047Y-285345009D01*
X220619047Y-285345009D02*
X220666666Y-285440247D01*
X220666666Y-285440247D02*
X220666666Y-285678342D01*
X220666666Y-285678342D02*
X220619047Y-285773580D01*
X220619047Y-285773580D02*
X220571428Y-285821200D01*
X220571428Y-285821200D02*
X220476190Y-285868819D01*
X220476190Y-285868819D02*
X220238095Y-285868819D01*
X220238095Y-285868819D02*
X220142857Y-285821200D01*
X220142857Y-285821200D02*
X220095238Y-285773580D01*
X46166666Y-109668819D02*
X46166666Y-110383104D01*
X46166666Y-110383104D02*
X46119047Y-110525961D01*
X46119047Y-110525961D02*
X46023809Y-110621200D01*
X46023809Y-110621200D02*
X45880952Y-110668819D01*
X45880952Y-110668819D02*
X45785714Y-110668819D01*
X46547619Y-109668819D02*
X47166666Y-109668819D01*
X47166666Y-109668819D02*
X46833333Y-110049771D01*
X46833333Y-110049771D02*
X46976190Y-110049771D01*
X46976190Y-110049771D02*
X47071428Y-110097390D01*
X47071428Y-110097390D02*
X47119047Y-110145009D01*
X47119047Y-110145009D02*
X47166666Y-110240247D01*
X47166666Y-110240247D02*
X47166666Y-110478342D01*
X47166666Y-110478342D02*
X47119047Y-110573580D01*
X47119047Y-110573580D02*
X47071428Y-110621200D01*
X47071428Y-110621200D02*
X46976190Y-110668819D01*
X46976190Y-110668819D02*
X46690476Y-110668819D01*
X46690476Y-110668819D02*
X46595238Y-110621200D01*
X46595238Y-110621200D02*
X46547619Y-110573580D01*
X286334819Y-282238094D02*
X285334819Y-282238094D01*
X285334819Y-282238094D02*
X285334819Y-281999999D01*
X285334819Y-281999999D02*
X285382438Y-281857142D01*
X285382438Y-281857142D02*
X285477676Y-281761904D01*
X285477676Y-281761904D02*
X285572914Y-281714285D01*
X285572914Y-281714285D02*
X285763390Y-281666666D01*
X285763390Y-281666666D02*
X285906247Y-281666666D01*
X285906247Y-281666666D02*
X286096723Y-281714285D01*
X286096723Y-281714285D02*
X286191961Y-281761904D01*
X286191961Y-281761904D02*
X286287200Y-281857142D01*
X286287200Y-281857142D02*
X286334819Y-281999999D01*
X286334819Y-281999999D02*
X286334819Y-282238094D01*
X285763390Y-281095237D02*
X285715771Y-281190475D01*
X285715771Y-281190475D02*
X285668152Y-281238094D01*
X285668152Y-281238094D02*
X285572914Y-281285713D01*
X285572914Y-281285713D02*
X285525295Y-281285713D01*
X285525295Y-281285713D02*
X285430057Y-281238094D01*
X285430057Y-281238094D02*
X285382438Y-281190475D01*
X285382438Y-281190475D02*
X285334819Y-281095237D01*
X285334819Y-281095237D02*
X285334819Y-280904761D01*
X285334819Y-280904761D02*
X285382438Y-280809523D01*
X285382438Y-280809523D02*
X285430057Y-280761904D01*
X285430057Y-280761904D02*
X285525295Y-280714285D01*
X285525295Y-280714285D02*
X285572914Y-280714285D01*
X285572914Y-280714285D02*
X285668152Y-280761904D01*
X285668152Y-280761904D02*
X285715771Y-280809523D01*
X285715771Y-280809523D02*
X285763390Y-280904761D01*
X285763390Y-280904761D02*
X285763390Y-281095237D01*
X285763390Y-281095237D02*
X285811009Y-281190475D01*
X285811009Y-281190475D02*
X285858628Y-281238094D01*
X285858628Y-281238094D02*
X285953866Y-281285713D01*
X285953866Y-281285713D02*
X286144342Y-281285713D01*
X286144342Y-281285713D02*
X286239580Y-281238094D01*
X286239580Y-281238094D02*
X286287200Y-281190475D01*
X286287200Y-281190475D02*
X286334819Y-281095237D01*
X286334819Y-281095237D02*
X286334819Y-280904761D01*
X286334819Y-280904761D02*
X286287200Y-280809523D01*
X286287200Y-280809523D02*
X286239580Y-280761904D01*
X286239580Y-280761904D02*
X286144342Y-280714285D01*
X286144342Y-280714285D02*
X285953866Y-280714285D01*
X285953866Y-280714285D02*
X285858628Y-280761904D01*
X285858628Y-280761904D02*
X285811009Y-280809523D01*
X285811009Y-280809523D02*
X285763390Y-280904761D01*
X286654819Y-285571904D02*
X285654819Y-285571904D01*
X286654819Y-285000476D02*
X286083390Y-285429047D01*
X285654819Y-285000476D02*
X286226247Y-285571904D01*
D10*
X136479080Y-91720405D02*
X137479080Y-91720405D01*
X136479080Y-92291833D02*
X137050509Y-91863262D01*
X137479080Y-92291833D02*
X136907652Y-91720405D01*
X137479080Y-93148976D02*
X137479080Y-92958500D01*
X137479080Y-92958500D02*
X137431461Y-92863262D01*
X137431461Y-92863262D02*
X137383842Y-92815643D01*
X137383842Y-92815643D02*
X137240985Y-92720405D01*
X137240985Y-92720405D02*
X137050509Y-92672786D01*
X137050509Y-92672786D02*
X136669557Y-92672786D01*
X136669557Y-92672786D02*
X136574319Y-92720405D01*
X136574319Y-92720405D02*
X136526700Y-92768024D01*
X136526700Y-92768024D02*
X136479080Y-92863262D01*
X136479080Y-92863262D02*
X136479080Y-93053738D01*
X136479080Y-93053738D02*
X136526700Y-93148976D01*
X136526700Y-93148976D02*
X136574319Y-93196595D01*
X136574319Y-93196595D02*
X136669557Y-93244214D01*
X136669557Y-93244214D02*
X136907652Y-93244214D01*
X136907652Y-93244214D02*
X137002890Y-93196595D01*
X137002890Y-93196595D02*
X137050509Y-93148976D01*
X137050509Y-93148976D02*
X137098128Y-93053738D01*
X137098128Y-93053738D02*
X137098128Y-92863262D01*
X137098128Y-92863262D02*
X137050509Y-92768024D01*
X137050509Y-92768024D02*
X137002890Y-92720405D01*
X137002890Y-92720405D02*
X136907652Y-92672786D01*
D11*
X51166666Y-109628819D02*
X51166666Y-110343104D01*
X51166666Y-110343104D02*
X51119047Y-110485961D01*
X51119047Y-110485961D02*
X51023809Y-110581200D01*
X51023809Y-110581200D02*
X50880952Y-110628819D01*
X50880952Y-110628819D02*
X50785714Y-110628819D01*
X52071428Y-109962152D02*
X52071428Y-110628819D01*
X51833333Y-109581200D02*
X51595238Y-110295485D01*
X51595238Y-110295485D02*
X52214285Y-110295485D01*
X360834819Y-129714285D02*
X359834819Y-129714285D01*
X359834819Y-129714285D02*
X359834819Y-129476190D01*
X359834819Y-129476190D02*
X359882438Y-129333333D01*
X359882438Y-129333333D02*
X359977676Y-129238095D01*
X359977676Y-129238095D02*
X360072914Y-129190476D01*
X360072914Y-129190476D02*
X360263390Y-129142857D01*
X360263390Y-129142857D02*
X360406247Y-129142857D01*
X360406247Y-129142857D02*
X360596723Y-129190476D01*
X360596723Y-129190476D02*
X360691961Y-129238095D01*
X360691961Y-129238095D02*
X360787200Y-129333333D01*
X360787200Y-129333333D02*
X360834819Y-129476190D01*
X360834819Y-129476190D02*
X360834819Y-129714285D01*
X360834819Y-128190476D02*
X360834819Y-128761904D01*
X360834819Y-128476190D02*
X359834819Y-128476190D01*
X359834819Y-128476190D02*
X359977676Y-128571428D01*
X359977676Y-128571428D02*
X360072914Y-128666666D01*
X360072914Y-128666666D02*
X360120533Y-128761904D01*
X360834819Y-127238095D02*
X360834819Y-127809523D01*
X360834819Y-127523809D02*
X359834819Y-127523809D01*
X359834819Y-127523809D02*
X359977676Y-127619047D01*
X359977676Y-127619047D02*
X360072914Y-127714285D01*
X360072914Y-127714285D02*
X360120533Y-127809523D01*
X361154819Y-132571904D02*
X360154819Y-132571904D01*
X361154819Y-132000476D02*
X360583390Y-132429047D01*
X360154819Y-132000476D02*
X360726247Y-132571904D01*
X341954819Y-145166666D02*
X342669104Y-145166666D01*
X342669104Y-145166666D02*
X342811961Y-145214285D01*
X342811961Y-145214285D02*
X342907200Y-145309523D01*
X342907200Y-145309523D02*
X342954819Y-145452380D01*
X342954819Y-145452380D02*
X342954819Y-145547618D01*
X342288152Y-144261904D02*
X342954819Y-144261904D01*
X342288152Y-144690475D02*
X342811961Y-144690475D01*
X342811961Y-144690475D02*
X342907200Y-144642856D01*
X342907200Y-144642856D02*
X342954819Y-144547618D01*
X342954819Y-144547618D02*
X342954819Y-144404761D01*
X342954819Y-144404761D02*
X342907200Y-144309523D01*
X342907200Y-144309523D02*
X342859580Y-144261904D01*
X342954819Y-143785713D02*
X342288152Y-143785713D01*
X342383390Y-143785713D02*
X342335771Y-143738094D01*
X342335771Y-143738094D02*
X342288152Y-143642856D01*
X342288152Y-143642856D02*
X342288152Y-143499999D01*
X342288152Y-143499999D02*
X342335771Y-143404761D01*
X342335771Y-143404761D02*
X342431009Y-143357142D01*
X342431009Y-143357142D02*
X342954819Y-143357142D01*
X342431009Y-143357142D02*
X342335771Y-143309523D01*
X342335771Y-143309523D02*
X342288152Y-143214285D01*
X342288152Y-143214285D02*
X342288152Y-143071428D01*
X342288152Y-143071428D02*
X342335771Y-142976189D01*
X342335771Y-142976189D02*
X342431009Y-142928570D01*
X342431009Y-142928570D02*
X342954819Y-142928570D01*
X342288152Y-142452380D02*
X343288152Y-142452380D01*
X342335771Y-142452380D02*
X342288152Y-142357142D01*
X342288152Y-142357142D02*
X342288152Y-142166666D01*
X342288152Y-142166666D02*
X342335771Y-142071428D01*
X342335771Y-142071428D02*
X342383390Y-142023809D01*
X342383390Y-142023809D02*
X342478628Y-141976190D01*
X342478628Y-141976190D02*
X342764342Y-141976190D01*
X342764342Y-141976190D02*
X342859580Y-142023809D01*
X342859580Y-142023809D02*
X342907200Y-142071428D01*
X342907200Y-142071428D02*
X342954819Y-142166666D01*
X342954819Y-142166666D02*
X342954819Y-142357142D01*
X342954819Y-142357142D02*
X342907200Y-142452380D01*
X342907200Y-141166666D02*
X342954819Y-141261904D01*
X342954819Y-141261904D02*
X342954819Y-141452380D01*
X342954819Y-141452380D02*
X342907200Y-141547618D01*
X342907200Y-141547618D02*
X342811961Y-141595237D01*
X342811961Y-141595237D02*
X342431009Y-141595237D01*
X342431009Y-141595237D02*
X342335771Y-141547618D01*
X342335771Y-141547618D02*
X342288152Y-141452380D01*
X342288152Y-141452380D02*
X342288152Y-141261904D01*
X342288152Y-141261904D02*
X342335771Y-141166666D01*
X342335771Y-141166666D02*
X342431009Y-141119047D01*
X342431009Y-141119047D02*
X342526247Y-141119047D01*
X342526247Y-141119047D02*
X342621485Y-141595237D01*
X342954819Y-140690475D02*
X342288152Y-140690475D01*
X342478628Y-140690475D02*
X342383390Y-140642856D01*
X342383390Y-140642856D02*
X342335771Y-140595237D01*
X342335771Y-140595237D02*
X342288152Y-140499999D01*
X342288152Y-140499999D02*
X342288152Y-140404761D01*
X527333333Y-26979819D02*
X527333333Y-27694104D01*
X527333333Y-27694104D02*
X527285714Y-27836961D01*
X527285714Y-27836961D02*
X527190476Y-27932200D01*
X527190476Y-27932200D02*
X527047619Y-27979819D01*
X527047619Y-27979819D02*
X526952381Y-27979819D01*
X528238095Y-27313152D02*
X528238095Y-27979819D01*
X527809524Y-27313152D02*
X527809524Y-27836961D01*
X527809524Y-27836961D02*
X527857143Y-27932200D01*
X527857143Y-27932200D02*
X527952381Y-27979819D01*
X527952381Y-27979819D02*
X528095238Y-27979819D01*
X528095238Y-27979819D02*
X528190476Y-27932200D01*
X528190476Y-27932200D02*
X528238095Y-27884580D01*
X528714286Y-27979819D02*
X528714286Y-27313152D01*
X528714286Y-27408390D02*
X528761905Y-27360771D01*
X528761905Y-27360771D02*
X528857143Y-27313152D01*
X528857143Y-27313152D02*
X529000000Y-27313152D01*
X529000000Y-27313152D02*
X529095238Y-27360771D01*
X529095238Y-27360771D02*
X529142857Y-27456009D01*
X529142857Y-27456009D02*
X529142857Y-27979819D01*
X529142857Y-27456009D02*
X529190476Y-27360771D01*
X529190476Y-27360771D02*
X529285714Y-27313152D01*
X529285714Y-27313152D02*
X529428571Y-27313152D01*
X529428571Y-27313152D02*
X529523810Y-27360771D01*
X529523810Y-27360771D02*
X529571429Y-27456009D01*
X529571429Y-27456009D02*
X529571429Y-27979819D01*
X530047619Y-27313152D02*
X530047619Y-28313152D01*
X530047619Y-27360771D02*
X530142857Y-27313152D01*
X530142857Y-27313152D02*
X530333333Y-27313152D01*
X530333333Y-27313152D02*
X530428571Y-27360771D01*
X530428571Y-27360771D02*
X530476190Y-27408390D01*
X530476190Y-27408390D02*
X530523809Y-27503628D01*
X530523809Y-27503628D02*
X530523809Y-27789342D01*
X530523809Y-27789342D02*
X530476190Y-27884580D01*
X530476190Y-27884580D02*
X530428571Y-27932200D01*
X530428571Y-27932200D02*
X530333333Y-27979819D01*
X530333333Y-27979819D02*
X530142857Y-27979819D01*
X530142857Y-27979819D02*
X530047619Y-27932200D01*
X531333333Y-27932200D02*
X531238095Y-27979819D01*
X531238095Y-27979819D02*
X531047619Y-27979819D01*
X531047619Y-27979819D02*
X530952381Y-27932200D01*
X530952381Y-27932200D02*
X530904762Y-27836961D01*
X530904762Y-27836961D02*
X530904762Y-27456009D01*
X530904762Y-27456009D02*
X530952381Y-27360771D01*
X530952381Y-27360771D02*
X531047619Y-27313152D01*
X531047619Y-27313152D02*
X531238095Y-27313152D01*
X531238095Y-27313152D02*
X531333333Y-27360771D01*
X531333333Y-27360771D02*
X531380952Y-27456009D01*
X531380952Y-27456009D02*
X531380952Y-27551247D01*
X531380952Y-27551247D02*
X530904762Y-27646485D01*
X531809524Y-27979819D02*
X531809524Y-27313152D01*
X531809524Y-27503628D02*
X531857143Y-27408390D01*
X531857143Y-27408390D02*
X531904762Y-27360771D01*
X531904762Y-27360771D02*
X532000000Y-27313152D01*
X532000000Y-27313152D02*
X532095238Y-27313152D01*
D10*
X414045580Y-8261905D02*
X415045580Y-8261905D01*
X414045580Y-8833333D02*
X414617009Y-8404762D01*
X415045580Y-8833333D02*
X414474152Y-8261905D01*
X414950342Y-9214286D02*
X414997961Y-9261905D01*
X414997961Y-9261905D02*
X415045580Y-9357143D01*
X415045580Y-9357143D02*
X415045580Y-9595238D01*
X415045580Y-9595238D02*
X414997961Y-9690476D01*
X414997961Y-9690476D02*
X414950342Y-9738095D01*
X414950342Y-9738095D02*
X414855104Y-9785714D01*
X414855104Y-9785714D02*
X414759866Y-9785714D01*
X414759866Y-9785714D02*
X414617009Y-9738095D01*
X414617009Y-9738095D02*
X414045580Y-9166667D01*
X414045580Y-9166667D02*
X414045580Y-9785714D01*
D11*
X347333333Y-125979819D02*
X347333333Y-126694104D01*
X347333333Y-126694104D02*
X347285714Y-126836961D01*
X347285714Y-126836961D02*
X347190476Y-126932200D01*
X347190476Y-126932200D02*
X347047619Y-126979819D01*
X347047619Y-126979819D02*
X346952381Y-126979819D01*
X348238095Y-126313152D02*
X348238095Y-126979819D01*
X347809524Y-126313152D02*
X347809524Y-126836961D01*
X347809524Y-126836961D02*
X347857143Y-126932200D01*
X347857143Y-126932200D02*
X347952381Y-126979819D01*
X347952381Y-126979819D02*
X348095238Y-126979819D01*
X348095238Y-126979819D02*
X348190476Y-126932200D01*
X348190476Y-126932200D02*
X348238095Y-126884580D01*
X348714286Y-126979819D02*
X348714286Y-126313152D01*
X348714286Y-126408390D02*
X348761905Y-126360771D01*
X348761905Y-126360771D02*
X348857143Y-126313152D01*
X348857143Y-126313152D02*
X349000000Y-126313152D01*
X349000000Y-126313152D02*
X349095238Y-126360771D01*
X349095238Y-126360771D02*
X349142857Y-126456009D01*
X349142857Y-126456009D02*
X349142857Y-126979819D01*
X349142857Y-126456009D02*
X349190476Y-126360771D01*
X349190476Y-126360771D02*
X349285714Y-126313152D01*
X349285714Y-126313152D02*
X349428571Y-126313152D01*
X349428571Y-126313152D02*
X349523810Y-126360771D01*
X349523810Y-126360771D02*
X349571429Y-126456009D01*
X349571429Y-126456009D02*
X349571429Y-126979819D01*
X350047619Y-126313152D02*
X350047619Y-127313152D01*
X350047619Y-126360771D02*
X350142857Y-126313152D01*
X350142857Y-126313152D02*
X350333333Y-126313152D01*
X350333333Y-126313152D02*
X350428571Y-126360771D01*
X350428571Y-126360771D02*
X350476190Y-126408390D01*
X350476190Y-126408390D02*
X350523809Y-126503628D01*
X350523809Y-126503628D02*
X350523809Y-126789342D01*
X350523809Y-126789342D02*
X350476190Y-126884580D01*
X350476190Y-126884580D02*
X350428571Y-126932200D01*
X350428571Y-126932200D02*
X350333333Y-126979819D01*
X350333333Y-126979819D02*
X350142857Y-126979819D01*
X350142857Y-126979819D02*
X350047619Y-126932200D01*
X351333333Y-126932200D02*
X351238095Y-126979819D01*
X351238095Y-126979819D02*
X351047619Y-126979819D01*
X351047619Y-126979819D02*
X350952381Y-126932200D01*
X350952381Y-126932200D02*
X350904762Y-126836961D01*
X350904762Y-126836961D02*
X350904762Y-126456009D01*
X350904762Y-126456009D02*
X350952381Y-126360771D01*
X350952381Y-126360771D02*
X351047619Y-126313152D01*
X351047619Y-126313152D02*
X351238095Y-126313152D01*
X351238095Y-126313152D02*
X351333333Y-126360771D01*
X351333333Y-126360771D02*
X351380952Y-126456009D01*
X351380952Y-126456009D02*
X351380952Y-126551247D01*
X351380952Y-126551247D02*
X350904762Y-126646485D01*
X351809524Y-126979819D02*
X351809524Y-126313152D01*
X351809524Y-126503628D02*
X351857143Y-126408390D01*
X351857143Y-126408390D02*
X351904762Y-126360771D01*
X351904762Y-126360771D02*
X352000000Y-126313152D01*
X352000000Y-126313152D02*
X352095238Y-126313152D01*
X328584819Y-218333333D02*
X329299104Y-218333333D01*
X329299104Y-218333333D02*
X329441961Y-218380952D01*
X329441961Y-218380952D02*
X329537200Y-218476190D01*
X329537200Y-218476190D02*
X329584819Y-218619047D01*
X329584819Y-218619047D02*
X329584819Y-218714285D01*
X328584819Y-217952380D02*
X328584819Y-217333333D01*
X328584819Y-217333333D02*
X328965771Y-217666666D01*
X328965771Y-217666666D02*
X328965771Y-217523809D01*
X328965771Y-217523809D02*
X329013390Y-217428571D01*
X329013390Y-217428571D02*
X329061009Y-217380952D01*
X329061009Y-217380952D02*
X329156247Y-217333333D01*
X329156247Y-217333333D02*
X329394342Y-217333333D01*
X329394342Y-217333333D02*
X329489580Y-217380952D01*
X329489580Y-217380952D02*
X329537200Y-217428571D01*
X329537200Y-217428571D02*
X329584819Y-217523809D01*
X329584819Y-217523809D02*
X329584819Y-217809523D01*
X329584819Y-217809523D02*
X329537200Y-217904761D01*
X329537200Y-217904761D02*
X329489580Y-217952380D01*
D10*
X192479080Y-91220405D02*
X193479080Y-91220405D01*
X192479080Y-91791833D02*
X193050509Y-91363262D01*
X193479080Y-91791833D02*
X192907652Y-91220405D01*
X193479080Y-92125167D02*
X193479080Y-92791833D01*
X193479080Y-92791833D02*
X192479080Y-92363262D01*
D11*
X214166666Y-284628819D02*
X214166666Y-285343104D01*
X214166666Y-285343104D02*
X214119047Y-285485961D01*
X214119047Y-285485961D02*
X214023809Y-285581200D01*
X214023809Y-285581200D02*
X213880952Y-285628819D01*
X213880952Y-285628819D02*
X213785714Y-285628819D01*
X214547619Y-284628819D02*
X215166666Y-284628819D01*
X215166666Y-284628819D02*
X214833333Y-285009771D01*
X214833333Y-285009771D02*
X214976190Y-285009771D01*
X214976190Y-285009771D02*
X215071428Y-285057390D01*
X215071428Y-285057390D02*
X215119047Y-285105009D01*
X215119047Y-285105009D02*
X215166666Y-285200247D01*
X215166666Y-285200247D02*
X215166666Y-285438342D01*
X215166666Y-285438342D02*
X215119047Y-285533580D01*
X215119047Y-285533580D02*
X215071428Y-285581200D01*
X215071428Y-285581200D02*
X214976190Y-285628819D01*
X214976190Y-285628819D02*
X214690476Y-285628819D01*
X214690476Y-285628819D02*
X214595238Y-285581200D01*
X214595238Y-285581200D02*
X214547619Y-285533580D01*
D10*
X360058455Y-266798530D02*
X361058455Y-266798530D01*
X360058455Y-267369958D02*
X360629884Y-266941387D01*
X361058455Y-267369958D02*
X360487027Y-266798530D01*
X360058455Y-267846149D02*
X360058455Y-268036625D01*
X360058455Y-268036625D02*
X360106075Y-268131863D01*
X360106075Y-268131863D02*
X360153694Y-268179482D01*
X360153694Y-268179482D02*
X360296551Y-268274720D01*
X360296551Y-268274720D02*
X360487027Y-268322339D01*
X360487027Y-268322339D02*
X360867979Y-268322339D01*
X360867979Y-268322339D02*
X360963217Y-268274720D01*
X360963217Y-268274720D02*
X361010836Y-268227101D01*
X361010836Y-268227101D02*
X361058455Y-268131863D01*
X361058455Y-268131863D02*
X361058455Y-267941387D01*
X361058455Y-267941387D02*
X361010836Y-267846149D01*
X361010836Y-267846149D02*
X360963217Y-267798530D01*
X360963217Y-267798530D02*
X360867979Y-267750911D01*
X360867979Y-267750911D02*
X360629884Y-267750911D01*
X360629884Y-267750911D02*
X360534646Y-267798530D01*
X360534646Y-267798530D02*
X360487027Y-267846149D01*
X360487027Y-267846149D02*
X360439408Y-267941387D01*
X360439408Y-267941387D02*
X360439408Y-268131863D01*
X360439408Y-268131863D02*
X360487027Y-268227101D01*
X360487027Y-268227101D02*
X360534646Y-268274720D01*
X360534646Y-268274720D02*
X360629884Y-268322339D01*
X80058455Y-92386530D02*
X81058455Y-92386530D01*
X80058455Y-92957958D02*
X80629884Y-92529387D01*
X81058455Y-92957958D02*
X80487027Y-92386530D01*
X81058455Y-93862720D02*
X81058455Y-93386530D01*
X81058455Y-93386530D02*
X80582265Y-93338911D01*
X80582265Y-93338911D02*
X80629884Y-93386530D01*
X80629884Y-93386530D02*
X80677503Y-93481768D01*
X80677503Y-93481768D02*
X80677503Y-93719863D01*
X80677503Y-93719863D02*
X80629884Y-93815101D01*
X80629884Y-93815101D02*
X80582265Y-93862720D01*
X80582265Y-93862720D02*
X80487027Y-93910339D01*
X80487027Y-93910339D02*
X80248932Y-93910339D01*
X80248932Y-93910339D02*
X80153694Y-93862720D01*
X80153694Y-93862720D02*
X80106075Y-93815101D01*
X80106075Y-93815101D02*
X80058455Y-93719863D01*
X80058455Y-93719863D02*
X80058455Y-93481768D01*
X80058455Y-93481768D02*
X80106075Y-93386530D01*
X80106075Y-93386530D02*
X80153694Y-93338911D01*
D11*
X203334819Y-106282094D02*
X202334819Y-106282094D01*
X202334819Y-106282094D02*
X202334819Y-106043999D01*
X202334819Y-106043999D02*
X202382438Y-105901142D01*
X202382438Y-105901142D02*
X202477676Y-105805904D01*
X202477676Y-105805904D02*
X202572914Y-105758285D01*
X202572914Y-105758285D02*
X202763390Y-105710666D01*
X202763390Y-105710666D02*
X202906247Y-105710666D01*
X202906247Y-105710666D02*
X203096723Y-105758285D01*
X203096723Y-105758285D02*
X203191961Y-105805904D01*
X203191961Y-105805904D02*
X203287200Y-105901142D01*
X203287200Y-105901142D02*
X203334819Y-106043999D01*
X203334819Y-106043999D02*
X203334819Y-106282094D01*
X202334819Y-105377332D02*
X202334819Y-104710666D01*
X202334819Y-104710666D02*
X203334819Y-105139237D01*
X203654819Y-109615904D02*
X202654819Y-109615904D01*
X203654819Y-109044476D02*
X203083390Y-109473047D01*
X202654819Y-109044476D02*
X203226247Y-109615904D01*
X536834819Y-22548094D02*
X535834819Y-22548094D01*
X535834819Y-22548094D02*
X535834819Y-22309999D01*
X535834819Y-22309999D02*
X535882438Y-22167142D01*
X535882438Y-22167142D02*
X535977676Y-22071904D01*
X535977676Y-22071904D02*
X536072914Y-22024285D01*
X536072914Y-22024285D02*
X536263390Y-21976666D01*
X536263390Y-21976666D02*
X536406247Y-21976666D01*
X536406247Y-21976666D02*
X536596723Y-22024285D01*
X536596723Y-22024285D02*
X536691961Y-22071904D01*
X536691961Y-22071904D02*
X536787200Y-22167142D01*
X536787200Y-22167142D02*
X536834819Y-22309999D01*
X536834819Y-22309999D02*
X536834819Y-22548094D01*
X536168152Y-21119523D02*
X536834819Y-21119523D01*
X535787200Y-21357618D02*
X536501485Y-21595713D01*
X536501485Y-21595713D02*
X536501485Y-20976666D01*
X537154819Y-25881904D02*
X536154819Y-25881904D01*
X537154819Y-25310476D02*
X536583390Y-25739047D01*
X536154819Y-25310476D02*
X536726247Y-25881904D01*
D14*
%TO.C,D1*%
X370880000Y-20236000D02*
X370880000Y-24476000D01*
X370880000Y-23636000D02*
X373120000Y-23636000D01*
X370880000Y-23756000D02*
X373120000Y-23756000D01*
X370880000Y-23876000D02*
X373120000Y-23876000D01*
X370880000Y-24476000D02*
X373120000Y-24476000D01*
X372000000Y-19586000D02*
X372000000Y-20236000D01*
X372000000Y-25126000D02*
X372000000Y-24476000D01*
X373120000Y-20236000D02*
X370880000Y-20236000D01*
X373120000Y-24476000D02*
X373120000Y-20236000D01*
%TO.C,J3*%
X323670000Y-28170000D02*
X325000000Y-28170000D01*
X323670000Y-29500000D02*
X323670000Y-28170000D01*
X323670000Y-30770000D02*
X323670000Y-38450000D01*
X323670000Y-30770000D02*
X326330000Y-30770000D01*
X323670000Y-38450000D02*
X326330000Y-38450000D01*
X326330000Y-30770000D02*
X326330000Y-38450000D01*
%TO.C,J1*%
X557090000Y20355000D02*
X557090000Y17695000D01*
X562230000Y20355000D02*
X557090000Y20355000D01*
X562230000Y20355000D02*
X562230000Y17695000D01*
X562230000Y17695000D02*
X557090000Y17695000D01*
X563500000Y20355000D02*
X564830000Y20355000D01*
X564830000Y20355000D02*
X564830000Y19025000D01*
%TO.C,K8*%
D10*
X278650875Y-250580625D02*
X271380875Y-250580625D01*
X271380875Y-284580625D01*
X278650875Y-284580625D01*
X278650875Y-250580625D01*
X281515875Y-261080625D02*
X268515875Y-261080625D01*
X268515875Y-274080625D01*
X281515875Y-274080625D01*
X281515875Y-261080625D01*
%TO.C,K1*%
X362132000Y8044000D02*
X354862000Y8044000D01*
X354862000Y-25956000D01*
X362132000Y-25956000D01*
X362132000Y8044000D01*
X364997000Y-2456000D02*
X351997000Y-2456000D01*
X351997000Y-15456000D01*
X364997000Y-15456000D01*
X364997000Y-2456000D01*
D14*
%TO.C,D5*%
X91380000Y-104924000D02*
X91380000Y-109164000D01*
X91380000Y-108324000D02*
X93620000Y-108324000D01*
X91380000Y-108444000D02*
X93620000Y-108444000D01*
X91380000Y-108564000D02*
X93620000Y-108564000D01*
X91380000Y-109164000D02*
X93620000Y-109164000D01*
X92500000Y-104274000D02*
X92500000Y-104924000D01*
X92500000Y-109814000D02*
X92500000Y-109164000D01*
X93620000Y-104924000D02*
X91380000Y-104924000D01*
X93620000Y-109164000D02*
X93620000Y-104924000D01*
%TO.C,Jumper*%
X341890000Y-127560000D02*
X341890000Y-131890000D01*
X343110000Y-127560000D02*
X343110000Y-131890000D01*
%TO.C,K4*%
D10*
X529150875Y8919375D02*
X521880875Y8919375D01*
X521880875Y-25080625D01*
X529150875Y-25080625D01*
X529150875Y8919375D01*
X532015875Y-1580625D02*
X519015875Y-1580625D01*
X519015875Y-14580625D01*
X532015875Y-14580625D01*
X532015875Y-1580625D01*
D14*
%TO.C,J6*%
X384170000Y-232714000D02*
X384170000Y-235374000D01*
X389310000Y-232714000D02*
X384170000Y-232714000D01*
X389310000Y-232714000D02*
X389310000Y-235374000D01*
X389310000Y-235374000D02*
X384170000Y-235374000D01*
X390580000Y-232714000D02*
X391910000Y-232714000D01*
X391910000Y-232714000D02*
X391910000Y-234044000D01*
%TO.C,Jumper*%
X413390000Y-28560000D02*
X413390000Y-32890000D01*
X414610000Y-28560000D02*
X414610000Y-32890000D01*
%TO.C,J2*%
X216590000Y-58714000D02*
X216590000Y-61374000D01*
X221730000Y-58714000D02*
X216590000Y-58714000D01*
X221730000Y-58714000D02*
X221730000Y-61374000D01*
X221730000Y-61374000D02*
X216590000Y-61374000D01*
X223000000Y-58714000D02*
X224330000Y-58714000D01*
X224330000Y-58714000D02*
X224330000Y-60044000D01*
%TO.C,Jumper*%
X469390000Y-29085000D02*
X469390000Y-33415000D01*
X470610000Y-29085000D02*
X470610000Y-33415000D01*
X191890000Y-111629000D02*
X191890000Y-115959000D01*
X193110000Y-111629000D02*
X193110000Y-115959000D01*
%TO.C,D3*%
X481880000Y-20190000D02*
X481880000Y-24430000D01*
X481880000Y-23590000D02*
X484120000Y-23590000D01*
X481880000Y-23710000D02*
X484120000Y-23710000D01*
X481880000Y-23830000D02*
X484120000Y-23830000D01*
X481880000Y-24430000D02*
X484120000Y-24430000D01*
X483000000Y-19540000D02*
X483000000Y-20190000D01*
X483000000Y-25080000D02*
X483000000Y-24430000D01*
X484120000Y-20190000D02*
X481880000Y-20190000D01*
X484120000Y-24430000D02*
X484120000Y-20190000D01*
%TO.C,D9*%
X371380000Y-279336000D02*
X371380000Y-283576000D01*
X371380000Y-282736000D02*
X373620000Y-282736000D01*
X371380000Y-282856000D02*
X373620000Y-282856000D01*
X371380000Y-282976000D02*
X373620000Y-282976000D01*
X371380000Y-283576000D02*
X373620000Y-283576000D01*
X372500000Y-278686000D02*
X372500000Y-279336000D01*
X372500000Y-284226000D02*
X372500000Y-283576000D01*
X373620000Y-279336000D02*
X371380000Y-279336000D01*
X373620000Y-283576000D02*
X373620000Y-279336000D01*
%TO.C,D10*%
X362380000Y-194880000D02*
X362380000Y-199120000D01*
X362380000Y-198280000D02*
X364620000Y-198280000D01*
X362380000Y-198400000D02*
X364620000Y-198400000D01*
X362380000Y-198520000D02*
X364620000Y-198520000D01*
X362380000Y-199120000D02*
X364620000Y-199120000D01*
X363500000Y-194230000D02*
X363500000Y-194880000D01*
X363500000Y-199770000D02*
X363500000Y-199120000D01*
X364620000Y-194880000D02*
X362380000Y-194880000D01*
X364620000Y-199120000D02*
X364620000Y-194880000D01*
%TO.C,D2*%
X425880000Y-20380000D02*
X425880000Y-24620000D01*
X425880000Y-23780000D02*
X428120000Y-23780000D01*
X425880000Y-23900000D02*
X428120000Y-23900000D01*
X425880000Y-24020000D02*
X428120000Y-24020000D01*
X425880000Y-24620000D02*
X428120000Y-24620000D01*
X427000000Y-19730000D02*
X427000000Y-20380000D01*
X427000000Y-25270000D02*
X427000000Y-24620000D01*
X428120000Y-20380000D02*
X425880000Y-20380000D01*
X428120000Y-24620000D02*
X428120000Y-20380000D01*
%TO.C,J3*%
X329670000Y-28170000D02*
X331000000Y-28170000D01*
X329670000Y-29500000D02*
X329670000Y-28170000D01*
X329670000Y-30770000D02*
X329670000Y-38450000D01*
X329670000Y-30770000D02*
X332330000Y-30770000D01*
X329670000Y-38450000D02*
X332330000Y-38450000D01*
X332330000Y-30770000D02*
X332330000Y-38450000D01*
%TO.C,J7*%
X330170000Y-215830000D02*
X330170000Y-214500000D01*
X331500000Y-215830000D02*
X330170000Y-215830000D01*
X332770000Y-213170000D02*
X340450000Y-213170000D01*
X332770000Y-215830000D02*
X332770000Y-213170000D01*
X332770000Y-215830000D02*
X340450000Y-215830000D01*
X340450000Y-215830000D02*
X340450000Y-213170000D01*
%TO.C,K3*%
D10*
X473698500Y8421875D02*
X466428500Y8421875D01*
X466428500Y-25578125D01*
X473698500Y-25578125D01*
X473698500Y8421875D01*
X476563500Y-2078125D02*
X463563500Y-2078125D01*
X463563500Y-15078125D01*
X476563500Y-15078125D01*
X476563500Y-2078125D01*
D14*
%TO.C,Jumper*%
X135826500Y-112129000D02*
X135826500Y-116459000D01*
X137046500Y-112129000D02*
X137046500Y-116459000D01*
%TO.C,K11*%
D10*
X357135000Y-98000000D02*
X349865000Y-98000000D01*
X349865000Y-132000000D01*
X357135000Y-132000000D01*
X357135000Y-98000000D01*
X360000000Y-108500000D02*
X347000000Y-108500000D01*
X347000000Y-121500000D01*
X360000000Y-121500000D01*
X360000000Y-108500000D01*
D14*
%TO.C,Jumper*%
X359390000Y-287041000D02*
X359390000Y-291371000D01*
X360610000Y-287041000D02*
X360610000Y-291371000D01*
%TO.C,D6*%
X148380000Y-103924000D02*
X148380000Y-108164000D01*
X148380000Y-107324000D02*
X150620000Y-107324000D01*
X148380000Y-107444000D02*
X150620000Y-107444000D01*
X148380000Y-107564000D02*
X150620000Y-107564000D01*
X148380000Y-108164000D02*
X150620000Y-108164000D01*
X149500000Y-103274000D02*
X149500000Y-103924000D01*
X149500000Y-108814000D02*
X149500000Y-108164000D01*
X150620000Y-103924000D02*
X148380000Y-103924000D01*
X150620000Y-108164000D02*
X150620000Y-103924000D01*
%TO.C,Jumper*%
X333390000Y-196585000D02*
X333390000Y-200915000D01*
X334610000Y-196585000D02*
X334610000Y-200915000D01*
%TO.C,K10*%
D10*
X356635000Y-166500000D02*
X349365000Y-166500000D01*
X349365000Y-200500000D01*
X356635000Y-200500000D01*
X356635000Y-166500000D01*
X359500000Y-177000000D02*
X346500000Y-177000000D01*
X346500000Y-190000000D01*
X359500000Y-190000000D01*
X359500000Y-177000000D01*
D14*
%TO.C,J8*%
X366670000Y-77670000D02*
X366670000Y-80330000D01*
X371810000Y-77670000D02*
X366670000Y-77670000D01*
X371810000Y-77670000D02*
X371810000Y-80330000D01*
X371810000Y-80330000D02*
X366670000Y-80330000D01*
X373080000Y-77670000D02*
X374410000Y-77670000D01*
X374410000Y-77670000D02*
X374410000Y-79000000D01*
%TO.C,J5*%
X218670000Y-286414000D02*
X220000000Y-286414000D01*
X218670000Y-287744000D02*
X218670000Y-286414000D01*
X218670000Y-289014000D02*
X218670000Y-296694000D01*
X218670000Y-289014000D02*
X221330000Y-289014000D01*
X218670000Y-296694000D02*
X221330000Y-296694000D01*
X221330000Y-289014000D02*
X221330000Y-296694000D01*
%TO.C,J3*%
X45170000Y-111214000D02*
X46500000Y-111214000D01*
X45170000Y-112544000D02*
X45170000Y-111214000D01*
X45170000Y-113814000D02*
X45170000Y-121494000D01*
X45170000Y-113814000D02*
X47830000Y-113814000D01*
X45170000Y-121494000D02*
X47830000Y-121494000D01*
X47830000Y-113814000D02*
X47830000Y-121494000D01*
%TO.C,D8*%
X286880000Y-279380000D02*
X286880000Y-283620000D01*
X286880000Y-282780000D02*
X289120000Y-282780000D01*
X286880000Y-282900000D02*
X289120000Y-282900000D01*
X286880000Y-283020000D02*
X289120000Y-283020000D01*
X286880000Y-283620000D02*
X289120000Y-283620000D01*
X288000000Y-278730000D02*
X288000000Y-279380000D01*
X288000000Y-284270000D02*
X288000000Y-283620000D01*
X289120000Y-279380000D02*
X286880000Y-279380000D01*
X289120000Y-283620000D02*
X289120000Y-279380000D01*
%TO.C,K6*%
D10*
X140071500Y-75458500D02*
X132801500Y-75458500D01*
X132801500Y-109458500D01*
X140071500Y-109458500D01*
X140071500Y-75458500D01*
X142936500Y-85958500D02*
X129936500Y-85958500D01*
X129936500Y-98958500D01*
X142936500Y-98958500D01*
X142936500Y-85958500D01*
D14*
%TO.C,J4*%
X50170000Y-111174000D02*
X51500000Y-111174000D01*
X50170000Y-112504000D02*
X50170000Y-111174000D01*
X50170000Y-113774000D02*
X50170000Y-121454000D01*
X50170000Y-113774000D02*
X52830000Y-113774000D01*
X50170000Y-121454000D02*
X52830000Y-121454000D01*
X52830000Y-113774000D02*
X52830000Y-121454000D01*
%TO.C,D11*%
X361380000Y-126380000D02*
X361380000Y-130620000D01*
X361380000Y-129780000D02*
X363620000Y-129780000D01*
X361380000Y-129900000D02*
X363620000Y-129900000D01*
X361380000Y-130020000D02*
X363620000Y-130020000D01*
X361380000Y-130620000D02*
X363620000Y-130620000D01*
X362500000Y-125730000D02*
X362500000Y-126380000D01*
X362500000Y-131270000D02*
X362500000Y-130620000D01*
X363620000Y-126380000D02*
X361380000Y-126380000D01*
X363620000Y-130620000D02*
X363620000Y-126380000D01*
%TO.C,Jumper*%
X343560000Y-137890000D02*
X347890000Y-137890000D01*
X343560000Y-139110000D02*
X347890000Y-139110000D01*
X524890000Y-28585000D02*
X524890000Y-32915000D01*
X526110000Y-28585000D02*
X526110000Y-32915000D01*
%TO.C,K2*%
D10*
X417638000Y8000000D02*
X410368000Y8000000D01*
X410368000Y-26000000D01*
X417638000Y-26000000D01*
X417638000Y8000000D01*
X420503000Y-2500000D02*
X407503000Y-2500000D01*
X407503000Y-15500000D01*
X420503000Y-15500000D01*
X420503000Y-2500000D01*
D14*
%TO.C,Jumper*%
X344890000Y-127585000D02*
X344890000Y-131915000D01*
X346110000Y-127585000D02*
X346110000Y-131915000D01*
%TO.C,J3*%
X330130000Y-219330000D02*
X330130000Y-218000000D01*
X331460000Y-219330000D02*
X330130000Y-219330000D01*
X332730000Y-216670000D02*
X340410000Y-216670000D01*
X332730000Y-219330000D02*
X332730000Y-216670000D01*
X332730000Y-219330000D02*
X340410000Y-219330000D01*
X340410000Y-219330000D02*
X340410000Y-216670000D01*
%TO.C,K7*%
D10*
X196071500Y-74958500D02*
X188801500Y-74958500D01*
X188801500Y-108958500D01*
X196071500Y-108958500D01*
X196071500Y-74958500D01*
X198936500Y-85458500D02*
X185936500Y-85458500D01*
X185936500Y-98458500D01*
X198936500Y-98458500D01*
X198936500Y-85458500D01*
D14*
%TO.C,J3*%
X213170000Y-286174000D02*
X214500000Y-286174000D01*
X213170000Y-287504000D02*
X213170000Y-286174000D01*
X213170000Y-288774000D02*
X213170000Y-296454000D01*
X213170000Y-288774000D02*
X215830000Y-288774000D01*
X213170000Y-296454000D02*
X215830000Y-296454000D01*
X215830000Y-288774000D02*
X215830000Y-296454000D01*
%TO.C,K9*%
D10*
X363650875Y-250536625D02*
X356380875Y-250536625D01*
X356380875Y-284536625D01*
X363650875Y-284536625D01*
X363650875Y-250536625D01*
X366515875Y-261036625D02*
X353515875Y-261036625D01*
X353515875Y-274036625D01*
X366515875Y-274036625D01*
X366515875Y-261036625D01*
%TO.C,K5*%
X83650875Y-76124625D02*
X76380875Y-76124625D01*
X76380875Y-110124625D01*
X83650875Y-110124625D01*
X83650875Y-76124625D01*
X86515875Y-86624625D02*
X73515875Y-86624625D01*
X73515875Y-99624625D01*
X86515875Y-99624625D01*
X86515875Y-86624625D01*
D14*
%TO.C,D7*%
X203880000Y-103424000D02*
X203880000Y-107664000D01*
X203880000Y-106824000D02*
X206120000Y-106824000D01*
X203880000Y-106944000D02*
X206120000Y-106944000D01*
X203880000Y-107064000D02*
X206120000Y-107064000D01*
X203880000Y-107664000D02*
X206120000Y-107664000D01*
X205000000Y-102774000D02*
X205000000Y-103424000D01*
X205000000Y-108314000D02*
X205000000Y-107664000D01*
X206120000Y-103424000D02*
X203880000Y-103424000D01*
X206120000Y-107664000D02*
X206120000Y-103424000D01*
%TO.C,D4*%
X537380000Y-19690000D02*
X537380000Y-23930000D01*
X537380000Y-23090000D02*
X539620000Y-23090000D01*
X537380000Y-23210000D02*
X539620000Y-23210000D01*
X537380000Y-23330000D02*
X539620000Y-23330000D01*
X537380000Y-23930000D02*
X539620000Y-23930000D01*
X538500000Y-19040000D02*
X538500000Y-19690000D01*
X538500000Y-24580000D02*
X538500000Y-23930000D01*
X539620000Y-19690000D02*
X537380000Y-19690000D01*
X539620000Y-23930000D02*
X539620000Y-19690000D01*
%TD*%
M02*
